<svg width="64" height="64" viewBox="0 0 64 64" fill="none" xmlns="http://www.w3.org/2000/svg">
<circle cx="32" cy="32" r="32" fill="#740200"/>
<path d="M49.3824 17.3123L47.7857 15.6284C48.1598 15.4713 48.4096 15.1969 48.4096 14.8835C48.4096 14.3956 47.8094 14 47.0673 14H17.0974C15.6989 14 14.4245 14.3751 13.5094 14.9784C12.5928 15.5792 12 16.42 12 17.339V46.6462C12 48.2527 13.9796 49.5556 16.4204 49.5556H48.8369C50.8933 49.5556 52.561 48.4589 52.561 47.1059V19.7269C52.561 18.496 51.1771 17.4889 49.3824 17.3123ZM21.2798 26.5236L24.2336 28.8253C24.4658 29.0069 24.8547 29.0419 25.1015 28.9042L25.2227 28.8376C25.4696 28.6999 25.4844 28.4415 25.2508 28.2601L22.2807 25.9452C21.6818 25.4787 21.9332 25.1001 22.3457 24.871C22.7581 24.6418 23.3672 24.5421 23.966 25.0087L26.9361 27.3235C27.1682 27.505 27.5585 27.5395 27.8054 27.4019L27.9251 27.3352C28.172 27.198 28.1868 26.9397 27.9532 26.7582L24.9993 24.456C23.9275 23.6206 25.5965 22.7419 26.6433 23.5583C27.8984 24.5363 29.4331 25.7326 29.4331 25.7326C31.3682 27.2301 31.3757 27.8937 31.1643 28.8128C30.9943 29.5533 30.7118 30.0797 31.9123 31.0157L32.2937 31.3125L30.6099 32.6247L29.946 32.1085C28.7457 31.1724 27.9103 31.2672 26.772 31.2541C25.3601 31.2376 24.3681 31.1198 22.4492 29.6141C22.4492 29.6141 20.9146 28.4177 19.6595 27.4398C18.6128 26.6238 20.2079 25.6878 21.2798 26.5236ZM26.8814 45.1268H25.9278V43.2289L24.9816 44.5464H24.3L23.3257 43.2216V45.1269H22.3736V41.7819H23.2872L24.64 43.6784L25.966 41.7819H26.8812V45.1268H26.8814ZM31.6595 42.3594H29.2867V43.1544H31.3107V43.7276H29.2867V44.5493H31.6595V45.1268H28.3346V41.7819H31.6595V42.3594ZM36.7451 45.1268H35.904L33.8194 43.0376V45.1268H32.8673V41.7819H33.7085L35.793 43.8667V41.7819H36.7451V45.1268ZM33.6731 35.0129L35.357 33.7003L40.317 37.5667L38.3522 38.6599L33.6731 35.0129ZM41.8397 43.9761C41.8397 44.1503 41.791 44.3118 41.6978 44.4563C41.6032 44.6013 41.4701 44.7268 41.3031 44.829C41.136 44.9306 40.9365 45.0109 40.7103 45.0683C40.4855 45.1247 40.2401 45.1535 39.9814 45.1535C39.7242 45.1535 39.4787 45.1247 39.2525 45.0683C39.0263 45.0109 38.8283 44.9301 38.6642 44.8285C38.4986 44.7263 38.3671 44.6013 38.2739 44.4563C38.1793 44.3118 38.132 44.1503 38.132 43.9761V41.7819H39.0841V43.9538C39.0841 44.1498 39.1654 44.3045 39.3266 44.413C39.4892 44.5229 39.7035 44.576 39.9815 44.576C40.2595 44.576 40.4753 44.5225 40.6408 44.4125C40.8065 44.3025 40.8862 44.1522 40.8862 43.9537V41.7819H41.8398L41.8397 43.9761ZM44.0011 26.5976C43.3239 27.684 42.1072 29.6772 40.7471 30.7383C37.5834 33.35 37.5404 30.984 34.9326 32.9564L27.6146 38.6599L25.6588 37.5721L25.6262 37.5847C25.6262 37.5847 25.635 37.5774 25.6483 37.5672C25.9573 37.3268 30.3096 33.9348 34.0545 31.0152C37.7594 28.1277 40.8521 25.7165 41.504 25.209C42.8406 24.1664 45.0582 24.9064 44.0011 26.5976ZM14.7867 17.3785V17.339C14.7867 16.9522 15.038 16.5654 15.4756 16.2779C15.9118 15.9899 16.4853 15.8338 17.0974 15.8338H44.6959L46.161 17.3785H14.7867Z" fill="#E90101"/>
</svg>
