<svg width="43" height="43" viewBox="0 0 43 43" fill="none" xmlns="http://www.w3.org/2000/svg">
<path d="M40.3929 21.039C40.3929 31.5792 31.9691 40.0779 21.634 40.0779C11.2989 40.0779 2.87509 31.5792 2.87509 21.039C2.87509 10.4987 11.2989 2 21.634 2C31.9691 2 40.3929 10.4987 40.3929 21.039Z" fill="white" stroke="#E90101" stroke-width="4"/>
<path d="M14.4252 21.9615C14.4694 21.9669 14.5136 21.9695 14.557 21.9695C14.8782 21.9695 15.1648 21.8268 15.2286 21.621C15.4127 21.0267 15.8026 20.4774 16.3874 19.9884L17.1029 19.39C17.217 19.2946 17.263 19.1737 17.23 19.0561L16.5712 16.7099C16.5053 16.4756 16.1502 16.319 15.7775 16.3606C15.405 16.402 15.1564 16.6255 15.2221 16.8598L15.8292 19.0216L15.2926 19.4705C14.5821 20.0646 14.1081 20.7327 13.8841 21.4562C13.8116 21.6897 14.054 21.916 14.4252 21.9615Z" fill="#E90101"/>
<path d="M21.5001 27.2813C21.8783 27.2813 22.185 27.0884 22.185 26.8504C22.185 26.6124 21.8783 26.4196 21.5001 26.4196C18.4794 26.4196 15.8468 25.0695 15.2401 23.2095C15.164 22.9764 14.8019 22.8263 14.4314 22.874C14.0608 22.9218 13.8221 23.1495 13.898 23.3827C14.6349 25.6417 17.832 27.2813 21.5001 27.2813Z" fill="#E90101"/>
<path d="M30.3694 34.1383H29.1332C27.2871 32.9996 24.7995 32.311 22.185 32.208V28.9903C27.6566 28.7675 31.9999 25.8972 31.9999 22.4003C31.9999 21.0203 31.3352 19.7063 30.0745 18.5878L31.9895 11.7704C32.0248 11.6449 31.97 11.5161 31.8398 11.4185C31.7096 11.321 31.5174 11.2646 31.315 11.2646H22.185V9.86702C22.185 9.31272 22.902 8.8617 23.7833 8.8617H30.644C31.0223 8.8617 31.329 8.66885 31.329 8.43085C31.329 8.19285 31.0223 8 30.644 8H23.7833C22.1466 8 20.815 8.83752 20.815 9.86702V11.2646H11.685C11.4825 11.2646 11.2904 11.3209 11.1602 11.4185C11.0301 11.5161 10.9753 11.6449 11.0104 11.7704L12.9255 18.5878C11.6647 19.7064 11 21.0204 11 22.4003C11 25.8972 15.3434 28.7675 20.8151 28.9903V32.208C18.2005 32.311 15.7129 32.9996 13.8668 34.1383H12.6306C12.2524 34.1383 11.9457 34.3311 11.9457 34.5691C11.9457 34.8071 12.2524 35 12.6306 35H30.3695C30.7478 35 31.0545 34.8071 31.0545 34.5691C31.0545 34.3311 30.7477 34.1383 30.3694 34.1383ZM21.5 33.0557C23.4812 33.0557 25.4074 33.442 26.9933 34.1383H16.0066C17.5925 33.442 19.5188 33.0557 21.5 33.0557ZM14.1982 18.9525C14.3122 18.857 14.3583 18.7361 14.3253 18.6185L13.3261 15.0614L12.5017 12.1262H20.815V14.6307H15.3705C14.9923 14.6307 14.6856 14.8235 14.6855 15.0614C14.6855 15.2995 14.9922 15.4924 15.3705 15.4924H29.5528L28.6746 18.6185C28.6417 18.7361 28.6877 18.857 28.8018 18.9525C29.9979 19.9528 30.6301 21.1451 30.6301 22.4003C30.6301 25.5668 26.5344 28.143 21.5001 28.143C16.4658 28.143 12.37 25.5668 12.37 22.4003C12.3699 21.1452 13.0021 19.953 14.1982 18.9525ZM29.7948 14.6307H22.185V12.1263H30.4984L29.7948 14.6307Z" fill="#E90101"/>
</svg>
