<svg width="39" height="39" viewBox="0 0 39 39" fill="none" xmlns="http://www.w3.org/2000/svg">
<g clip-path="url(#clip0_27813_62)">
<rect width="39" height="39" fill="white"/>
<path d="M19.5 0C15.6433 0 11.8731 1.14365 8.66639 3.28634C5.45963 5.42903 2.96027 8.47451 1.48436 12.0377C0.00844908 15.6008 -0.377716 19.5216 0.374696 23.3043C1.12711 27.0869 2.9843 30.5615 5.71143 33.2886C8.43855 36.0157 11.9131 37.8729 15.6957 38.6253C19.4784 39.3777 23.3992 38.9916 26.9623 37.5156C30.5255 36.0397 33.571 33.5404 35.7137 30.3336C37.8563 27.1269 39 23.3567 39 19.5C39 14.3283 36.9455 9.36838 33.2886 5.71142C29.6316 2.05446 24.6717 0 19.5 0ZM18.72 27.625L9.75001 20.7837L12.7238 16.9325L18.1025 21.125L25.4313 12.87L29.0713 16.12L18.72 27.625Z" fill="#740200"/>
</g>
<defs>
<clipPath id="clip0_27813_62">
<rect width="39" height="39" fill="white"/>
</clipPath>
</defs>
</svg>
