<svg width="27" height="39" viewBox="0 0 27 39" fill="none" xmlns="http://www.w3.org/2000/svg">
<path d="M4.31061 20.1666C4.36624 20.1745 4.42176 20.1782 4.47647 20.1782C4.88071 20.1782 5.24138 19.972 5.32161 19.6749C5.55333 18.8164 6.044 18.023 6.77995 17.3166L7.68037 16.4523C7.82393 16.3145 7.88186 16.1398 7.84037 15.97L7.0112 12.581C6.92833 12.2426 6.48145 12.0164 6.01239 12.0764C5.54356 12.1363 5.23069 12.4591 5.31345 12.7975L6.07744 15.9202L5.40218 16.5685C4.50796 17.4267 3.91155 18.3918 3.6296 19.4367C3.53834 19.7741 3.84339 20.1009 4.31061 20.1666Z" fill="#E90101"/>
<path d="M13.214 27.8508C13.69 27.8508 14.076 27.5722 14.076 27.2284C14.076 26.8846 13.69 26.6061 13.214 26.6061C9.41261 26.6061 6.09952 24.656 5.33598 21.9693C5.24024 21.6326 4.78451 21.4158 4.31832 21.4847C3.8519 21.5537 3.55145 21.8827 3.64708 22.2194C4.5744 25.4825 8.59782 27.8508 13.214 27.8508Z" fill="#E90101"/>
<path d="M24.3758 37.7553H22.8201C20.4968 36.1105 17.3663 35.1159 14.0759 34.9672V30.3193C20.9618 29.9976 26.4278 25.8515 26.4278 20.8004C26.4278 18.8071 25.5912 16.9091 24.0046 15.2935L26.4147 5.44614C26.459 5.26492 26.3901 5.07888 26.2262 4.9379C26.0624 4.797 25.8205 4.71552 25.5657 4.71552H14.0759V2.69681C14.0759 1.89615 14.9783 1.24468 16.0873 1.24468H24.7214C25.1975 1.24468 25.5834 0.966121 25.5834 0.62234C25.5834 0.27856 25.1975 0 24.7214 0H16.0873C14.0277 0 12.3519 1.20975 12.3519 2.69681V4.71552H0.862047C0.607229 4.71552 0.365398 4.79692 0.201611 4.9379C0.0378244 5.07888 -0.0311385 5.26492 0.0131128 5.44614L2.42314 15.2935C0.836531 16.9092 9.99515e-06 18.8073 9.99515e-06 20.8004C9.99515e-06 25.8514 5.46601 29.9975 12.352 30.3193V34.9672C9.06163 35.1159 5.93105 36.1105 3.60781 37.7553H2.05212C1.57604 37.7553 1.19008 38.0339 1.19008 38.3777C1.19008 38.7214 1.57604 39 2.05212 39H24.3759C24.852 39 25.2379 38.7214 25.2379 38.3777C25.2379 38.0339 24.8518 37.7553 24.3758 37.7553ZM13.2139 36.1915C15.7072 36.1915 18.1313 36.7495 20.1271 37.7553H6.3007C8.29648 36.7495 10.7206 36.1915 13.2139 36.1915ZM4.0248 15.8202C4.16836 15.6824 4.22629 15.5076 4.1848 15.3379L2.92737 10.1998L1.88983 5.96011H12.3519V9.57765H5.50015C5.02419 9.57765 4.63823 9.85613 4.63811 10.1998C4.63811 10.5438 5.02408 10.8223 5.50015 10.8223H23.3481L22.243 15.3379C22.2015 15.5077 22.2594 15.6823 22.403 15.8202C23.9082 17.2652 24.7038 18.9874 24.7038 20.8004C24.7038 25.3743 19.5495 29.0954 13.214 29.0954C6.87849 29.0954 1.72408 25.3743 1.72408 20.8004C1.72397 18.9874 2.51957 17.2654 4.0248 15.8202ZM23.6527 9.57774H14.0759V5.9602H24.5381L23.6527 9.57774Z" fill="#E90101"/>
</svg>
