<svg width="23" height="22" viewBox="0 0 23 22" fill="none" xmlns="http://www.w3.org/2000/svg">
<path d="M2.05323 12.4787L10.7533 21.4837C11.053 21.7938 11.2028 21.9489 11.3795 21.9871C11.4591 22.0043 11.5409 22.0043 11.6205 21.9871C11.7972 21.9489 11.947 21.7938 12.2467 21.4837L20.9468 12.4787C23.3946 9.94518 23.6918 5.77588 21.6331 2.85222L21.2461 2.30248C18.7832 -1.19505 13.8395 -0.60849 12.109 3.38659C11.8645 3.95093 11.1355 3.95093 10.891 3.38659C9.16051 -0.60849 4.21686 -1.19505 1.754 2.30249L1.3669 2.85222C-0.691859 5.77588 -0.394604 9.94518 2.05323 12.4787Z" fill="#E70001"/>
</svg>
