<svg width="55" height="35" viewBox="0 0 55 35" fill="none" xmlns="http://www.w3.org/2000/svg">
<path d="M1.92932 28.6364H4.8233H49.3906H52.0917C53.2493 28.6364 54.021 28 54.021 27.0455C54.021 26.0909 53.2493 25.4545 52.0917 25.4545H50.1624C49.7765 16.3864 42.2521 8.90909 32.2197 6.84091C32.6055 6.20455 32.7985 5.56818 32.7985 4.77273C32.7985 2.06818 30.2903 0 27.0105 0C23.7307 0 21.2225 2.06818 21.2225 4.77273C21.2225 5.56818 21.4155 6.20455 21.8013 6.84091C11.7689 8.90909 4.24451 16.3864 3.85864 25.4545H1.92932C0.771728 25.4545 0 26.0909 0 27.0455C0 28 0.771728 28.6364 1.92932 28.6364Z" fill="#E90101"/>
<path d="M6.75262 31.8181L8.29608 34.2045C8.48901 34.6818 9.26074 34.9999 10.0325 34.9999H44.1815C44.9532 34.9999 45.532 34.6818 45.9178 34.2045L47.4613 31.8181H6.75262Z" fill="#E90101"/>
</svg>
