<svg width="43" height="43" viewBox="0 0 43 43" fill="none" xmlns="http://www.w3.org/2000/svg">
<path d="M40.3929 21.039C40.3929 31.5792 31.969 40.0779 21.6339 40.0779C11.2988 40.0779 2.875 31.5792 2.875 21.039C2.875 10.4987 11.2988 2 21.6339 2C31.969 2 40.3929 10.4987 40.3929 21.039Z" fill="white" stroke="#E90101" stroke-width="4"/>
<g clip-path="url(#clip0_27834_7)">
<path d="M21.9501 14.2913C14.6547 14.2913 16.6528 21.7016 16.9026 22.5581C17.1524 23.4147 19.4013 29.9254 22.1498 29.9254C24.8978 29.9254 26.5969 24.3142 27.0965 22.6446C30.3948 13.6919 21.9501 14.2913 21.9501 14.2913ZM19.4647 20.0092C19.0379 20.0092 18.6907 19.7112 18.6907 19.3457C18.6907 18.9799 19.0379 18.6823 19.4647 18.6823C19.8916 18.6823 20.2392 18.9799 20.2392 19.3457C20.2397 19.7112 19.8921 20.0092 19.4647 20.0092ZM21.7323 28.6579C21.6964 28.6845 21.6506 28.6997 21.6049 28.6997C21.5724 28.6997 21.539 28.6917 21.51 28.6773C21.029 28.4438 20.4945 28.0408 20.4596 27.7078C20.4468 27.586 20.4989 27.476 20.6071 27.3997C20.6651 27.3575 20.735 27.3365 20.8082 27.3365C21.1731 27.3365 21.5405 27.954 21.7844 28.4716C21.8149 28.5365 21.7942 28.6116 21.7323 28.6579ZM22.8186 28.6508C22.7886 28.6647 22.7561 28.6723 22.7242 28.6723C22.6775 28.6723 22.6327 28.6584 22.5963 28.6301C22.5343 28.5846 22.5137 28.5091 22.5447 28.4442C22.7886 27.9262 23.1559 27.3091 23.5203 27.3091C23.5936 27.3091 23.6635 27.3306 23.722 27.3723C23.8297 27.4499 23.8823 27.559 23.869 27.6817C23.8341 28.0151 23.3005 28.4172 22.8186 28.6508ZM24.7985 20.0231C24.3716 20.0231 24.0244 19.7251 24.0244 19.3597C24.0244 18.9938 24.3716 18.6962 24.7985 18.6962C25.2253 18.6962 25.572 18.9938 25.572 19.3597C25.572 19.7255 25.2253 20.0231 24.7985 20.0231Z" fill="#E90101"/>
<path d="M24.4641 29.7817C23.7948 30.3668 23.0281 30.7208 22.1498 30.7208C21.2892 30.7208 20.4685 30.3461 19.6738 29.5861C19.3113 29.2392 19.0826 29.3012 19.1515 29.7632C19.2985 30.7466 19.5734 31.2473 19.9152 31.6145C20.254 31.9782 20.4758 31.9504 20.4734 31.6056C20.4704 31.2608 20.7094 31.386 20.8924 31.824C21.0492 32.2 21.2455 32.4668 21.4732 32.7138C21.8095 33.0792 22.4601 33.1083 22.7626 32.7214C23.0075 32.4086 23.1914 32.0727 23.3242 31.781C23.5204 31.3468 23.6655 31.2321 23.6866 31.5525C23.7068 31.8724 24.0495 31.9007 24.3579 31.5184C24.7429 31.0412 24.9323 30.5017 25.0218 29.9764C25.0995 29.514 24.8447 29.4495 24.4641 29.7817Z" fill="#E90101"/>
<path d="M15.8345 15.2773C14.0011 15.0492 13.1022 16.9056 13.0092 17.494C12.8499 18.0842 12.6345 18.4661 12.2042 18.923C11.8634 19.2851 11.9785 19.6573 12.5219 19.6421C13.4425 19.6164 14.2573 19.283 14.8558 18.9276C15.3024 18.6625 15.653 18.0108 15.773 17.5564C15.8881 17.1189 16.0503 16.6885 16.2731 16.2801C16.5038 15.8585 16.372 15.3439 15.8345 15.2773Z" fill="#E90101"/>
<path d="M31.223 17.494C31.1305 16.9191 30.2699 15.134 28.5202 15.2646C27.9793 15.3051 27.5917 15.5121 27.6065 15.5272C27.6148 15.5361 27.6222 15.5449 27.6311 15.5546C28.145 16.1557 28.4872 16.8643 28.6589 17.6761C28.7553 18.1343 29.0931 18.7776 29.551 19.0279C30.1288 19.3432 30.8753 19.6189 31.7098 19.6421C32.2527 19.6573 32.3683 19.2851 32.0275 18.923C31.5962 18.4661 31.3813 18.0846 31.223 17.494Z" fill="#E90101"/>
<path d="M16.3076 13.3315L16.8613 14.215C17.119 14.6256 17.6083 14.6994 18.0174 14.4473C18.4271 14.1952 18.5948 13.7155 18.3351 13.3067C17.8925 12.6086 17.3472 11.7715 17.1913 11.6256C16.9169 11.3685 11.3067 8.72348 11.0072 9.02361C10.782 9.24912 13.6299 11.1523 15.056 12.0817C15.4883 12.3637 16.0504 12.9214 16.3076 13.3315Z" fill="#E90101"/>
<path d="M32.9929 9.02361C32.6934 8.72348 27.0838 11.3685 26.8093 11.6256C26.6584 11.766 26.1445 12.5526 25.7117 13.2346C25.4516 13.6434 25.6232 14.1046 26.0515 14.3255C26.4799 14.5463 26.9947 14.4448 27.2519 14.0346L27.6926 13.3315C27.9493 12.9214 28.5119 12.3637 28.9441 12.0817C30.3703 11.1519 33.2176 9.2487 32.9929 9.02361Z" fill="#E90101"/>
</g>
<defs>
<clipPath id="clip0_27834_7">
<rect width="28" height="24" fill="white" transform="translate(8.00006 9)"/>
</clipPath>
</defs>
</svg>
