<svg width="45" height="43" viewBox="0 0 45 43" fill="none" xmlns="http://www.w3.org/2000/svg">
<path d="M42.2857 21.039C42.2857 31.4587 33.3651 40.0779 22.1429 40.0779C10.9207 40.0779 2 31.4587 2 21.039C2 10.6192 10.9207 2 22.1429 2C33.3651 2 42.2857 10.6192 42.2857 21.039Z" fill="white" stroke="#E90101" stroke-width="4"/>
<g clip-path="url(#clip0_27844_6)">
<path d="M30 34H12.6667C11.8667 34 11.3333 33.55 11.3333 32.875V13.75C11.3333 13.075 11.8667 12.625 12.6667 12.625H30C30.8 12.625 31.3333 13.075 31.3333 13.75V32.875C31.3333 33.55 30.8 34 30 34ZM14 31.75H28.6667V14.875H14V31.75Z" fill="#E90101"/>
<path d="M14 14.875C11.7333 14.875 10 13.4125 10 11.5C10 9.5875 11.7333 8.125 14 8.125C15.0667 8.125 16 8.4625 16.8 9.025C17.3333 9.475 17.3333 10.15 16.8 10.6C16.2667 11.05 15.4667 11.05 14.9333 10.6C14.6667 10.4875 14.4 10.375 14 10.375C13.2 10.375 12.6667 10.825 12.6667 11.5C12.6667 12.175 13.2 12.625 14 12.625C14.8 12.625 15.3333 13.075 15.3333 13.75C15.3333 14.425 14.8 14.875 14 14.875Z" fill="#E90101"/>
<path d="M28.6667 14.875C27.8667 14.875 27.3333 14.425 27.3333 13.75C27.3333 13.075 27.8667 12.625 28.6667 12.625C29.4667 12.625 30 12.175 30 11.5C30 10.825 29.4667 10.375 28.6667 10.375C28.2667 10.375 27.8667 10.4875 27.7333 10.7125C27.2 11.1625 26.4 11.275 25.8667 10.825C25.3333 10.375 25.2 9.7 25.7333 9.25C26.5333 8.4625 27.6 8.125 28.8 8.125C31.0667 8.125 32.8 9.5875 32.8 11.5C32.8 13.4125 30.9333 14.875 28.6667 14.875Z" fill="#E90101"/>
<path d="M26.6667 11.1625C26.2667 11.1625 25.8667 11.05 25.6 10.7125C25.0667 10.2625 24.2667 10.2625 23.7333 10.6C23.2 11.05 22.4 11.05 21.8667 10.6C21.3333 10.15 21.3333 9.47499 21.8667 9.02499C23.4667 7.78749 26.2667 7.89999 27.6 9.24999C28.1333 9.69999 28 10.4875 27.4667 10.825C27.3333 11.05 26.9333 11.1625 26.6667 11.1625Z" fill="#E90101"/>
<path d="M22.8 10.9375C22.2667 10.9375 21.8667 10.7125 21.6 10.375C21.2 9.7 20.2667 9.25 19.2 9.25C18.1333 9.25 17.4667 9.7 16.9333 10.375C16.6667 10.9375 15.8667 11.1625 15.2 10.825C14.5333 10.4875 14.2667 9.925 14.6667 9.3625C15.6 7.9 17.3333 7 19.3333 7C21.3333 7 23.0667 7.9 24 9.3625C24.4 9.925 24.1333 10.6 23.4667 10.9375C23.3333 10.9375 23.0667 10.9375 22.8 10.9375Z" fill="#E90101"/>
<path d="M35.3333 20.5C34.5333 20.5 34 20.05 34 19.375C34 18.1375 32.8 17.125 31.3333 17.125C30.5333 17.125 30 16.675 30 16C30 15.325 30.5333 14.875 31.3333 14.875C34.2667 14.875 36.6667 16.9 36.6667 19.375C36.6667 20.05 36.1333 20.5 35.3333 20.5Z" fill="#E90101"/>
<path d="M31.3333 17.125H30C29.2 17.125 28.6667 16.675 28.6667 16C28.6667 15.325 29.2 14.875 30 14.875H31.3333C32.1333 14.875 32.6667 15.325 32.6667 16C32.6667 16.675 32.1333 17.125 31.3333 17.125Z" fill="#E90101"/>
<path d="M35.3333 23.875C34.5333 23.875 34 23.425 34 22.75V19.375C34 18.7 34.5333 18.25 35.3333 18.25C36.1333 18.25 36.6667 18.7 36.6667 19.375V22.75C36.6667 23.425 36.1333 23.875 35.3333 23.875Z" fill="#E90101"/>
<path d="M31.3333 27.25C30.5333 27.25 30 26.8 30 26.125C30 25.45 30.5333 25 31.3333 25C32.8 25 34 23.9875 34 22.75C34 22.075 34.5333 21.625 35.3333 21.625C36.1333 21.625 36.6667 22.075 36.6667 22.75C36.6667 25.225 34.2667 27.25 31.3333 27.25Z" fill="#E90101"/>
<path d="M31.3333 27.25H30C29.2 27.25 28.6667 26.8 28.6667 26.125C28.6667 25.45 29.2 25 30 25H31.3333C32.1333 25 32.6667 25.45 32.6667 26.125C32.6667 26.8 32.1333 27.25 31.3333 27.25Z" fill="#E90101"/>
<path d="M35.3333 23.875C34.5333 23.875 34 23.425 34 22.75V19.375C34 18.7 34.5333 18.25 35.3333 18.25C36.1333 18.25 36.6667 18.7 36.6667 19.375V22.75C36.6667 23.425 36.1333 23.875 35.3333 23.875Z" fill="#E90101"/>
<path d="M18 29.5C17.2 29.5 16.6667 29.05 16.6667 28.375V18.25C16.6667 17.575 17.2 17.125 18 17.125C18.8 17.125 19.3333 17.575 19.3333 18.25V28.375C19.3333 29.05 18.8 29.5 18 29.5Z" fill="#E90101"/>
<path d="M24.6667 29.5C23.8667 29.5 23.3333 29.05 23.3333 28.375V18.25C23.3333 17.575 23.8667 17.125 24.6667 17.125C25.4667 17.125 26 17.575 26 18.25V28.375C26 29.05 25.4667 29.5 24.6667 29.5Z" fill="#E90101"/>
</g>
<defs>
<clipPath id="clip0_27844_6">
<rect width="32" height="27" fill="white" transform="translate(6 7)"/>
</clipPath>
</defs>
</svg>
