<svg width="43" height="43" viewBox="0 0 43 43" fill="none" xmlns="http://www.w3.org/2000/svg">
<path d="M40.3929 21.039C40.3929 31.5792 31.9691 40.0779 21.634 40.0779C11.2989 40.0779 2.87506 31.5792 2.87506 21.039C2.87506 10.4987 11.2989 2 21.634 2C31.9691 2 40.3929 10.4987 40.3929 21.039Z" fill="white" stroke="#E90101" stroke-width="4"/>
<g clip-path="url(#clip0_27844_5)">
<path d="M32 18.1251H30.6607C30.4864 17.0277 30.0607 16.0034 29.4377 15.1007L30.5925 11.9827L32.8839 9.92049C33.372 9.48116 33.372 8.76883 32.8839 8.3295C32.3958 7.89017 31.6043 7.89017 31.1161 8.3295L28.6161 10.5795C28.4789 10.703 28.3755 10.8536 28.3141 11.0193L27.5269 13.1449C26.0201 12.0387 24.0964 11.375 22 11.375C17.5916 11.375 13.9457 14.3086 13.3393 18.1251H12C11.3096 18.1251 10.75 18.6288 10.75 19.2501V22.6251C10.75 23.2464 11.3096 23.7501 12 23.7501H13.4753L15.7742 34.0956C15.8911 34.6215 16.4041 35 17 35H27C27.5958 35 28.1089 34.6215 28.2257 34.0956L30.5247 23.7501H32C32.6903 23.7501 33.2499 23.2464 33.2499 22.6251V19.2501C33.25 18.6288 32.6904 18.1251 32 18.1251ZM22 13.625C25.0241 13.625 27.546 15.5573 28.125 18.125H15.875C16.454 15.5573 18.9759 13.625 22 13.625ZM13.25 20.3751H30.75V21.5001H29.5045C29.503 21.5001 29.5015 21.5 29.5001 21.5H14.5C14.4985 21.5 14.4971 21.5001 14.4956 21.5001H13.25V20.3751ZM25.9752 32.75H18.0248L16.0248 23.7501H27.9752L25.9752 32.75Z" fill="#E90101"/>
</g>
<defs>
<clipPath id="clip0_27844_5">
<rect width="30" height="27" fill="white" transform="translate(7 8)"/>
</clipPath>
</defs>
</svg>
