<svg width="43" height="58" viewBox="0 0 43 58" fill="none" xmlns="http://www.w3.org/2000/svg">
<path d="M9.41824 56.02L10.2882 55.78V51.45L9.44824 51.52L8.70824 52.41L7.97824 52.35C7.97824 51.7967 8.00491 51.1 8.05824 50.26H14.3182C14.3716 51.1 14.3982 51.7967 14.3982 52.35L13.6782 52.41L12.9282 51.52L12.1082 51.45V55.38C12.1082 55.54 12.1182 55.6433 12.1382 55.69C12.1582 55.7367 12.2149 55.7833 12.3082 55.83L12.9282 56.2L12.8882 57H9.46824L9.41824 56.02ZM16.8819 57.13C16.0352 57.13 15.4019 56.9133 14.9819 56.48C14.5686 56.0467 14.3619 55.3833 14.3619 54.49C14.3619 53.9167 14.4652 53.4167 14.6719 52.99C14.8852 52.5633 15.1886 52.2367 15.5819 52.01C15.9752 51.7833 16.4386 51.67 16.9719 51.67C18.6986 51.67 19.5619 52.5633 19.5619 54.35C19.5619 55.2233 19.3252 55.9067 18.8519 56.4C18.3852 56.8867 17.7286 57.13 16.8819 57.13ZM17.0419 55.96C17.1752 55.96 17.2919 55.95 17.3919 55.93C17.4919 55.9033 17.5986 55.8633 17.7119 55.81C17.7519 55.6567 17.7852 55.46 17.8119 55.22C17.8386 54.98 17.8519 54.75 17.8519 54.53C17.8519 53.99 17.7652 53.58 17.5919 53.3C17.4252 53.02 17.1752 52.88 16.8419 52.88C16.6219 52.88 16.3986 52.91 16.1719 52.97C16.1252 53.07 16.0886 53.2333 16.0619 53.46C16.0352 53.68 16.0219 53.9333 16.0219 54.22C16.0219 54.78 16.1086 55.21 16.2819 55.51C16.4619 55.81 16.7152 55.96 17.0419 55.96ZM22.3004 57.13C21.6604 57.13 21.1604 56.89 20.8004 56.41C20.4404 55.93 20.2604 55.2867 20.2604 54.48C20.2604 53.5533 20.5037 52.8533 20.9904 52.38C21.4837 51.9067 22.1837 51.67 23.0904 51.67C23.1437 51.67 23.317 51.6767 23.6104 51.69V51.09C23.6104 50.9433 23.6004 50.8467 23.5804 50.8C23.5604 50.7533 23.5037 50.7033 23.4104 50.65L22.9604 50.42L23.0104 49.66C23.6504 49.5467 24.1237 49.47 24.4304 49.43C24.737 49.3833 24.9804 49.3567 25.1604 49.35C25.2204 49.5033 25.2637 49.6767 25.2904 49.87V55.56C25.2904 55.68 25.3004 55.7633 25.3204 55.81C25.347 55.8567 25.4037 55.9033 25.4904 55.95L25.8704 56.18L25.8304 56.8C25.177 56.9667 24.537 57.0667 23.9104 57.1C23.8637 56.9733 23.817 56.82 23.7704 56.64C23.317 56.9667 22.827 57.13 22.3004 57.13ZM22.8804 55.85C23.1004 55.85 23.347 55.7767 23.6204 55.63V53.04C23.4204 52.9533 23.1637 52.91 22.8504 52.91C22.597 52.91 22.3537 52.9433 22.1204 53.01C22.067 53.1367 22.0237 53.31 21.9904 53.53C21.9637 53.75 21.9504 53.9933 21.9504 54.26C21.9504 54.8067 22.0237 55.21 22.1704 55.47C22.3237 55.7233 22.5604 55.85 22.8804 55.85ZM28.7179 57.13C27.8712 57.13 27.2379 56.9133 26.8179 56.48C26.4045 56.0467 26.1979 55.3833 26.1979 54.49C26.1979 53.9167 26.3012 53.4167 26.5079 52.99C26.7212 52.5633 27.0245 52.2367 27.4179 52.01C27.8112 51.7833 28.2745 51.67 28.8079 51.67C30.5345 51.67 31.3979 52.5633 31.3979 54.35C31.3979 55.2233 31.1612 55.9067 30.6879 56.4C30.2212 56.8867 29.5645 57.13 28.7179 57.13ZM28.8779 55.96C29.0112 55.96 29.1279 55.95 29.2279 55.93C29.3279 55.9033 29.4345 55.8633 29.5479 55.81C29.5879 55.6567 29.6212 55.46 29.6479 55.22C29.6745 54.98 29.6879 54.75 29.6879 54.53C29.6879 53.99 29.6012 53.58 29.4279 53.3C29.2612 53.02 29.0112 52.88 28.6779 52.88C28.4579 52.88 28.2345 52.91 28.0079 52.97C27.9612 53.07 27.9245 53.2333 27.8979 53.46C27.8712 53.68 27.8579 53.9333 27.8579 54.22C27.8579 54.78 27.9445 55.21 28.1179 55.51C28.2979 55.81 28.5512 55.96 28.8779 55.96ZM33.8024 57.17C33.2757 57.17 32.6657 57.0767 31.9724 56.89C32.0124 56.2367 32.0557 55.7533 32.1024 55.44L32.6724 55.33L33.3024 56C33.5224 56.0667 33.769 56.1 34.0424 56.1C34.1957 56.1 34.3157 56.09 34.4024 56.07C34.4224 56.0167 34.4324 55.9433 34.4324 55.85C34.4324 55.77 34.4124 55.7033 34.3724 55.65C34.339 55.5967 34.259 55.5333 34.1324 55.46C34.0057 55.3867 33.7857 55.2733 33.4724 55.12C33.079 54.9133 32.779 54.73 32.5724 54.57C32.3657 54.4033 32.2157 54.2333 32.1224 54.06C32.0357 53.8867 31.9924 53.68 31.9924 53.44C31.9924 52.9067 32.189 52.4833 32.5824 52.17C32.9824 51.8567 33.5224 51.7 34.2024 51.7C34.4824 51.7 34.7757 51.7333 35.0824 51.8C35.3957 51.86 35.6757 51.9433 35.9224 52.05C35.9224 52.4833 35.8924 52.9667 35.8324 53.5L35.3124 53.58L34.6424 52.86C34.469 52.8067 34.2157 52.78 33.8824 52.78C33.829 52.78 33.7224 52.7867 33.5624 52.8C33.5424 52.84 33.5324 52.9033 33.5324 52.99C33.5324 53.0833 33.559 53.1667 33.6124 53.24C33.6657 53.3067 33.759 53.3833 33.8924 53.47C34.0324 53.55 34.2524 53.6667 34.5524 53.82C34.9924 54.0333 35.3224 54.22 35.5424 54.38C35.769 54.5333 35.9257 54.69 36.0124 54.85C36.1057 55.01 36.1524 55.2033 36.1524 55.43C36.1524 55.9767 35.9424 56.4033 35.5224 56.71C35.109 57.0167 34.5357 57.17 33.8024 57.17Z" fill="#E70001"/>
<path d="M21.6339 2C31.969 2 40.3927 10.4988 40.3927 21.0391C40.3926 31.5793 31.9689 40.0781 21.6339 40.0781C11.2989 40.078 2.87515 31.5792 2.87509 21.0391C2.87509 10.4988 11.2989 2.00008 21.6339 2Z" fill="white" stroke="#E90101" stroke-width="4"/>
<path d="M14.4252 21.9615C14.4694 21.9669 14.5136 21.9695 14.557 21.9695C14.8782 21.9695 15.1648 21.8268 15.2286 21.621C15.4127 21.0267 15.8026 20.4774 16.3874 19.9884L17.1029 19.39C17.217 19.2946 17.263 19.1737 17.23 19.0561L16.5712 16.7099C16.5053 16.4756 16.1502 16.319 15.7775 16.3606C15.405 16.402 15.1564 16.6255 15.2221 16.8598L15.8292 19.0216L15.2926 19.4705C14.5821 20.0646 14.1081 20.7327 13.8841 21.4562C13.8116 21.6897 14.054 21.916 14.4252 21.9615Z" fill="#E90101"/>
<path d="M21.5001 27.2813C21.8783 27.2813 22.185 27.0884 22.185 26.8504C22.185 26.6124 21.8783 26.4196 21.5001 26.4196C18.4794 26.4196 15.8468 25.0695 15.2401 23.2095C15.164 22.9764 14.8019 22.8263 14.4314 22.874C14.0608 22.9218 13.8221 23.1495 13.898 23.3827C14.6349 25.6417 17.832 27.2813 21.5001 27.2813Z" fill="#E90101"/>
<path d="M30.3694 34.1383H29.1332C27.2871 32.9996 24.7995 32.311 22.185 32.208V28.9903C27.6566 28.7675 31.9999 25.8972 31.9999 22.4003C31.9999 21.0203 31.3352 19.7063 30.0745 18.5878L31.9895 11.7704C32.0248 11.6449 31.97 11.5161 31.8398 11.4185C31.7096 11.321 31.5174 11.2646 31.315 11.2646H22.185V9.86702C22.185 9.31272 22.902 8.8617 23.7833 8.8617H30.644C31.0223 8.8617 31.329 8.66885 31.329 8.43085C31.329 8.19285 31.0223 8 30.644 8H23.7833C22.1466 8 20.815 8.83752 20.815 9.86702V11.2646H11.685C11.4825 11.2646 11.2904 11.3209 11.1602 11.4185C11.0301 11.5161 10.9753 11.6449 11.0104 11.7704L12.9255 18.5878C11.6647 19.7064 11 21.0204 11 22.4003C11 25.8972 15.3434 28.7675 20.8151 28.9903V32.208C18.2005 32.311 15.7129 32.9996 13.8668 34.1383H12.6306C12.2524 34.1383 11.9457 34.3311 11.9457 34.5691C11.9457 34.8071 12.2524 35 12.6306 35H30.3695C30.7478 35 31.0545 34.8071 31.0545 34.5691C31.0545 34.3311 30.7477 34.1383 30.3694 34.1383ZM21.5 33.0557C23.4812 33.0557 25.4074 33.442 26.9933 34.1383H16.0066C17.5925 33.442 19.5188 33.0557 21.5 33.0557ZM14.1982 18.9525C14.3122 18.857 14.3583 18.7361 14.3253 18.6185L13.3261 15.0614L12.5017 12.1262H20.815V14.6307H15.3705C14.9923 14.6307 14.6856 14.8235 14.6855 15.0614C14.6855 15.2995 14.9922 15.4924 15.3705 15.4924H29.5528L28.6746 18.6185C28.6417 18.7361 28.6877 18.857 28.8018 18.9525C29.9979 19.9528 30.6301 21.1451 30.6301 22.4003C30.6301 25.5668 26.5344 28.143 21.5001 28.143C16.4658 28.143 12.37 25.5668 12.37 22.4003C12.3699 21.1452 13.0021 19.953 14.1982 18.9525ZM29.7948 14.6307H22.185V12.1263H30.4984L29.7948 14.6307Z" fill="#E90101"/>
</svg>
