<svg width="45" height="59" viewBox="0 0 45 59" fill="none" xmlns="http://www.w3.org/2000/svg">
<path d="M9.21965 58.04C8.49965 58.04 7.77965 58.0133 7.05965 57.96L7.00965 56.98L7.73965 56.78V52.97C7.73965 52.7967 7.72632 52.6833 7.69965 52.63C7.67298 52.57 7.60298 52.5167 7.48965 52.47L6.96965 52.18L7.02965 51.35C8.10965 51.21 9.03632 51.14 9.80965 51.14C10.7563 51.14 11.4496 51.28 11.8896 51.56C12.3296 51.84 12.5496 52.2833 12.5496 52.89C12.5496 53.19 12.503 53.4567 12.4096 53.69C12.3163 53.9167 12.173 54.1233 11.9796 54.31C12.6463 54.61 12.9796 55.0967 12.9796 55.77C12.9796 56.37 12.813 56.8533 12.4796 57.22C12.1463 57.5867 11.6563 57.8267 11.0096 57.94C10.7696 58.0067 10.173 58.04 9.21965 58.04ZM10.6896 53.99C10.7563 53.8167 10.7896 53.5267 10.7896 53.12C10.7896 52.84 10.723 52.6333 10.5896 52.5C10.463 52.3667 10.2663 52.2933 9.99965 52.28C9.82632 52.28 9.65298 52.2867 9.47965 52.3V53.97C9.59298 53.9633 9.73965 53.96 9.91965 53.96C10.193 53.96 10.4496 53.97 10.6896 53.99ZM10.2696 56.8C10.6496 56.8 10.9196 56.7667 11.0796 56.7C11.1463 56.4333 11.1796 56.1967 11.1796 55.99C11.1796 55.6567 11.093 55.42 10.9196 55.28C10.7463 55.14 10.453 55.07 10.0396 55.07C9.95298 55.07 9.84298 55.0767 9.70965 55.09L9.47965 55.1V56.73C9.71298 56.7767 9.97632 56.8 10.2696 56.8ZM16.2139 58.13C15.3673 58.13 14.7339 57.9133 14.3139 57.48C13.9006 57.0467 13.6939 56.3833 13.6939 55.49C13.6939 54.9167 13.7973 54.4167 14.0039 53.99C14.2173 53.5633 14.5206 53.2367 14.9139 53.01C15.3073 52.7833 15.7706 52.67 16.3039 52.67C18.0306 52.67 18.8939 53.5633 18.8939 55.35C18.8939 56.2233 18.6573 56.9067 18.1839 57.4C17.7173 57.8867 17.0606 58.13 16.2139 58.13ZM16.3739 56.96C16.5073 56.96 16.6239 56.95 16.7239 56.93C16.8239 56.9033 16.9306 56.8633 17.0439 56.81C17.0839 56.6567 17.1173 56.46 17.1439 56.22C17.1706 55.98 17.1839 55.75 17.1839 55.53C17.1839 54.99 17.0973 54.58 16.9239 54.3C16.7573 54.02 16.5073 53.88 16.1739 53.88C15.9539 53.88 15.7306 53.91 15.5039 53.97C15.4573 54.07 15.4206 54.2333 15.3939 54.46C15.3673 54.68 15.3539 54.9333 15.3539 55.22C15.3539 55.78 15.4406 56.21 15.6139 56.51C15.7939 56.81 16.0473 56.96 16.3739 56.96ZM19.5629 54.14C19.4895 53.96 19.4395 53.8433 19.4129 53.79C19.3862 53.7367 19.3362 53.6633 19.2629 53.57L19.0929 53.35L19.1429 52.77H21.6629L21.7629 53.62L21.1829 53.76L22.0929 56.34L22.9729 53.97C22.9862 53.93 22.9929 53.9 22.9929 53.88C22.9929 53.82 22.9629 53.78 22.9029 53.76L22.4329 53.56L22.5229 52.77H24.4229L24.5229 53.58L22.5429 58.02L21.1029 58.13L19.5629 54.14ZM25.4249 50.6L27.1249 50.15L27.5349 51.67L25.8449 52.13L25.4249 50.6ZM25.0049 57.08L25.7049 56.87V54.44C25.7049 54.2933 25.6915 54.2 25.6649 54.16C25.6449 54.1133 25.5882 54.0633 25.4949 54.01L25.0549 53.77L25.1049 53.02C25.6582 52.9133 26.0849 52.8367 26.3849 52.79C26.6915 52.7367 26.9715 52.7067 27.2249 52.7C27.3115 52.9867 27.3649 53.2 27.3849 53.34V56.54C27.3849 56.68 27.3949 56.7733 27.4149 56.82C27.4349 56.8667 27.4915 56.9167 27.5849 56.97L28.0749 57.25L28.0349 58H25.0349L25.0049 57.08ZM28.4817 57.04L29.1017 56.86V54.44C29.1017 54.2933 29.0917 54.2 29.0717 54.16C29.0517 54.1133 28.9983 54.0633 28.9117 54.01L28.4717 53.77L28.5017 53.02L28.7217 52.98C29.595 52.8067 30.225 52.7133 30.6117 52.7C30.665 52.84 30.7083 52.9933 30.7417 53.16C31.1483 52.9733 31.4783 52.8467 31.7317 52.78C31.9917 52.7067 32.235 52.67 32.4617 52.67C33.5217 52.67 34.0517 53.3033 34.0517 54.57V56.53C34.0517 56.67 34.0617 56.7633 34.0817 56.81C34.1017 56.8567 34.1583 56.9067 34.2517 56.96L34.7317 57.24L34.6917 57.99H31.9317L31.8817 57.04L32.3717 56.9V55.01C32.3717 54.71 32.3617 54.5 32.3417 54.38C32.3217 54.26 32.265 54.1667 32.1717 54.1C32.085 54.0333 31.9283 54 31.7017 54C31.4617 54 31.1583 54.0367 30.7917 54.11V56.53C30.7917 56.67 30.8017 56.7633 30.8217 56.81C30.8417 56.8567 30.895 56.9067 30.9817 56.96L31.4717 57.24L31.4317 57.99H28.5317L28.4817 57.04ZM36.5232 58.13C36.0699 58.13 35.7066 58.0067 35.4332 57.76C35.1599 57.5067 35.0232 57.1833 35.0232 56.79C35.0232 56.2633 35.2866 55.85 35.8132 55.55C36.3466 55.25 37.1199 55.08 38.1332 55.04C38.1332 54.7267 38.1066 54.4967 38.0532 54.35C38.0066 54.1967 37.9166 54.0933 37.7832 54.04C37.6566 53.98 37.4599 53.95 37.1932 53.95C36.9199 53.95 36.7266 53.96 36.6132 53.98L36.2032 54.79L35.4632 54.74C35.3499 54.2067 35.2699 53.6533 35.2232 53.08C35.5966 52.9533 36.0032 52.8533 36.4432 52.78C36.8899 52.7067 37.3066 52.67 37.6932 52.67C38.3999 52.67 38.9066 52.81 39.2132 53.09C39.5199 53.3633 39.6732 53.82 39.6732 54.46V56.55C39.6732 56.67 39.6832 56.7533 39.7032 56.8C39.7299 56.8467 39.7832 56.8933 39.8632 56.94L40.2632 57.17L40.2232 57.79C39.4499 57.97 38.8399 58.07 38.3932 58.09C38.3799 58.05 38.3599 57.98 38.3332 57.88C38.3066 57.7733 38.2832 57.6733 38.2632 57.58C38.0032 57.7467 37.7166 57.88 37.4032 57.98C37.0966 58.08 36.8032 58.13 36.5232 58.13ZM37.1932 57C37.4599 57 37.7832 56.91 38.1632 56.73L38.1232 55.97C37.9632 55.9567 37.8566 55.95 37.8032 55.95C37.6232 55.95 37.4132 55.97 37.1732 56.01C36.9332 56.0433 36.7432 56.0833 36.6032 56.13C36.5832 56.2167 36.5732 56.2967 36.5732 56.37C36.5732 56.57 36.6266 56.7267 36.7332 56.84C36.8466 56.9467 36.9999 57 37.1932 57Z" fill="#E70001"/>
<path d="M22.5 2C33.9504 2 43 10.6485 43 21.0391C42.9999 31.4296 33.9504 40.0781 22.5 40.0781C11.0496 40.0781 2.00006 31.4296 2 21.0391C2 10.6485 11.0496 2 22.5 2Z" fill="white" stroke="#E90101" stroke-width="4"/>
<path d="M37.7709 11.5572C37.7709 11.2275 37.6285 10.9114 37.3751 10.6783C37.1217 10.4452 36.778 10.3143 36.4196 10.3143H29.663V9.07144C29.663 8.74181 29.5206 8.42569 29.2672 8.19261C29.0138 7.95953 28.6701 7.82858 28.3117 7.82858C27.9533 7.82858 27.6096 7.95953 27.3561 8.19261C27.1027 8.42569 26.9603 8.74181 26.9603 9.07144V9.80348C24.3619 8.82748 21.4509 8.82748 18.8524 9.80348V9.07144C18.8524 8.74181 18.7101 8.42569 18.4566 8.19261C18.2032 7.95953 17.8595 7.82858 17.5011 7.82858C17.1427 7.82858 16.799 7.95953 16.5456 8.19261C16.2922 8.42569 16.1498 8.74181 16.1498 9.07144V10.3143H9.39319C9.0348 10.3143 8.69108 10.4452 8.43766 10.6783C8.18424 10.9114 8.04187 11.2275 8.04187 11.5572C8.12648 12.7339 8.57737 13.8635 9.34074 14.8111C10.1041 15.7587 11.1478 16.4843 12.3472 16.9014C12.1816 17.5955 12.0974 18.3038 12.0958 19.0143V22.5577C9.57697 23.8875 8.04187 25.6934 8.04187 27.7143C8.04187 31.8953 14.5714 35.1714 22.9064 35.1714C31.2413 35.1714 37.7709 31.8953 37.7709 27.7143C37.7709 25.6934 36.2358 23.8875 33.7169 22.5577V19.0143C33.7154 18.3038 33.6311 17.5955 33.4656 16.9014C34.665 16.4843 35.7087 15.7587 36.472 14.8111C37.2354 13.8635 37.6863 12.7339 37.7709 11.5572ZM13.2526 14.5574C12.3574 14.2019 11.6152 13.584 11.1418 12.8H14.4809C14.0184 13.3324 13.6159 13.9067 13.2796 14.5139C13.2715 14.5288 13.2607 14.54 13.2526 14.5574ZM35.0683 27.7143C35.0683 30.0658 30.0684 32.6857 22.9064 32.6857C15.7444 32.6857 10.7445 30.0658 10.7445 27.7143C10.7445 26.5597 11.9526 25.3429 14.0255 24.4008H14.0417C16.8287 23.257 19.8551 22.691 22.9064 22.7429C25.9573 22.6894 28.9837 23.2538 31.771 24.3959H31.7819C33.8521 25.3404 35.0683 26.5584 35.0683 27.7143ZM22.9064 20.2572C20.1534 20.2468 17.4164 20.6408 14.7985 21.4242V19.0143C14.7985 17.0365 15.6527 15.1398 17.1732 13.7413C18.6938 12.3428 20.756 11.5572 22.9064 11.5572C25.0567 11.5572 27.119 12.3428 28.6396 13.7413C30.1601 15.1398 31.0143 17.0365 31.0143 19.0143V21.4242C28.397 20.6387 25.6595 20.2447 22.9064 20.2572ZM32.5602 14.5574C32.5521 14.5437 32.544 14.5326 32.5372 14.5201C32.1994 13.9109 31.7956 13.3346 31.3319 12.8H34.6696C34.1972 13.5843 33.4553 14.2023 32.5602 14.5574ZM20.2037 27.7143C20.2037 28.2059 20.0452 28.6865 19.7483 29.0953C19.4513 29.5041 19.0292 29.8227 18.5354 30.0108C18.0415 30.1989 17.4981 30.2482 16.9739 30.1522C16.4496 30.0563 15.968 29.8196 15.5901 29.472C15.2121 29.1243 14.9547 28.6814 14.8504 28.1992C14.7461 27.7171 14.7996 27.2173 15.0042 26.7631C15.2088 26.3088 15.5552 25.9206 15.9996 25.6475C16.4441 25.3744 16.9666 25.2286 17.5011 25.2286C18.2179 25.2286 18.9053 25.4905 19.4122 25.9566C19.919 26.4228 20.2037 27.055 20.2037 27.7143ZM31.0143 27.7143C31.0143 28.2059 30.8558 28.6865 30.5588 29.0953C30.2619 29.5041 29.8398 29.8227 29.3459 30.0108C28.8521 30.1989 28.3087 30.2482 27.7844 30.1522C27.2601 30.0563 26.7786 29.8196 26.4006 29.472C26.0226 29.1243 25.7652 28.6814 25.661 28.1992C25.5567 27.7171 25.6102 27.2173 25.8148 26.7631C26.0193 26.3088 26.3657 25.9206 26.8102 25.6475C27.2546 25.3744 27.7771 25.2286 28.3117 25.2286C29.0285 25.2286 29.7159 25.4905 30.2227 25.9566C30.7296 26.4228 31.0143 27.055 31.0143 27.7143Z" fill="#E90101"/>
</svg>
