<svg width="45" height="43" viewBox="0 0 45 43" fill="none" xmlns="http://www.w3.org/2000/svg">
<path d="M22.5 2C33.9504 2 43 10.6485 43 21.0391C42.9999 31.4296 33.9504 40.0781 22.5 40.0781C11.0496 40.0781 2.00006 31.4296 2 21.0391C2 10.6485 11.0496 2 22.5 2Z" fill="white" stroke="#E90101" stroke-width="4"/>
<path d="M37.7709 11.5572C37.7709 11.2275 37.6285 10.9114 37.3751 10.6783C37.1217 10.4452 36.778 10.3143 36.4196 10.3143H29.663V9.07144C29.663 8.74181 29.5206 8.42569 29.2672 8.19261C29.0138 7.95953 28.6701 7.82858 28.3117 7.82858C27.9533 7.82858 27.6096 7.95953 27.3561 8.19261C27.1027 8.42569 26.9603 8.74181 26.9603 9.07144V9.80348C24.3619 8.82748 21.4509 8.82748 18.8524 9.80348V9.07144C18.8524 8.74181 18.7101 8.42569 18.4566 8.19261C18.2032 7.95953 17.8595 7.82858 17.5011 7.82858C17.1427 7.82858 16.799 7.95953 16.5456 8.19261C16.2922 8.42569 16.1498 8.74181 16.1498 9.07144V10.3143H9.39319C9.0348 10.3143 8.69108 10.4452 8.43766 10.6783C8.18424 10.9114 8.04187 11.2275 8.04187 11.5572C8.12648 12.7339 8.57737 13.8635 9.34074 14.8111C10.1041 15.7587 11.1478 16.4843 12.3472 16.9014C12.1816 17.5955 12.0974 18.3038 12.0958 19.0143V22.5577C9.57697 23.8875 8.04187 25.6934 8.04187 27.7143C8.04187 31.8953 14.5714 35.1714 22.9064 35.1714C31.2413 35.1714 37.7709 31.8953 37.7709 27.7143C37.7709 25.6934 36.2358 23.8875 33.7169 22.5577V19.0143C33.7154 18.3038 33.6311 17.5955 33.4656 16.9014C34.665 16.4843 35.7087 15.7587 36.472 14.8111C37.2354 13.8635 37.6863 12.7339 37.7709 11.5572ZM13.2526 14.5574C12.3574 14.2019 11.6152 13.584 11.1418 12.8H14.4809C14.0184 13.3324 13.6159 13.9067 13.2796 14.5139C13.2715 14.5288 13.2607 14.54 13.2526 14.5574ZM35.0683 27.7143C35.0683 30.0658 30.0684 32.6857 22.9064 32.6857C15.7444 32.6857 10.7445 30.0658 10.7445 27.7143C10.7445 26.5597 11.9526 25.3429 14.0255 24.4008H14.0417C16.8287 23.257 19.8551 22.691 22.9064 22.7429C25.9573 22.6894 28.9837 23.2538 31.771 24.3959H31.7819C33.8521 25.3404 35.0683 26.5584 35.0683 27.7143ZM22.9064 20.2572C20.1534 20.2468 17.4164 20.6408 14.7985 21.4242V19.0143C14.7985 17.0365 15.6527 15.1398 17.1732 13.7413C18.6938 12.3428 20.756 11.5572 22.9064 11.5572C25.0567 11.5572 27.119 12.3428 28.6396 13.7413C30.1601 15.1398 31.0143 17.0365 31.0143 19.0143V21.4242C28.397 20.6387 25.6595 20.2447 22.9064 20.2572ZM32.5602 14.5574C32.5521 14.5437 32.544 14.5326 32.5372 14.5201C32.1994 13.9109 31.7956 13.3346 31.3319 12.8H34.6696C34.1972 13.5843 33.4553 14.2023 32.5602 14.5574ZM20.2037 27.7143C20.2037 28.2059 20.0452 28.6865 19.7483 29.0953C19.4513 29.5041 19.0292 29.8227 18.5354 30.0108C18.0415 30.1989 17.4981 30.2482 16.9739 30.1522C16.4496 30.0563 15.968 29.8196 15.5901 29.472C15.2121 29.1243 14.9547 28.6814 14.8504 28.1992C14.7461 27.7171 14.7996 27.2173 15.0042 26.7631C15.2088 26.3088 15.5552 25.9206 15.9996 25.6475C16.4441 25.3744 16.9666 25.2286 17.5011 25.2286C18.2179 25.2286 18.9053 25.4905 19.4122 25.9566C19.919 26.4228 20.2037 27.055 20.2037 27.7143ZM31.0143 27.7143C31.0143 28.2059 30.8558 28.6865 30.5588 29.0953C30.2619 29.5041 29.8398 29.8227 29.3459 30.0108C28.8521 30.1989 28.3087 30.2482 27.7844 30.1522C27.2601 30.0563 26.7786 29.8196 26.4006 29.472C26.0226 29.1243 25.7652 28.6814 25.661 28.1992C25.5567 27.7171 25.6102 27.2173 25.8148 26.7631C26.0193 26.3088 26.3657 25.9206 26.8102 25.6475C27.2546 25.3744 27.7771 25.2286 28.3117 25.2286C29.0285 25.2286 29.7159 25.4905 30.2227 25.9566C30.7296 26.4228 31.0143 27.055 31.0143 27.7143Z" fill="#E90101"/>
</svg>
