<svg width="23" height="22" viewBox="0 0 23 22" fill="none" xmlns="http://www.w3.org/2000/svg">
<path d="M2.04143 12.4787L10.6916 21.4837C10.9895 21.7938 11.1384 21.9489 11.3141 21.9871C11.3933 22.0043 11.4746 22.0043 11.5537 21.9871C11.7294 21.9489 11.8783 21.7938 12.1763 21.4837L20.8264 12.4787C23.2602 9.94518 23.5557 5.77588 21.5088 2.85222L21.124 2.30248C18.6753 -1.19505 13.76 -0.60849 12.0395 3.38659C11.7964 3.95093 11.0715 3.95093 10.8284 3.38659C9.10787 -0.60849 4.19263 -1.19505 1.74392 2.30249L1.35904 2.85222C-0.687884 5.77588 -0.392336 9.94518 2.04143 12.4787Z" fill="#740200"/>
</svg>
