<svg width="45" height="43" viewBox="0 0 45 43" fill="none" xmlns="http://www.w3.org/2000/svg">
<path d="M22.1426 2C33.3648 2 42.2861 10.6193 42.2861 21.0391C42.2861 31.4588 33.3647 40.0781 22.1426 40.0781C10.9205 40.078 2.00006 31.4587 2 21.0391C2 10.6194 10.9205 2.00014 22.1426 2Z" fill="white" stroke="#E90101" stroke-width="4"/>
<g clip-path="url(#clip0_27834_10)">
<mask id="path-2-inside-1_27834_10" fill="white">
<path d="M36.427 27.588H33.8511C34.0573 27.2245 34.1269 26.8105 34.0492 26.4084C33.9715 26.0063 33.7509 25.6377 33.4204 25.3582C33.4352 25.3448 33.4507 25.3327 33.4649 25.3193C33.6637 25.1407 33.8206 24.9278 33.9262 24.6935C34.0319 24.4592 34.0842 24.2082 34.08 23.9553C34.0758 23.7025 34.0152 23.453 33.9017 23.2216C33.7883 22.9902 33.6244 22.7817 33.4197 22.6085C33.4352 22.5958 33.4507 22.583 33.4649 22.5697C33.6637 22.391 33.8205 22.1783 33.9262 21.944C34.0319 21.7097 34.0841 21.4587 34.0799 21.2059C34.0757 20.9531 34.0151 20.7037 33.9017 20.4724C33.7883 20.2411 33.6244 20.0326 33.4197 19.8594L33.4649 19.8206C33.664 19.642 33.8212 19.4291 33.9271 19.1947C34.033 18.9603 34.0855 18.7091 34.0813 18.4561C34.0772 18.2031 34.0165 17.9534 33.903 17.7219C33.7894 17.4904 33.6253 17.2818 33.4204 17.1085L33.4655 17.0697C33.7593 16.8055 33.9594 16.4689 34.0406 16.1023C34.1218 15.7358 34.0804 15.3558 33.9217 15.0105C33.763 14.6651 33.4941 14.3698 33.149 14.1619C32.8039 13.9541 32.398 13.843 31.9828 13.8426H28.0352V12.2788C28.0348 11.9385 27.8845 11.6122 27.6171 11.3716C27.3497 11.131 26.9872 10.9956 26.609 10.9953H25.0588C24.9919 10.312 24.643 9.67614 24.0809 9.21293C23.5188 8.74972 22.7843 8.4928 22.0222 8.4928C21.2601 8.4928 20.5256 8.74972 19.9635 9.21293C19.4014 9.67614 19.0525 10.312 18.9855 10.9953H17.4353C17.0573 10.9958 16.6948 11.1312 16.4275 11.3718C16.1601 11.6124 16.0097 11.9386 16.0092 12.2788V13.842H12.0185C11.5973 13.8413 11.1856 13.9545 10.8369 14.1672C10.4883 14.3798 10.2187 14.6819 10.0634 15.0342C9.90801 15.3865 9.87403 15.7728 9.96584 16.1427C10.0576 16.5127 10.271 16.8492 10.5782 17.1085C10.5633 17.1213 10.5478 17.1334 10.533 17.1467C10.3342 17.3254 10.1773 17.5383 10.0716 17.7726C9.96595 18.0069 9.91367 18.2579 9.91788 18.5108C9.92209 18.7636 9.98271 19.0131 10.0961 19.2445C10.2096 19.4759 10.3735 19.6844 10.5782 19.8576C10.5633 19.8703 10.5478 19.8825 10.533 19.8958C10.3342 20.0745 10.1773 20.2873 10.0716 20.5216C9.96595 20.756 9.91367 21.007 9.91788 21.2598C9.92209 21.5127 9.98271 21.7622 10.0961 21.9936C10.2096 22.2249 10.3735 22.4334 10.5782 22.6067L10.533 22.6455C10.3341 22.8242 10.1772 23.037 10.0716 23.2714C9.96589 23.5057 9.91364 23.7568 9.91792 24.0097C9.92219 24.2625 9.9829 24.5121 10.0964 24.7434C10.21 24.9747 10.374 25.1832 10.5788 25.3564C10.2477 25.6363 10.0266 26.0055 9.94905 26.4084C9.87148 26.8113 9.9416 27.2259 10.1488 27.5898H7.57283C7.42095 27.59 7.27533 27.6444 7.16793 27.741C7.06053 27.8377 7.00012 27.9687 6.99994 28.1054C7.00065 28.7422 7.28199 29.3527 7.78222 29.803C8.28246 30.2534 8.96074 30.5067 9.66827 30.5075H34.3316C35.0391 30.5067 35.7174 30.2534 36.2177 29.803C36.7179 29.3527 36.9992 28.7422 36.9999 28.1054C37.0001 28.0376 36.9854 27.9704 36.9567 27.9076C36.928 27.8449 36.8859 27.7879 36.8327 27.7398C36.7795 27.6918 36.7162 27.6536 36.6466 27.6276C36.5771 27.6015 36.5024 27.5881 36.427 27.588ZM32.9358 21.2333C32.9356 21.4612 32.8349 21.6797 32.6558 21.8407C32.4767 22.0018 32.2339 22.0923 31.9807 22.0923H26.8544V20.372H31.9807C32.1063 20.3721 32.2306 20.3944 32.3466 20.4378C32.4625 20.4811 32.5679 20.5446 32.6566 20.6246C32.7453 20.7046 32.8156 20.7995 32.8635 20.904C32.9114 21.0084 32.936 21.1203 32.9358 21.2333ZM32.9358 18.4843C32.9356 18.7121 32.8349 18.9306 32.6558 19.0917C32.4767 19.2527 32.2339 19.3432 31.9807 19.3432H26.8544V17.6229H31.9807C32.2339 17.6231 32.4766 17.7136 32.6556 17.8746C32.8347 18.0357 32.9354 18.254 32.9358 18.4819V18.4843ZM32.9358 15.7352C32.9356 15.9631 32.8349 16.1815 32.6558 16.3426C32.4767 16.5037 32.2339 16.5941 31.9807 16.5941H26.8544V14.8732H31.9807C32.234 14.8734 32.4768 14.964 32.6559 15.1252C32.8349 15.2863 32.9356 15.5049 32.9358 15.7328V15.7352ZM22.0205 9.52613C22.4787 9.52607 22.9216 9.67452 23.2682 9.94431C23.6147 10.2141 23.8417 10.5872 23.9077 10.9953H23.6037C23.5083 10.6838 23.3021 10.4089 23.0167 10.2129C22.7312 10.0169 22.3822 9.91057 22.0232 9.9101C21.9606 9.9101 21.9006 9.93247 21.8564 9.97229C21.8122 10.0121 21.7873 10.0661 21.7873 10.1224C21.7873 10.1787 21.8122 10.2327 21.8564 10.2725C21.9006 10.3124 21.9606 10.3347 22.0232 10.3347C22.2563 10.335 22.4839 10.398 22.6768 10.5158C22.8698 10.6335 23.0191 10.8005 23.1056 10.9953H20.1401C20.2058 10.5882 20.4319 10.216 20.777 9.94629C21.1221 9.67663 21.5634 9.52752 22.0205 9.52613ZM17.1516 12.2788C17.1518 12.212 17.1814 12.1479 17.2339 12.1006C17.2864 12.0533 17.3577 12.0267 17.432 12.0265H26.609C26.6834 12.0265 26.7547 12.0531 26.8073 12.1004C26.8599 12.1477 26.8894 12.2119 26.8894 12.2788V13.842H26.2828C26.1309 13.8422 25.9853 13.8966 25.8779 13.9932C25.7705 14.0899 25.7101 14.2209 25.7099 14.3576V22.304C25.7101 22.34 25.7023 22.3757 25.687 22.4089C25.671 22.4417 25.6481 22.4713 25.6196 22.4963C25.6056 22.5089 25.5903 22.5203 25.5738 22.5302C25.5156 22.565 25.4458 22.5806 25.3763 22.5744C25.3068 22.5682 25.2418 22.5406 25.1923 22.4963C25.164 22.4712 25.1411 22.4416 25.1249 22.4089C25.1093 22.3757 25.1013 22.34 25.1013 22.304V14.3576C25.1013 14.2209 25.041 14.0897 24.9335 13.993C24.8261 13.8964 24.6804 13.842 24.5284 13.842H22.8145C22.6626 13.8422 22.517 13.8966 22.4096 13.9932C22.3022 14.0899 22.2417 14.2209 22.2416 14.3576V19.6192C22.2416 19.6253 22.2416 19.6307 22.2416 19.6362C22.2408 19.6587 22.2363 19.681 22.2281 19.7023C22.2135 19.7436 22.1881 19.781 22.1539 19.8115C22.1399 19.8241 22.1246 19.8355 22.1081 19.8455C22.0585 19.8753 22 19.8912 21.9403 19.891C21.9176 19.8907 21.8949 19.8881 21.8729 19.8831C21.8183 19.8718 21.7684 19.847 21.7287 19.8115C21.7159 19.8009 21.704 19.7896 21.6929 19.7775C21.6742 19.7544 21.6597 19.7289 21.6498 19.7017C21.642 19.6801 21.6375 19.6577 21.6363 19.635C21.6367 19.6293 21.6367 19.6237 21.6363 19.618V14.3576C21.6363 14.2209 21.576 14.0897 21.4685 13.993C21.3611 13.8964 21.2154 13.842 21.0634 13.842H18.1788V12.5785C18.1788 12.5222 18.1539 12.4682 18.1097 12.4284C18.0654 12.3886 18.0054 12.3662 17.9429 12.3662C17.8803 12.3662 17.8203 12.3886 17.776 12.4284C17.7318 12.4682 17.707 12.5222 17.707 12.5785V13.842H17.1516V12.2788ZM23.9589 16.5917H23.3874V14.8732H23.9589V16.5917ZM23.3874 17.6229H23.9589V19.3408H23.3874V17.6229ZM11.0634 15.7328C11.0634 15.5048 11.1641 15.2862 11.3432 15.125C11.5223 14.9638 11.7652 14.8732 12.0185 14.8732H20.4919V16.5917H12.0185C11.7654 16.5916 11.5226 16.501 11.3436 16.34C11.1645 16.179 11.0638 15.9606 11.0634 15.7328ZM11.0634 18.4819C11.0633 18.369 11.088 18.2572 11.136 18.1529C11.1839 18.0486 11.2543 17.9539 11.343 17.8741C11.4317 17.7943 11.537 17.7311 11.6529 17.688C11.7688 17.6449 11.8931 17.6228 12.0185 17.6229H20.4919V19.3408H12.0185C11.7654 19.3406 11.5226 19.2501 11.3436 19.0891C11.1645 18.928 11.0638 18.7097 11.0634 18.4819ZM11.0634 21.2309C11.0633 21.1181 11.088 21.0063 11.136 20.902C11.1839 20.7977 11.2543 20.703 11.343 20.6232C11.4317 20.5434 11.537 20.4801 11.6529 20.437C11.7688 20.3939 11.8931 20.3718 12.0185 20.372H20.7581L20.7689 20.3841C20.7864 20.4054 20.8039 20.426 20.8221 20.4448L20.8424 20.4666C20.866 20.4915 20.8902 20.5158 20.9158 20.5388C21.1579 20.7573 21.4784 20.8912 21.82 20.9165C22.1617 20.9419 22.5022 20.857 22.7808 20.6771C22.8459 20.636 22.907 20.5899 22.9634 20.5394C22.9897 20.5158 23.0146 20.4915 23.0382 20.466L23.0564 20.4466C23.076 20.4254 23.0955 20.4029 23.1137 20.3799L23.1218 20.3708H23.9589V22.0886H12.0185C11.766 22.0885 11.5239 21.9985 11.345 21.8382C11.1661 21.678 11.0649 21.4605 11.0634 21.2333V21.2309ZM24.2811 23.1211L24.2844 23.1247C24.3154 23.1587 24.3485 23.1914 24.3828 23.223C24.6369 23.4514 24.9761 23.5868 25.3347 23.6029C25.6933 23.6191 26.0459 23.5148 26.3239 23.3103C26.3612 23.283 26.3967 23.2538 26.4304 23.223C26.4655 23.1914 26.4978 23.1587 26.5288 23.1247L26.5329 23.1211H31.9807C32.2338 23.1211 32.4766 23.2116 32.6556 23.3726C32.8346 23.5337 32.9351 23.7522 32.9351 23.98C32.9351 24.2078 32.8346 24.4263 32.6556 24.5874C32.4766 24.7484 32.2338 24.8389 31.9807 24.8389H12.0185C11.7654 24.8389 11.5226 24.7484 11.3436 24.5874C11.1647 24.4263 11.0641 24.2078 11.0641 23.98C11.0641 23.7522 11.1647 23.5337 11.3436 23.3726C11.5226 23.2116 11.7654 23.1211 12.0185 23.1211H24.2811ZM11.0641 26.7291C11.0643 26.5013 11.1649 26.2829 11.3438 26.1219C11.5228 25.9608 11.7654 25.8703 12.0185 25.8701H31.9814C32.2345 25.8701 32.4773 25.9606 32.6562 26.1217C32.8352 26.2828 32.9358 26.5013 32.9358 26.7291C32.9358 26.9569 32.8352 27.1753 32.6562 27.3364C32.4773 27.4975 32.2345 27.588 31.9814 27.588H12.0185C11.7654 27.5878 11.5228 27.4973 11.3438 27.3363C11.1649 27.1752 11.0643 26.9568 11.0641 26.7291ZM34.3316 29.4745H9.66827C9.36532 29.4742 9.06934 29.3927 8.81809 29.2404C8.56684 29.088 8.37171 28.8718 8.25761 28.6192H35.7423C35.628 28.8717 35.4329 29.0878 35.1816 29.2402C34.9304 29.3925 34.6345 29.4741 34.3316 29.4745Z"/>
</mask>
<path d="M36.427 27.588H33.8511C34.0573 27.2245 34.1269 26.8105 34.0492 26.4084C33.9715 26.0063 33.7509 25.6377 33.4204 25.3582C33.4352 25.3448 33.4507 25.3327 33.4649 25.3193C33.6637 25.1407 33.8206 24.9278 33.9262 24.6935C34.0319 24.4592 34.0842 24.2082 34.08 23.9553C34.0758 23.7025 34.0152 23.453 33.9017 23.2216C33.7883 22.9902 33.6244 22.7817 33.4197 22.6085C33.4352 22.5958 33.4507 22.583 33.4649 22.5697C33.6637 22.391 33.8205 22.1783 33.9262 21.944C34.0319 21.7097 34.0841 21.4587 34.0799 21.2059C34.0757 20.9531 34.0151 20.7037 33.9017 20.4724C33.7883 20.2411 33.6244 20.0326 33.4197 19.8594L33.4649 19.8206C33.664 19.642 33.8212 19.4291 33.9271 19.1947C34.033 18.9603 34.0855 18.7091 34.0813 18.4561C34.0772 18.2031 34.0165 17.9534 33.903 17.7219C33.7894 17.4904 33.6253 17.2818 33.4204 17.1085L33.4655 17.0697C33.7593 16.8055 33.9594 16.4689 34.0406 16.1023C34.1218 15.7358 34.0804 15.3558 33.9217 15.0105C33.763 14.6651 33.4941 14.3698 33.149 14.1619C32.8039 13.9541 32.398 13.843 31.9828 13.8426H28.0352V12.2788C28.0348 11.9385 27.8845 11.6122 27.6171 11.3716C27.3497 11.131 26.9872 10.9956 26.609 10.9953H25.0588C24.9919 10.312 24.643 9.67614 24.0809 9.21293C23.5188 8.74972 22.7843 8.4928 22.0222 8.4928C21.2601 8.4928 20.5256 8.74972 19.9635 9.21293C19.4014 9.67614 19.0525 10.312 18.9855 10.9953H17.4353C17.0573 10.9958 16.6948 11.1312 16.4275 11.3718C16.1601 11.6124 16.0097 11.9386 16.0092 12.2788V13.842H12.0185C11.5973 13.8413 11.1856 13.9545 10.8369 14.1672C10.4883 14.3798 10.2187 14.6819 10.0634 15.0342C9.90801 15.3865 9.87403 15.7728 9.96584 16.1427C10.0576 16.5127 10.271 16.8492 10.5782 17.1085C10.5633 17.1213 10.5478 17.1334 10.533 17.1467C10.3342 17.3254 10.1773 17.5383 10.0716 17.7726C9.96595 18.0069 9.91367 18.2579 9.91788 18.5108C9.92209 18.7636 9.98271 19.0131 10.0961 19.2445C10.2096 19.4759 10.3735 19.6844 10.5782 19.8576C10.5633 19.8703 10.5478 19.8825 10.533 19.8958C10.3342 20.0745 10.1773 20.2873 10.0716 20.5216C9.96595 20.756 9.91367 21.007 9.91788 21.2598C9.92209 21.5127 9.98271 21.7622 10.0961 21.9936C10.2096 22.2249 10.3735 22.4334 10.5782 22.6067L10.533 22.6455C10.3341 22.8242 10.1772 23.037 10.0716 23.2714C9.96589 23.5057 9.91364 23.7568 9.91792 24.0097C9.92219 24.2625 9.9829 24.5121 10.0964 24.7434C10.21 24.9747 10.374 25.1832 10.5788 25.3564C10.2477 25.6363 10.0266 26.0055 9.94905 26.4084C9.87148 26.8113 9.9416 27.2259 10.1488 27.5898H7.57283C7.42095 27.59 7.27533 27.6444 7.16793 27.741C7.06053 27.8377 7.00012 27.9687 6.99994 28.1054C7.00065 28.7422 7.28199 29.3527 7.78222 29.803C8.28246 30.2534 8.96074 30.5067 9.66827 30.5075H34.3316C35.0391 30.5067 35.7174 30.2534 36.2177 29.803C36.7179 29.3527 36.9992 28.7422 36.9999 28.1054C37.0001 28.0376 36.9854 27.9704 36.9567 27.9076C36.928 27.8449 36.8859 27.7879 36.8327 27.7398C36.7795 27.6918 36.7162 27.6536 36.6466 27.6276C36.5771 27.6015 36.5024 27.5881 36.427 27.588ZM32.9358 21.2333C32.9356 21.4612 32.8349 21.6797 32.6558 21.8407C32.4767 22.0018 32.2339 22.0923 31.9807 22.0923H26.8544V20.372H31.9807C32.1063 20.3721 32.2306 20.3944 32.3466 20.4378C32.4625 20.4811 32.5679 20.5446 32.6566 20.6246C32.7453 20.7046 32.8156 20.7995 32.8635 20.904C32.9114 21.0084 32.936 21.1203 32.9358 21.2333ZM32.9358 18.4843C32.9356 18.7121 32.8349 18.9306 32.6558 19.0917C32.4767 19.2527 32.2339 19.3432 31.9807 19.3432H26.8544V17.6229H31.9807C32.2339 17.6231 32.4766 17.7136 32.6556 17.8746C32.8347 18.0357 32.9354 18.254 32.9358 18.4819V18.4843ZM32.9358 15.7352C32.9356 15.9631 32.8349 16.1815 32.6558 16.3426C32.4767 16.5037 32.2339 16.5941 31.9807 16.5941H26.8544V14.8732H31.9807C32.234 14.8734 32.4768 14.964 32.6559 15.1252C32.8349 15.2863 32.9356 15.5049 32.9358 15.7328V15.7352ZM22.0205 9.52613C22.4787 9.52607 22.9216 9.67452 23.2682 9.94431C23.6147 10.2141 23.8417 10.5872 23.9077 10.9953H23.6037C23.5083 10.6838 23.3021 10.4089 23.0167 10.2129C22.7312 10.0169 22.3822 9.91057 22.0232 9.9101C21.9606 9.9101 21.9006 9.93247 21.8564 9.97229C21.8122 10.0121 21.7873 10.0661 21.7873 10.1224C21.7873 10.1787 21.8122 10.2327 21.8564 10.2725C21.9006 10.3124 21.9606 10.3347 22.0232 10.3347C22.2563 10.335 22.4839 10.398 22.6768 10.5158C22.8698 10.6335 23.0191 10.8005 23.1056 10.9953H20.1401C20.2058 10.5882 20.4319 10.216 20.777 9.94629C21.1221 9.67663 21.5634 9.52752 22.0205 9.52613ZM17.1516 12.2788C17.1518 12.212 17.1814 12.1479 17.2339 12.1006C17.2864 12.0533 17.3577 12.0267 17.432 12.0265H26.609C26.6834 12.0265 26.7547 12.0531 26.8073 12.1004C26.8599 12.1477 26.8894 12.2119 26.8894 12.2788V13.842H26.2828C26.1309 13.8422 25.9853 13.8966 25.8779 13.9932C25.7705 14.0899 25.7101 14.2209 25.7099 14.3576V22.304C25.7101 22.34 25.7023 22.3757 25.687 22.4089C25.671 22.4417 25.6481 22.4713 25.6196 22.4963C25.6056 22.5089 25.5903 22.5203 25.5738 22.5302C25.5156 22.565 25.4458 22.5806 25.3763 22.5744C25.3068 22.5682 25.2418 22.5406 25.1923 22.4963C25.164 22.4712 25.1411 22.4416 25.1249 22.4089C25.1093 22.3757 25.1013 22.34 25.1013 22.304V14.3576C25.1013 14.2209 25.041 14.0897 24.9335 13.993C24.8261 13.8964 24.6804 13.842 24.5284 13.842H22.8145C22.6626 13.8422 22.517 13.8966 22.4096 13.9932C22.3022 14.0899 22.2417 14.2209 22.2416 14.3576V19.6192C22.2416 19.6253 22.2416 19.6307 22.2416 19.6362C22.2408 19.6587 22.2363 19.681 22.2281 19.7023C22.2135 19.7436 22.1881 19.781 22.1539 19.8115C22.1399 19.8241 22.1246 19.8355 22.1081 19.8455C22.0585 19.8753 22 19.8912 21.9403 19.891C21.9176 19.8907 21.8949 19.8881 21.8729 19.8831C21.8183 19.8718 21.7684 19.847 21.7287 19.8115C21.7159 19.8009 21.704 19.7896 21.6929 19.7775C21.6742 19.7544 21.6597 19.7289 21.6498 19.7017C21.642 19.6801 21.6375 19.6577 21.6363 19.635C21.6367 19.6293 21.6367 19.6237 21.6363 19.618V14.3576C21.6363 14.2209 21.576 14.0897 21.4685 13.993C21.3611 13.8964 21.2154 13.842 21.0634 13.842H18.1788V12.5785C18.1788 12.5222 18.1539 12.4682 18.1097 12.4284C18.0654 12.3886 18.0054 12.3662 17.9429 12.3662C17.8803 12.3662 17.8203 12.3886 17.776 12.4284C17.7318 12.4682 17.707 12.5222 17.707 12.5785V13.842H17.1516V12.2788ZM23.9589 16.5917H23.3874V14.8732H23.9589V16.5917ZM23.3874 17.6229H23.9589V19.3408H23.3874V17.6229ZM11.0634 15.7328C11.0634 15.5048 11.1641 15.2862 11.3432 15.125C11.5223 14.9638 11.7652 14.8732 12.0185 14.8732H20.4919V16.5917H12.0185C11.7654 16.5916 11.5226 16.501 11.3436 16.34C11.1645 16.179 11.0638 15.9606 11.0634 15.7328ZM11.0634 18.4819C11.0633 18.369 11.088 18.2572 11.136 18.1529C11.1839 18.0486 11.2543 17.9539 11.343 17.8741C11.4317 17.7943 11.537 17.7311 11.6529 17.688C11.7688 17.6449 11.8931 17.6228 12.0185 17.6229H20.4919V19.3408H12.0185C11.7654 19.3406 11.5226 19.2501 11.3436 19.0891C11.1645 18.928 11.0638 18.7097 11.0634 18.4819ZM11.0634 21.2309C11.0633 21.1181 11.088 21.0063 11.136 20.902C11.1839 20.7977 11.2543 20.703 11.343 20.6232C11.4317 20.5434 11.537 20.4801 11.6529 20.437C11.7688 20.3939 11.8931 20.3718 12.0185 20.372H20.7581L20.7689 20.3841C20.7864 20.4054 20.8039 20.426 20.8221 20.4448L20.8424 20.4666C20.866 20.4915 20.8902 20.5158 20.9158 20.5388C21.1579 20.7573 21.4784 20.8912 21.82 20.9165C22.1617 20.9419 22.5022 20.857 22.7808 20.6771C22.8459 20.636 22.907 20.5899 22.9634 20.5394C22.9897 20.5158 23.0146 20.4915 23.0382 20.466L23.0564 20.4466C23.076 20.4254 23.0955 20.4029 23.1137 20.3799L23.1218 20.3708H23.9589V22.0886H12.0185C11.766 22.0885 11.5239 21.9985 11.345 21.8382C11.1661 21.678 11.0649 21.4605 11.0634 21.2333V21.2309ZM24.2811 23.1211L24.2844 23.1247C24.3154 23.1587 24.3485 23.1914 24.3828 23.223C24.6369 23.4514 24.9761 23.5868 25.3347 23.6029C25.6933 23.6191 26.0459 23.5148 26.3239 23.3103C26.3612 23.283 26.3967 23.2538 26.4304 23.223C26.4655 23.1914 26.4978 23.1587 26.5288 23.1247L26.5329 23.1211H31.9807C32.2338 23.1211 32.4766 23.2116 32.6556 23.3726C32.8346 23.5337 32.9351 23.7522 32.9351 23.98C32.9351 24.2078 32.8346 24.4263 32.6556 24.5874C32.4766 24.7484 32.2338 24.8389 31.9807 24.8389H12.0185C11.7654 24.8389 11.5226 24.7484 11.3436 24.5874C11.1647 24.4263 11.0641 24.2078 11.0641 23.98C11.0641 23.7522 11.1647 23.5337 11.3436 23.3726C11.5226 23.2116 11.7654 23.1211 12.0185 23.1211H24.2811ZM11.0641 26.7291C11.0643 26.5013 11.1649 26.2829 11.3438 26.1219C11.5228 25.9608 11.7654 25.8703 12.0185 25.8701H31.9814C32.2345 25.8701 32.4773 25.9606 32.6562 26.1217C32.8352 26.2828 32.9358 26.5013 32.9358 26.7291C32.9358 26.9569 32.8352 27.1753 32.6562 27.3364C32.4773 27.4975 32.2345 27.588 31.9814 27.588H12.0185C11.7654 27.5878 11.5228 27.4973 11.3438 27.3363C11.1649 27.1752 11.0643 26.9568 11.0641 26.7291ZM34.3316 29.4745H9.66827C9.36532 29.4742 9.06934 29.3927 8.81809 29.2404C8.56684 29.088 8.37171 28.8718 8.25761 28.6192H35.7423C35.628 28.8717 35.4329 29.0878 35.1816 29.2402C34.9304 29.3925 34.6345 29.4741 34.3316 29.4745Z" fill="#E90101" stroke="#E90101" stroke-width="10" mask="url(#path-2-inside-1_27834_10)"/>
</g>
<defs>
<clipPath id="clip0_27834_10">
<rect width="30" height="27" fill="white" transform="translate(6.99994 6)"/>
</clipPath>
</defs>
</svg>
