<svg width="45" height="71" viewBox="0 0 45 71" fill="none" xmlns="http://www.w3.org/2000/svg">
<path d="M8.96859 57.15C7.95526 57.15 7.17526 56.84 6.62859 56.22C6.08193 55.6 5.80859 54.7233 5.80859 53.59C5.80859 52.87 5.93859 52.25 6.19859 51.73C6.46526 51.2033 6.84859 50.8033 7.34859 50.53C7.84859 50.25 8.44193 50.11 9.12859 50.11C9.90859 50.11 10.7119 50.2867 11.5386 50.64C11.4786 51.24 11.3819 51.9033 11.2486 52.63L10.4886 52.68L9.79859 51.67C9.50526 51.5833 9.18193 51.54 8.82859 51.54C8.56193 51.54 8.30859 51.5633 8.06859 51.61C7.96193 51.8167 7.87526 52.09 7.80859 52.43C7.74193 52.77 7.70859 53.1133 7.70859 53.46C7.70859 54.2 7.84193 54.75 8.10859 55.11C8.38193 55.4633 8.81193 55.6467 9.39859 55.66C9.63193 55.66 9.92526 55.6267 10.2786 55.56C10.6386 55.4867 10.9886 55.3933 11.3286 55.28L11.6386 56.38C11.2919 56.6067 10.8719 56.7933 10.3786 56.94C9.89193 57.08 9.42193 57.15 8.96859 57.15ZM13.8016 57.13C13.3482 57.13 12.9849 57.0067 12.7116 56.76C12.4382 56.5067 12.3016 56.1833 12.3016 55.79C12.3016 55.2633 12.5649 54.85 13.0916 54.55C13.6249 54.25 14.3982 54.08 15.4116 54.04C15.4116 53.7267 15.3849 53.4967 15.3316 53.35C15.2849 53.1967 15.1949 53.0933 15.0616 53.04C14.9349 52.98 14.7382 52.95 14.4716 52.95C14.1982 52.95 14.0049 52.96 13.8916 52.98L13.4816 53.79L12.7416 53.74C12.6282 53.2067 12.5482 52.6533 12.5016 52.08C12.8749 51.9533 13.2816 51.8533 13.7216 51.78C14.1682 51.7067 14.5849 51.67 14.9716 51.67C15.6782 51.67 16.1849 51.81 16.4916 52.09C16.7982 52.3633 16.9516 52.82 16.9516 53.46V55.55C16.9516 55.67 16.9616 55.7533 16.9816 55.8C17.0082 55.8467 17.0616 55.8933 17.1416 55.94L17.5416 56.17L17.5016 56.79C16.7282 56.97 16.1182 57.07 15.6716 57.09C15.6582 57.05 15.6382 56.98 15.6116 56.88C15.5849 56.7733 15.5616 56.6733 15.5416 56.58C15.2816 56.7467 14.9949 56.88 14.6816 56.98C14.3749 57.08 14.0816 57.13 13.8016 57.13ZM14.4716 56C14.7382 56 15.0616 55.91 15.4416 55.73L15.4016 54.97C15.2416 54.9567 15.1349 54.95 15.0816 54.95C14.9016 54.95 14.6916 54.97 14.4516 55.01C14.2116 55.0433 14.0216 55.0833 13.8816 55.13C13.8616 55.2167 13.8516 55.2967 13.8516 55.37C13.8516 55.57 13.9049 55.7267 14.0116 55.84C14.1249 55.9467 14.2782 56 14.4716 56ZM17.8887 56.08L18.5887 55.87V52.94L17.8887 52.93V51.95L18.5887 51.91V51.26C18.5887 50.6533 18.7653 50.1833 19.1187 49.85C19.472 49.5167 19.9853 49.35 20.6587 49.35C21.0053 49.35 21.4253 49.3933 21.9187 49.48L21.6887 50.84C21.3953 50.76 21.1387 50.7067 20.9187 50.68C20.7053 50.6467 20.4887 50.6333 20.2687 50.64V51.82L21.4087 51.75V52.98L20.2687 52.96V55.54C20.2687 55.68 20.2787 55.7733 20.2987 55.82C20.3187 55.8667 20.3753 55.9167 20.4687 55.97L21.0887 56.31L21.0587 57H17.9187L17.8887 56.08ZM24.2326 57.12C23.4526 57.12 22.8492 56.8833 22.4226 56.41C22.0026 55.9367 21.7926 55.2833 21.7926 54.45C21.7926 53.87 21.8959 53.3733 22.1026 52.96C22.3092 52.54 22.6026 52.22 22.9826 52C23.3626 51.78 23.8059 51.67 24.3126 51.67C25.0659 51.67 25.6426 51.91 26.0426 52.39C26.4492 52.87 26.6426 53.5533 26.6226 54.44L23.5826 55C23.6759 55.28 23.8059 55.4867 23.9726 55.62C24.1459 55.7467 24.3726 55.81 24.6526 55.81C24.8459 55.81 25.0759 55.7833 25.3426 55.73C25.6092 55.67 25.8792 55.59 26.1526 55.49L26.3826 56.48C26.1359 56.6667 25.8159 56.82 25.4226 56.94C25.0292 57.06 24.6326 57.12 24.2326 57.12ZM24.9826 53.6C24.9692 53.3467 24.8959 53.1633 24.7626 53.05C24.6359 52.93 24.4559 52.87 24.2226 52.87C24.0292 52.87 23.8459 52.8967 23.6726 52.95C23.5326 53.2767 23.4692 53.63 23.4826 54.01L24.9826 53.6ZM24.5726 49.45H26.3726V49.86L24.4926 51.18H23.6226L24.5726 49.45ZM31.108 57.13C30.468 57.13 29.968 56.89 29.608 56.41C29.248 55.93 29.068 55.2867 29.068 54.48C29.068 53.5533 29.3113 52.8533 29.798 52.38C30.2913 51.9067 30.9913 51.67 31.898 51.67C31.9513 51.67 32.1246 51.6767 32.418 51.69V51.09C32.418 50.9433 32.408 50.8467 32.388 50.8C32.368 50.7533 32.3113 50.7033 32.218 50.65L31.768 50.42L31.818 49.66C32.458 49.5467 32.9313 49.47 33.238 49.43C33.5446 49.3833 33.788 49.3567 33.968 49.35C34.028 49.5033 34.0713 49.6767 34.098 49.87V55.56C34.098 55.68 34.108 55.7633 34.128 55.81C34.1546 55.8567 34.2113 55.9033 34.298 55.95L34.678 56.18L34.638 56.8C33.9846 56.9667 33.3446 57.0667 32.718 57.1C32.6713 56.9733 32.6246 56.82 32.578 56.64C32.1246 56.9667 31.6346 57.13 31.108 57.13ZM31.688 55.85C31.908 55.85 32.1546 55.7767 32.428 55.63V53.04C32.228 52.9533 31.9713 52.91 31.658 52.91C31.4046 52.91 31.1613 52.9433 30.928 53.01C30.8746 53.1367 30.8313 53.31 30.798 53.53C30.7713 53.75 30.758 53.9933 30.758 54.26C30.758 54.8067 30.8313 55.21 30.978 55.47C31.1313 55.7233 31.368 55.85 31.688 55.85ZM36.6043 57.13C36.151 57.13 35.7876 57.0067 35.5143 56.76C35.241 56.5067 35.1043 56.1833 35.1043 55.79C35.1043 55.2633 35.3676 54.85 35.8943 54.55C36.4276 54.25 37.201 54.08 38.2143 54.04C38.2143 53.7267 38.1876 53.4967 38.1343 53.35C38.0876 53.1967 37.9976 53.0933 37.8643 53.04C37.7376 52.98 37.541 52.95 37.2743 52.95C37.001 52.95 36.8076 52.96 36.6943 52.98L36.2843 53.79L35.5443 53.74C35.431 53.2067 35.351 52.6533 35.3043 52.08C35.6776 51.9533 36.0843 51.8533 36.5243 51.78C36.971 51.7067 37.3876 51.67 37.7743 51.67C38.481 51.67 38.9876 51.81 39.2943 52.09C39.601 52.3633 39.7543 52.82 39.7543 53.46V55.55C39.7543 55.67 39.7643 55.7533 39.7843 55.8C39.811 55.8467 39.8643 55.8933 39.9443 55.94L40.3443 56.17L40.3043 56.79C39.531 56.97 38.921 57.07 38.4743 57.09C38.461 57.05 38.441 56.98 38.4143 56.88C38.3876 56.7733 38.3643 56.6733 38.3443 56.58C38.0843 56.7467 37.7976 56.88 37.4843 56.98C37.1776 57.08 36.8843 57.13 36.6043 57.13ZM37.2743 56C37.541 56 37.8643 55.91 38.2443 55.73L38.2043 54.97C38.0443 54.9567 37.9376 54.95 37.8843 54.95C37.7043 54.95 37.4943 54.97 37.2543 55.01C37.0143 55.0433 36.8243 55.0833 36.6843 55.13C36.6643 55.2167 36.6543 55.2967 36.6543 55.37C36.6543 55.57 36.7076 55.7267 36.8143 55.84C36.9276 55.9467 37.081 56 37.2743 56ZM8.28293 65.58L8.06293 68.54V68.58C8.06293 68.7067 8.1096 68.79 8.20293 68.83L8.82293 69.09L8.72293 70H6.23293L6.13293 69.11L6.59293 68.83L7.16293 64.97C7.1696 64.9233 7.17293 64.8667 7.17293 64.8C7.17293 64.72 7.15293 64.66 7.11293 64.62C7.0796 64.58 7.01293 64.53 6.91293 64.47L6.45293 64.21L6.51293 63.26H9.38293L10.8129 67.92L12.2329 63.26H14.9129L14.9529 64.31L14.3129 64.47L14.8529 68.39C14.8729 68.5233 14.8996 68.6267 14.9329 68.7C14.9729 68.7733 15.0596 68.8933 15.1929 69.06L15.4029 69.33L15.3429 70H12.3629L12.2729 69.08L13.0929 68.87L12.7529 65.52L11.4729 70.04L9.76293 70.19L8.28293 65.58ZM17.4197 70.13C16.9664 70.13 16.6031 70.0067 16.3297 69.76C16.0564 69.5067 15.9197 69.1833 15.9197 68.79C15.9197 68.2633 16.1831 67.85 16.7097 67.55C17.2431 67.25 18.0164 67.08 19.0297 67.04C19.0297 66.7267 19.0031 66.4967 18.9497 66.35C18.9031 66.1967 18.8131 66.0933 18.6797 66.04C18.5531 65.98 18.3564 65.95 18.0897 65.95C17.8164 65.95 17.6231 65.96 17.5097 65.98L17.0997 66.79L16.3597 66.74C16.2464 66.2067 16.1664 65.6533 16.1197 65.08C16.4931 64.9533 16.8997 64.8533 17.3397 64.78C17.7864 64.7067 18.2031 64.67 18.5897 64.67C19.2964 64.67 19.8031 64.81 20.1097 65.09C20.4164 65.3633 20.5697 65.82 20.5697 66.46V68.55C20.5697 68.67 20.5797 68.7533 20.5997 68.8C20.6264 68.8467 20.6797 68.8933 20.7597 68.94L21.1597 69.17L21.1197 69.79C20.3464 69.97 19.7364 70.07 19.2897 70.09C19.2764 70.05 19.2564 69.98 19.2297 69.88C19.2031 69.7733 19.1797 69.6733 19.1597 69.58C18.8997 69.7467 18.6131 69.88 18.2997 69.98C17.9931 70.08 17.6997 70.13 17.4197 70.13ZM18.0897 69C18.3564 69 18.6797 68.91 19.0597 68.73L19.0197 67.97C18.8597 67.9567 18.7531 67.95 18.6997 67.95C18.5197 67.95 18.3097 67.97 18.0697 68.01C17.8297 68.0433 17.6397 68.0833 17.4997 68.13C17.4797 68.2167 17.4697 68.2967 17.4697 68.37C17.4697 68.57 17.5231 68.7267 17.6297 68.84C17.7431 68.9467 17.8964 69 18.0897 69ZM21.5168 69.04L22.1368 68.86V66.44C22.1368 66.2933 22.1268 66.2 22.1068 66.16C22.0868 66.1133 22.0335 66.0633 21.9468 66.01L21.5068 65.77L21.5368 65.02L21.7568 64.98C22.6302 64.8067 23.2602 64.7133 23.6468 64.7C23.7002 64.84 23.7435 64.9933 23.7768 65.16C24.1835 64.9733 24.5135 64.8467 24.7668 64.78C25.0268 64.7067 25.2702 64.67 25.4968 64.67C26.5568 64.67 27.0868 65.3033 27.0868 66.57V68.53C27.0868 68.67 27.0968 68.7633 27.1168 68.81C27.1368 68.8567 27.1935 68.9067 27.2868 68.96L27.7668 69.24L27.7268 69.99H24.9668L24.9168 69.04L25.4068 68.9V67.01C25.4068 66.71 25.3968 66.5 25.3768 66.38C25.3568 66.26 25.3002 66.1667 25.2068 66.1C25.1202 66.0333 24.9635 66 24.7368 66C24.4968 66 24.1935 66.0367 23.8268 66.11V68.53C23.8268 68.67 23.8368 68.7633 23.8568 68.81C23.8768 68.8567 23.9302 68.9067 24.0168 68.96L24.5068 69.24L24.4668 69.99H21.5668L21.5168 69.04ZM28.1184 69.05L28.7384 68.87V64.08C28.7384 63.9333 28.7284 63.84 28.7084 63.8C28.6884 63.7533 28.6351 63.7033 28.5484 63.65L28.1084 63.42L28.1384 62.66L28.4484 62.61C29.3284 62.45 29.9451 62.3633 30.2984 62.35C30.3584 62.51 30.4017 62.6833 30.4284 62.87V65.15C30.7951 64.9833 31.1051 64.8633 31.3584 64.79C31.6184 64.71 31.8751 64.67 32.1284 64.67C33.1684 64.67 33.6884 65.3033 33.6884 66.57V68.54C33.6884 68.68 33.6984 68.7733 33.7184 68.82C33.7384 68.8667 33.7951 68.9167 33.8884 68.97L34.3684 69.25L34.3284 70H31.5684L31.5184 69.05L32.0084 68.91V67.01C32.0084 66.7167 31.9984 66.51 31.9784 66.39C31.9651 66.2633 31.9117 66.1667 31.8184 66.1C31.7251 66.0333 31.5684 66 31.3484 66C31.1351 66 30.8284 66.0367 30.4284 66.11V68.54C30.4284 68.68 30.4384 68.7733 30.4584 68.82C30.4784 68.8667 30.5317 68.9167 30.6184 68.97L31.1084 69.25L31.0684 70H28.1684L28.1184 69.05ZM36.16 70.13C35.7066 70.13 35.3433 70.0067 35.07 69.76C34.7966 69.5067 34.66 69.1833 34.66 68.79C34.66 68.2633 34.9233 67.85 35.45 67.55C35.9833 67.25 36.7566 67.08 37.77 67.04C37.77 66.7267 37.7433 66.4967 37.69 66.35C37.6433 66.1967 37.5533 66.0933 37.42 66.04C37.2933 65.98 37.0966 65.95 36.83 65.95C36.5566 65.95 36.3633 65.96 36.25 65.98L35.84 66.79L35.1 66.74C34.9866 66.2067 34.9066 65.6533 34.86 65.08C35.2333 64.9533 35.64 64.8533 36.08 64.78C36.5266 64.7067 36.9433 64.67 37.33 64.67C38.0366 64.67 38.5433 64.81 38.85 65.09C39.1566 65.3633 39.31 65.82 39.31 66.46V68.55C39.31 68.67 39.32 68.7533 39.34 68.8C39.3666 68.8467 39.42 68.8933 39.5 68.94L39.9 69.17L39.86 69.79C39.0866 69.97 38.4766 70.07 38.03 70.09C38.0166 70.05 37.9966 69.98 37.97 69.88C37.9433 69.7733 37.92 69.6733 37.9 69.58C37.64 69.7467 37.3533 69.88 37.04 69.98C36.7333 70.08 36.44 70.13 36.16 70.13ZM36.83 69C37.0966 69 37.42 68.91 37.8 68.73L37.76 67.97C37.6 67.9567 37.4933 67.95 37.44 67.95C37.26 67.95 37.05 67.97 36.81 68.01C36.57 68.0433 36.38 68.0833 36.24 68.13C36.22 68.2167 36.21 68.2967 36.21 68.37C36.21 68.57 36.2633 68.7267 36.37 68.84C36.4833 68.9467 36.6366 69 36.83 69ZM37.95 64.04C37.7433 64.04 37.4333 63.9667 37.02 63.82C36.8866 63.7733 36.7533 63.7333 36.62 63.7C36.4866 63.66 36.3766 63.64 36.29 63.64C36.25 63.66 36.2033 63.6967 36.15 63.75C36.1033 63.7967 36.05 63.8633 35.99 63.95H35.44C35.5466 63.4767 35.6866 63.13 35.86 62.91C36.04 62.69 36.2666 62.58 36.54 62.58C36.6733 62.58 36.81 62.6 36.95 62.64C37.0966 62.6733 37.27 62.7267 37.47 62.8C37.5033 62.8133 37.6033 62.8467 37.77 62.9C37.9366 62.9533 38.0833 62.98 38.21 62.98C38.2433 62.96 38.2833 62.9233 38.33 62.87C38.3766 62.8167 38.4333 62.75 38.5 62.67H39.05C38.9433 63.1433 38.8 63.49 38.62 63.71C38.4466 63.93 38.2233 64.04 37.95 64.04Z" fill="#E70001"/>
<path d="M22.1426 2C33.3648 2 42.2861 10.6193 42.2861 21.0391C42.2861 31.4588 33.3647 40.0781 22.1426 40.0781C10.9205 40.078 2.00006 31.4587 2 21.0391C2 10.6194 10.9205 2.00014 22.1426 2Z" fill="white" stroke="#E90101" stroke-width="4"/>
<g clip-path="url(#clip0_27818_702)">
<mask id="path-3-inside-1_27818_702" fill="white">
<path d="M36.427 27.588H33.8511C34.0573 27.2245 34.1269 26.8105 34.0492 26.4084C33.9715 26.0063 33.7509 25.6377 33.4204 25.3582C33.4352 25.3448 33.4507 25.3327 33.4649 25.3193C33.6637 25.1407 33.8206 24.9278 33.9262 24.6935C34.0319 24.4592 34.0842 24.2082 34.08 23.9553C34.0758 23.7025 34.0152 23.453 33.9017 23.2216C33.7883 22.9902 33.6244 22.7817 33.4197 22.6085C33.4352 22.5958 33.4507 22.583 33.4649 22.5697C33.6637 22.391 33.8205 22.1783 33.9262 21.944C34.0319 21.7097 34.0841 21.4587 34.0799 21.2059C34.0757 20.9531 34.0151 20.7037 33.9017 20.4724C33.7883 20.2411 33.6244 20.0326 33.4197 19.8594L33.4649 19.8206C33.664 19.642 33.8212 19.4291 33.9271 19.1947C34.033 18.9603 34.0855 18.7091 34.0813 18.4561C34.0772 18.2031 34.0165 17.9534 33.903 17.7219C33.7894 17.4904 33.6253 17.2818 33.4204 17.1085L33.4655 17.0697C33.7593 16.8055 33.9594 16.4689 34.0406 16.1023C34.1218 15.7358 34.0804 15.3558 33.9217 15.0105C33.763 14.6651 33.4941 14.3698 33.149 14.1619C32.8039 13.9541 32.398 13.843 31.9828 13.8426H28.0352V12.2788C28.0348 11.9385 27.8845 11.6122 27.6171 11.3716C27.3497 11.131 26.9872 10.9956 26.609 10.9953H25.0588C24.9919 10.312 24.643 9.67614 24.0809 9.21293C23.5188 8.74972 22.7843 8.4928 22.0222 8.4928C21.2601 8.4928 20.5256 8.74972 19.9635 9.21293C19.4014 9.67614 19.0525 10.312 18.9855 10.9953H17.4353C17.0573 10.9958 16.6948 11.1312 16.4275 11.3718C16.1601 11.6124 16.0097 11.9386 16.0092 12.2788V13.842H12.0185C11.5973 13.8413 11.1856 13.9545 10.8369 14.1672C10.4883 14.3798 10.2187 14.6819 10.0634 15.0342C9.90801 15.3865 9.87403 15.7728 9.96584 16.1427C10.0576 16.5127 10.271 16.8492 10.5782 17.1085C10.5633 17.1213 10.5478 17.1334 10.533 17.1467C10.3342 17.3254 10.1773 17.5383 10.0716 17.7726C9.96595 18.0069 9.91367 18.2579 9.91788 18.5108C9.92209 18.7636 9.98271 19.0131 10.0961 19.2445C10.2096 19.4759 10.3735 19.6844 10.5782 19.8576C10.5633 19.8703 10.5478 19.8825 10.533 19.8958C10.3342 20.0745 10.1773 20.2873 10.0716 20.5216C9.96595 20.756 9.91367 21.007 9.91788 21.2598C9.92209 21.5127 9.98271 21.7622 10.0961 21.9936C10.2096 22.2249 10.3735 22.4334 10.5782 22.6067L10.533 22.6455C10.3341 22.8242 10.1772 23.037 10.0716 23.2714C9.96589 23.5057 9.91364 23.7568 9.91792 24.0097C9.92219 24.2625 9.9829 24.5121 10.0964 24.7434C10.21 24.9747 10.374 25.1832 10.5788 25.3564C10.2477 25.6363 10.0266 26.0055 9.94905 26.4084C9.87148 26.8113 9.9416 27.2259 10.1488 27.5898H7.57283C7.42095 27.59 7.27533 27.6444 7.16793 27.741C7.06053 27.8377 7.00012 27.9687 6.99994 28.1054C7.00065 28.7422 7.28199 29.3527 7.78222 29.803C8.28246 30.2534 8.96074 30.5067 9.66827 30.5075H34.3316C35.0391 30.5067 35.7174 30.2534 36.2177 29.803C36.7179 29.3527 36.9992 28.7422 36.9999 28.1054C37.0001 28.0376 36.9854 27.9704 36.9567 27.9076C36.928 27.8449 36.8859 27.7879 36.8327 27.7398C36.7795 27.6918 36.7162 27.6536 36.6466 27.6276C36.5771 27.6015 36.5024 27.5881 36.427 27.588ZM32.9358 21.2333C32.9356 21.4612 32.8349 21.6797 32.6558 21.8407C32.4767 22.0018 32.2339 22.0923 31.9807 22.0923H26.8544V20.372H31.9807C32.1063 20.3721 32.2306 20.3944 32.3466 20.4378C32.4625 20.4811 32.5679 20.5446 32.6566 20.6246C32.7453 20.7046 32.8156 20.7995 32.8635 20.904C32.9114 21.0084 32.936 21.1203 32.9358 21.2333ZM32.9358 18.4843C32.9356 18.7121 32.8349 18.9306 32.6558 19.0917C32.4767 19.2527 32.2339 19.3432 31.9807 19.3432H26.8544V17.6229H31.9807C32.2339 17.6231 32.4766 17.7136 32.6556 17.8746C32.8347 18.0357 32.9354 18.254 32.9358 18.4819V18.4843ZM32.9358 15.7352C32.9356 15.9631 32.8349 16.1815 32.6558 16.3426C32.4767 16.5037 32.2339 16.5941 31.9807 16.5941H26.8544V14.8732H31.9807C32.234 14.8734 32.4768 14.964 32.6559 15.1252C32.8349 15.2863 32.9356 15.5049 32.9358 15.7328V15.7352ZM22.0205 9.52613C22.4787 9.52607 22.9216 9.67452 23.2682 9.94431C23.6147 10.2141 23.8417 10.5872 23.9077 10.9953H23.6037C23.5083 10.6838 23.3021 10.4089 23.0167 10.2129C22.7312 10.0169 22.3822 9.91057 22.0232 9.9101C21.9606 9.9101 21.9006 9.93247 21.8564 9.97229C21.8122 10.0121 21.7873 10.0661 21.7873 10.1224C21.7873 10.1787 21.8122 10.2327 21.8564 10.2725C21.9006 10.3124 21.9606 10.3347 22.0232 10.3347C22.2563 10.335 22.4839 10.398 22.6768 10.5158C22.8698 10.6335 23.0191 10.8005 23.1056 10.9953H20.1401C20.2058 10.5882 20.4319 10.216 20.777 9.94629C21.1221 9.67663 21.5634 9.52752 22.0205 9.52613ZM17.1516 12.2788C17.1518 12.212 17.1814 12.1479 17.2339 12.1006C17.2864 12.0533 17.3577 12.0267 17.432 12.0265H26.609C26.6834 12.0265 26.7547 12.0531 26.8073 12.1004C26.8599 12.1477 26.8894 12.2119 26.8894 12.2788V13.842H26.2828C26.1309 13.8422 25.9853 13.8966 25.8779 13.9932C25.7705 14.0899 25.7101 14.2209 25.7099 14.3576V22.304C25.7101 22.34 25.7023 22.3757 25.687 22.4089C25.671 22.4417 25.6481 22.4713 25.6196 22.4963C25.6056 22.5089 25.5903 22.5203 25.5738 22.5302C25.5156 22.565 25.4458 22.5806 25.3763 22.5744C25.3068 22.5682 25.2418 22.5406 25.1923 22.4963C25.164 22.4712 25.1411 22.4416 25.1249 22.4089C25.1093 22.3757 25.1013 22.34 25.1013 22.304V14.3576C25.1013 14.2209 25.041 14.0897 24.9335 13.993C24.8261 13.8964 24.6804 13.842 24.5284 13.842H22.8145C22.6626 13.8422 22.517 13.8966 22.4096 13.9932C22.3022 14.0899 22.2417 14.2209 22.2416 14.3576V19.6192C22.2416 19.6253 22.2416 19.6307 22.2416 19.6362C22.2408 19.6587 22.2363 19.681 22.2281 19.7023C22.2135 19.7436 22.1881 19.781 22.1539 19.8115C22.1399 19.8241 22.1246 19.8355 22.1081 19.8455C22.0585 19.8753 22 19.8912 21.9403 19.891C21.9176 19.8907 21.8949 19.8881 21.8729 19.8831C21.8183 19.8718 21.7684 19.847 21.7287 19.8115C21.7159 19.8009 21.704 19.7896 21.6929 19.7775C21.6742 19.7544 21.6597 19.7289 21.6498 19.7017C21.642 19.6801 21.6375 19.6577 21.6363 19.635C21.6367 19.6293 21.6367 19.6237 21.6363 19.618V14.3576C21.6363 14.2209 21.576 14.0897 21.4685 13.993C21.3611 13.8964 21.2154 13.842 21.0634 13.842H18.1788V12.5785C18.1788 12.5222 18.1539 12.4682 18.1097 12.4284C18.0654 12.3886 18.0054 12.3662 17.9429 12.3662C17.8803 12.3662 17.8203 12.3886 17.776 12.4284C17.7318 12.4682 17.707 12.5222 17.707 12.5785V13.842H17.1516V12.2788ZM23.9589 16.5917H23.3874V14.8732H23.9589V16.5917ZM23.3874 17.6229H23.9589V19.3408H23.3874V17.6229ZM11.0634 15.7328C11.0634 15.5048 11.1641 15.2862 11.3432 15.125C11.5223 14.9638 11.7652 14.8732 12.0185 14.8732H20.4919V16.5917H12.0185C11.7654 16.5916 11.5226 16.501 11.3436 16.34C11.1645 16.179 11.0638 15.9606 11.0634 15.7328ZM11.0634 18.4819C11.0633 18.369 11.088 18.2572 11.136 18.1529C11.1839 18.0486 11.2543 17.9539 11.343 17.8741C11.4317 17.7943 11.537 17.7311 11.6529 17.688C11.7688 17.6449 11.8931 17.6228 12.0185 17.6229H20.4919V19.3408H12.0185C11.7654 19.3406 11.5226 19.2501 11.3436 19.0891C11.1645 18.928 11.0638 18.7097 11.0634 18.4819ZM11.0634 21.2309C11.0633 21.1181 11.088 21.0063 11.136 20.902C11.1839 20.7977 11.2543 20.703 11.343 20.6232C11.4317 20.5434 11.537 20.4801 11.6529 20.437C11.7688 20.3939 11.8931 20.3718 12.0185 20.372H20.7581L20.7689 20.3841C20.7864 20.4054 20.8039 20.426 20.8221 20.4448L20.8424 20.4666C20.866 20.4915 20.8902 20.5158 20.9158 20.5388C21.1579 20.7573 21.4784 20.8912 21.82 20.9165C22.1617 20.9419 22.5022 20.857 22.7808 20.6771C22.8459 20.636 22.907 20.5899 22.9634 20.5394C22.9897 20.5158 23.0146 20.4915 23.0382 20.466L23.0564 20.4466C23.076 20.4254 23.0955 20.4029 23.1137 20.3799L23.1218 20.3708H23.9589V22.0886H12.0185C11.766 22.0885 11.5239 21.9985 11.345 21.8382C11.1661 21.678 11.0649 21.4605 11.0634 21.2333V21.2309ZM24.2811 23.1211L24.2844 23.1247C24.3154 23.1587 24.3485 23.1914 24.3828 23.223C24.6369 23.4514 24.9761 23.5868 25.3347 23.6029C25.6933 23.6191 26.0459 23.5148 26.3239 23.3103C26.3612 23.283 26.3967 23.2538 26.4304 23.223C26.4655 23.1914 26.4978 23.1587 26.5288 23.1247L26.5329 23.1211H31.9807C32.2338 23.1211 32.4766 23.2116 32.6556 23.3726C32.8346 23.5337 32.9351 23.7522 32.9351 23.98C32.9351 24.2078 32.8346 24.4263 32.6556 24.5874C32.4766 24.7484 32.2338 24.8389 31.9807 24.8389H12.0185C11.7654 24.8389 11.5226 24.7484 11.3436 24.5874C11.1647 24.4263 11.0641 24.2078 11.0641 23.98C11.0641 23.7522 11.1647 23.5337 11.3436 23.3726C11.5226 23.2116 11.7654 23.1211 12.0185 23.1211H24.2811ZM11.0641 26.7291C11.0643 26.5013 11.1649 26.2829 11.3438 26.1219C11.5228 25.9608 11.7654 25.8703 12.0185 25.8701H31.9814C32.2345 25.8701 32.4773 25.9606 32.6562 26.1217C32.8352 26.2828 32.9358 26.5013 32.9358 26.7291C32.9358 26.9569 32.8352 27.1753 32.6562 27.3364C32.4773 27.4975 32.2345 27.588 31.9814 27.588H12.0185C11.7654 27.5878 11.5228 27.4973 11.3438 27.3363C11.1649 27.1752 11.0643 26.9568 11.0641 26.7291ZM34.3316 29.4745H9.66827C9.36532 29.4742 9.06934 29.3927 8.81809 29.2404C8.56684 29.088 8.37171 28.8718 8.25761 28.6192H35.7423C35.628 28.8717 35.4329 29.0878 35.1816 29.2402C34.9304 29.3925 34.6345 29.4741 34.3316 29.4745Z"/>
</mask>
<path d="M36.427 27.588H33.8511C34.0573 27.2245 34.1269 26.8105 34.0492 26.4084C33.9715 26.0063 33.7509 25.6377 33.4204 25.3582C33.4352 25.3448 33.4507 25.3327 33.4649 25.3193C33.6637 25.1407 33.8206 24.9278 33.9262 24.6935C34.0319 24.4592 34.0842 24.2082 34.08 23.9553C34.0758 23.7025 34.0152 23.453 33.9017 23.2216C33.7883 22.9902 33.6244 22.7817 33.4197 22.6085C33.4352 22.5958 33.4507 22.583 33.4649 22.5697C33.6637 22.391 33.8205 22.1783 33.9262 21.944C34.0319 21.7097 34.0841 21.4587 34.0799 21.2059C34.0757 20.9531 34.0151 20.7037 33.9017 20.4724C33.7883 20.2411 33.6244 20.0326 33.4197 19.8594L33.4649 19.8206C33.664 19.642 33.8212 19.4291 33.9271 19.1947C34.033 18.9603 34.0855 18.7091 34.0813 18.4561C34.0772 18.2031 34.0165 17.9534 33.903 17.7219C33.7894 17.4904 33.6253 17.2818 33.4204 17.1085L33.4655 17.0697C33.7593 16.8055 33.9594 16.4689 34.0406 16.1023C34.1218 15.7358 34.0804 15.3558 33.9217 15.0105C33.763 14.6651 33.4941 14.3698 33.149 14.1619C32.8039 13.9541 32.398 13.843 31.9828 13.8426H28.0352V12.2788C28.0348 11.9385 27.8845 11.6122 27.6171 11.3716C27.3497 11.131 26.9872 10.9956 26.609 10.9953H25.0588C24.9919 10.312 24.643 9.67614 24.0809 9.21293C23.5188 8.74972 22.7843 8.4928 22.0222 8.4928C21.2601 8.4928 20.5256 8.74972 19.9635 9.21293C19.4014 9.67614 19.0525 10.312 18.9855 10.9953H17.4353C17.0573 10.9958 16.6948 11.1312 16.4275 11.3718C16.1601 11.6124 16.0097 11.9386 16.0092 12.2788V13.842H12.0185C11.5973 13.8413 11.1856 13.9545 10.8369 14.1672C10.4883 14.3798 10.2187 14.6819 10.0634 15.0342C9.90801 15.3865 9.87403 15.7728 9.96584 16.1427C10.0576 16.5127 10.271 16.8492 10.5782 17.1085C10.5633 17.1213 10.5478 17.1334 10.533 17.1467C10.3342 17.3254 10.1773 17.5383 10.0716 17.7726C9.96595 18.0069 9.91367 18.2579 9.91788 18.5108C9.92209 18.7636 9.98271 19.0131 10.0961 19.2445C10.2096 19.4759 10.3735 19.6844 10.5782 19.8576C10.5633 19.8703 10.5478 19.8825 10.533 19.8958C10.3342 20.0745 10.1773 20.2873 10.0716 20.5216C9.96595 20.756 9.91367 21.007 9.91788 21.2598C9.92209 21.5127 9.98271 21.7622 10.0961 21.9936C10.2096 22.2249 10.3735 22.4334 10.5782 22.6067L10.533 22.6455C10.3341 22.8242 10.1772 23.037 10.0716 23.2714C9.96589 23.5057 9.91364 23.7568 9.91792 24.0097C9.92219 24.2625 9.9829 24.5121 10.0964 24.7434C10.21 24.9747 10.374 25.1832 10.5788 25.3564C10.2477 25.6363 10.0266 26.0055 9.94905 26.4084C9.87148 26.8113 9.9416 27.2259 10.1488 27.5898H7.57283C7.42095 27.59 7.27533 27.6444 7.16793 27.741C7.06053 27.8377 7.00012 27.9687 6.99994 28.1054C7.00065 28.7422 7.28199 29.3527 7.78222 29.803C8.28246 30.2534 8.96074 30.5067 9.66827 30.5075H34.3316C35.0391 30.5067 35.7174 30.2534 36.2177 29.803C36.7179 29.3527 36.9992 28.7422 36.9999 28.1054C37.0001 28.0376 36.9854 27.9704 36.9567 27.9076C36.928 27.8449 36.8859 27.7879 36.8327 27.7398C36.7795 27.6918 36.7162 27.6536 36.6466 27.6276C36.5771 27.6015 36.5024 27.5881 36.427 27.588ZM32.9358 21.2333C32.9356 21.4612 32.8349 21.6797 32.6558 21.8407C32.4767 22.0018 32.2339 22.0923 31.9807 22.0923H26.8544V20.372H31.9807C32.1063 20.3721 32.2306 20.3944 32.3466 20.4378C32.4625 20.4811 32.5679 20.5446 32.6566 20.6246C32.7453 20.7046 32.8156 20.7995 32.8635 20.904C32.9114 21.0084 32.936 21.1203 32.9358 21.2333ZM32.9358 18.4843C32.9356 18.7121 32.8349 18.9306 32.6558 19.0917C32.4767 19.2527 32.2339 19.3432 31.9807 19.3432H26.8544V17.6229H31.9807C32.2339 17.6231 32.4766 17.7136 32.6556 17.8746C32.8347 18.0357 32.9354 18.254 32.9358 18.4819V18.4843ZM32.9358 15.7352C32.9356 15.9631 32.8349 16.1815 32.6558 16.3426C32.4767 16.5037 32.2339 16.5941 31.9807 16.5941H26.8544V14.8732H31.9807C32.234 14.8734 32.4768 14.964 32.6559 15.1252C32.8349 15.2863 32.9356 15.5049 32.9358 15.7328V15.7352ZM22.0205 9.52613C22.4787 9.52607 22.9216 9.67452 23.2682 9.94431C23.6147 10.2141 23.8417 10.5872 23.9077 10.9953H23.6037C23.5083 10.6838 23.3021 10.4089 23.0167 10.2129C22.7312 10.0169 22.3822 9.91057 22.0232 9.9101C21.9606 9.9101 21.9006 9.93247 21.8564 9.97229C21.8122 10.0121 21.7873 10.0661 21.7873 10.1224C21.7873 10.1787 21.8122 10.2327 21.8564 10.2725C21.9006 10.3124 21.9606 10.3347 22.0232 10.3347C22.2563 10.335 22.4839 10.398 22.6768 10.5158C22.8698 10.6335 23.0191 10.8005 23.1056 10.9953H20.1401C20.2058 10.5882 20.4319 10.216 20.777 9.94629C21.1221 9.67663 21.5634 9.52752 22.0205 9.52613ZM17.1516 12.2788C17.1518 12.212 17.1814 12.1479 17.2339 12.1006C17.2864 12.0533 17.3577 12.0267 17.432 12.0265H26.609C26.6834 12.0265 26.7547 12.0531 26.8073 12.1004C26.8599 12.1477 26.8894 12.2119 26.8894 12.2788V13.842H26.2828C26.1309 13.8422 25.9853 13.8966 25.8779 13.9932C25.7705 14.0899 25.7101 14.2209 25.7099 14.3576V22.304C25.7101 22.34 25.7023 22.3757 25.687 22.4089C25.671 22.4417 25.6481 22.4713 25.6196 22.4963C25.6056 22.5089 25.5903 22.5203 25.5738 22.5302C25.5156 22.565 25.4458 22.5806 25.3763 22.5744C25.3068 22.5682 25.2418 22.5406 25.1923 22.4963C25.164 22.4712 25.1411 22.4416 25.1249 22.4089C25.1093 22.3757 25.1013 22.34 25.1013 22.304V14.3576C25.1013 14.2209 25.041 14.0897 24.9335 13.993C24.8261 13.8964 24.6804 13.842 24.5284 13.842H22.8145C22.6626 13.8422 22.517 13.8966 22.4096 13.9932C22.3022 14.0899 22.2417 14.2209 22.2416 14.3576V19.6192C22.2416 19.6253 22.2416 19.6307 22.2416 19.6362C22.2408 19.6587 22.2363 19.681 22.2281 19.7023C22.2135 19.7436 22.1881 19.781 22.1539 19.8115C22.1399 19.8241 22.1246 19.8355 22.1081 19.8455C22.0585 19.8753 22 19.8912 21.9403 19.891C21.9176 19.8907 21.8949 19.8881 21.8729 19.8831C21.8183 19.8718 21.7684 19.847 21.7287 19.8115C21.7159 19.8009 21.704 19.7896 21.6929 19.7775C21.6742 19.7544 21.6597 19.7289 21.6498 19.7017C21.642 19.6801 21.6375 19.6577 21.6363 19.635C21.6367 19.6293 21.6367 19.6237 21.6363 19.618V14.3576C21.6363 14.2209 21.576 14.0897 21.4685 13.993C21.3611 13.8964 21.2154 13.842 21.0634 13.842H18.1788V12.5785C18.1788 12.5222 18.1539 12.4682 18.1097 12.4284C18.0654 12.3886 18.0054 12.3662 17.9429 12.3662C17.8803 12.3662 17.8203 12.3886 17.776 12.4284C17.7318 12.4682 17.707 12.5222 17.707 12.5785V13.842H17.1516V12.2788ZM23.9589 16.5917H23.3874V14.8732H23.9589V16.5917ZM23.3874 17.6229H23.9589V19.3408H23.3874V17.6229ZM11.0634 15.7328C11.0634 15.5048 11.1641 15.2862 11.3432 15.125C11.5223 14.9638 11.7652 14.8732 12.0185 14.8732H20.4919V16.5917H12.0185C11.7654 16.5916 11.5226 16.501 11.3436 16.34C11.1645 16.179 11.0638 15.9606 11.0634 15.7328ZM11.0634 18.4819C11.0633 18.369 11.088 18.2572 11.136 18.1529C11.1839 18.0486 11.2543 17.9539 11.343 17.8741C11.4317 17.7943 11.537 17.7311 11.6529 17.688C11.7688 17.6449 11.8931 17.6228 12.0185 17.6229H20.4919V19.3408H12.0185C11.7654 19.3406 11.5226 19.2501 11.3436 19.0891C11.1645 18.928 11.0638 18.7097 11.0634 18.4819ZM11.0634 21.2309C11.0633 21.1181 11.088 21.0063 11.136 20.902C11.1839 20.7977 11.2543 20.703 11.343 20.6232C11.4317 20.5434 11.537 20.4801 11.6529 20.437C11.7688 20.3939 11.8931 20.3718 12.0185 20.372H20.7581L20.7689 20.3841C20.7864 20.4054 20.8039 20.426 20.8221 20.4448L20.8424 20.4666C20.866 20.4915 20.8902 20.5158 20.9158 20.5388C21.1579 20.7573 21.4784 20.8912 21.82 20.9165C22.1617 20.9419 22.5022 20.857 22.7808 20.6771C22.8459 20.636 22.907 20.5899 22.9634 20.5394C22.9897 20.5158 23.0146 20.4915 23.0382 20.466L23.0564 20.4466C23.076 20.4254 23.0955 20.4029 23.1137 20.3799L23.1218 20.3708H23.9589V22.0886H12.0185C11.766 22.0885 11.5239 21.9985 11.345 21.8382C11.1661 21.678 11.0649 21.4605 11.0634 21.2333V21.2309ZM24.2811 23.1211L24.2844 23.1247C24.3154 23.1587 24.3485 23.1914 24.3828 23.223C24.6369 23.4514 24.9761 23.5868 25.3347 23.6029C25.6933 23.6191 26.0459 23.5148 26.3239 23.3103C26.3612 23.283 26.3967 23.2538 26.4304 23.223C26.4655 23.1914 26.4978 23.1587 26.5288 23.1247L26.5329 23.1211H31.9807C32.2338 23.1211 32.4766 23.2116 32.6556 23.3726C32.8346 23.5337 32.9351 23.7522 32.9351 23.98C32.9351 24.2078 32.8346 24.4263 32.6556 24.5874C32.4766 24.7484 32.2338 24.8389 31.9807 24.8389H12.0185C11.7654 24.8389 11.5226 24.7484 11.3436 24.5874C11.1647 24.4263 11.0641 24.2078 11.0641 23.98C11.0641 23.7522 11.1647 23.5337 11.3436 23.3726C11.5226 23.2116 11.7654 23.1211 12.0185 23.1211H24.2811ZM11.0641 26.7291C11.0643 26.5013 11.1649 26.2829 11.3438 26.1219C11.5228 25.9608 11.7654 25.8703 12.0185 25.8701H31.9814C32.2345 25.8701 32.4773 25.9606 32.6562 26.1217C32.8352 26.2828 32.9358 26.5013 32.9358 26.7291C32.9358 26.9569 32.8352 27.1753 32.6562 27.3364C32.4773 27.4975 32.2345 27.588 31.9814 27.588H12.0185C11.7654 27.5878 11.5228 27.4973 11.3438 27.3363C11.1649 27.1752 11.0643 26.9568 11.0641 26.7291ZM34.3316 29.4745H9.66827C9.36532 29.4742 9.06934 29.3927 8.81809 29.2404C8.56684 29.088 8.37171 28.8718 8.25761 28.6192H35.7423C35.628 28.8717 35.4329 29.0878 35.1816 29.2402C34.9304 29.3925 34.6345 29.4741 34.3316 29.4745Z" fill="#E90101" stroke="#E90101" stroke-width="10" mask="url(#path-3-inside-1_27818_702)"/>
</g>
<defs>
<clipPath id="clip0_27818_702">
<rect width="30" height="27" fill="white" transform="translate(6.99994 6)"/>
</clipPath>
</defs>
</svg>
