<svg width="43" height="43" viewBox="0 0 43 43" fill="none" xmlns="http://www.w3.org/2000/svg">
<path d="M21.6339 2C31.969 2 40.3927 10.4988 40.3927 21.0391C40.3926 31.5793 31.969 40.0781 21.6339 40.0781C11.2989 40.078 2.87518 31.5792 2.87512 21.0391C2.87512 10.4988 11.2989 2.00008 21.6339 2Z" fill="white" stroke="#E90101" stroke-width="4"/>
<path d="M21.9688 36.5417C26.2249 36.5417 34.2735 34.4081 34.2735 26.3333C34.2735 19.1248 29.3516 13.9871 26.0307 11.3388C25.6623 8.89351 24.579 6.63495 22.9354 4.88563C22.679 4.61223 22.3313 4.45865 21.9688 4.45865C21.6063 4.45865 21.2586 4.61223 21.0022 4.88563C19.3586 6.63495 18.2753 8.89351 17.9069 11.3388C14.586 13.9871 9.66412 19.1248 9.66412 26.3333C9.66412 34.4081 17.7128 36.5417 21.9688 36.5417ZM21.9688 8.19313C22.7371 9.21301 23.2119 10.4484 23.336 11.75C23.336 11.7719 23.336 11.7879 23.336 11.8083C23.3278 11.8565 23.3114 11.9002 23.3073 11.9542C23.2682 12.3019 23.1109 12.6223 22.8653 12.8548C22.6196 13.0872 22.3026 13.2156 21.9743 13.2156C21.6459 13.2156 21.3289 13.0872 21.0833 12.8548C20.8377 12.6223 20.6804 12.3019 20.6413 11.9542C20.6413 11.9046 20.6208 11.8608 20.6126 11.8083C20.6126 11.7879 20.6126 11.7719 20.6126 11.75C20.7335 10.4496 21.2045 9.21436 21.9688 8.19313ZM18.6534 14.4173C19.051 14.9484 19.5554 15.3775 20.1292 15.6731C20.703 15.9686 21.3316 16.123 21.9688 16.125H21.9838H22.0235C22.6515 16.1163 23.2698 15.9588 23.8337 15.664C24.3976 15.3691 24.8931 14.9443 25.2842 14.4202C28.0815 16.8542 31.5391 20.9667 31.5391 26.3333C31.5391 33.5113 22.3571 33.625 21.9688 33.625C21.5805 33.625 12.3985 33.5113 12.3985 26.3333C12.3985 20.9667 15.8561 16.8542 18.6534 14.4173ZM17.4352 29.1756L21.5368 30.634C21.8172 30.7336 22.1204 30.7336 22.4008 30.634L26.5024 29.1756C26.8463 29.0532 27.1305 28.79 27.2926 28.4441C27.4546 28.0981 27.4812 27.6977 27.3665 27.3308C27.1956 26.781 25.585 21.9583 21.9688 21.9583C18.3526 21.9583 16.7421 26.781 16.5712 27.3308C16.4564 27.6977 16.483 28.0981 16.645 28.4441C16.8071 28.79 17.0913 29.0532 17.4352 29.1756ZM21.9688 24.875C22.8889 24.875 23.6833 25.9381 24.2014 26.9167L21.9688 27.7129L19.7403 26.9167C20.2516 25.9527 21.0446 24.875 21.9688 24.875Z" fill="#E90101"/>
</svg>
