<svg width="43" height="61" viewBox="0 0 43 61" fill="none" xmlns="http://www.w3.org/2000/svg">
<path d="M5.45359 56.98L6.18359 56.78V52.95C6.18359 52.7767 6.17026 52.6633 6.14359 52.61C6.11693 52.55 6.04693 52.4967 5.93359 52.45L5.43359 52.16L5.46359 51.26H10.8936C10.9403 51.96 10.9636 52.6433 10.9636 53.31L10.2236 53.36L9.51359 52.48L8.00359 52.44V54.22L10.1336 54.03V55.57L8.00359 55.34V56.38C8.00359 56.54 8.01359 56.6433 8.03359 56.69C8.06026 56.7367 8.12359 56.7833 8.22359 56.83L8.82359 57.19L8.79359 58H5.50359L5.45359 56.98ZM11.4399 57.05L12.0499 56.87V54.44C12.0499 54.2933 12.0399 54.2 12.0199 54.16C11.9999 54.1133 11.9466 54.0633 11.8599 54.01L11.4199 53.77L11.4499 53.02C11.5633 52.9933 11.6599 52.9767 11.7399 52.97C12.5466 52.8033 13.1433 52.7133 13.5299 52.7C13.5899 52.8733 13.6466 53.09 13.6999 53.35C14.0999 53.0367 14.4399 52.82 14.7199 52.7H15.2899C15.2833 52.9533 15.2666 53.23 15.2399 53.53C15.2133 53.8233 15.1799 54.06 15.1399 54.24C14.8999 54.2267 14.7233 54.22 14.6099 54.22C14.3299 54.22 14.0399 54.2367 13.7399 54.27V56.54C13.7399 56.68 13.7499 56.7733 13.7699 56.82C13.7899 56.8667 13.8433 56.9167 13.9299 56.97L14.5299 57.29L14.4899 58H11.4899L11.4399 57.05ZM17.1277 58.13C16.6744 58.13 16.3111 58.0067 16.0377 57.76C15.7644 57.5067 15.6277 57.1833 15.6277 56.79C15.6277 56.2633 15.8911 55.85 16.4177 55.55C16.9511 55.25 17.7244 55.08 18.7377 55.04C18.7377 54.7267 18.7111 54.4967 18.6577 54.35C18.6111 54.1967 18.5211 54.0933 18.3877 54.04C18.2611 53.98 18.0644 53.95 17.7977 53.95C17.5244 53.95 17.3311 53.96 17.2177 53.98L16.8077 54.79L16.0677 54.74C15.9544 54.2067 15.8744 53.6533 15.8277 53.08C16.2011 52.9533 16.6077 52.8533 17.0477 52.78C17.4944 52.7067 17.9111 52.67 18.2977 52.67C19.0044 52.67 19.5111 52.81 19.8177 53.09C20.1244 53.3633 20.2777 53.82 20.2777 54.46V56.55C20.2777 56.67 20.2877 56.7533 20.3077 56.8C20.3344 56.8467 20.3877 56.8933 20.4677 56.94L20.8677 57.17L20.8277 57.79C20.0544 57.97 19.4444 58.07 18.9977 58.09C18.9844 58.05 18.9644 57.98 18.9377 57.88C18.9111 57.7733 18.8877 57.6733 18.8677 57.58C18.6077 57.7467 18.3211 57.88 18.0077 57.98C17.7011 58.08 17.4077 58.13 17.1277 58.13ZM17.7977 57C18.0644 57 18.3877 56.91 18.7677 56.73L18.7277 55.97C18.5677 55.9567 18.4611 55.95 18.4077 55.95C18.2277 55.95 18.0177 55.97 17.7777 56.01C17.5377 56.0433 17.3477 56.0833 17.2077 56.13C17.1877 56.2167 17.1777 56.2967 17.1777 56.37C17.1777 56.57 17.2311 56.7267 17.3377 56.84C17.4511 56.9467 17.6044 57 17.7977 57ZM21.2248 57.04L21.8448 56.86V54.44C21.8448 54.2933 21.8348 54.2 21.8148 54.16C21.7948 54.1133 21.7415 54.0633 21.6548 54.01L21.2148 53.77L21.2448 53.02L21.4648 52.98C22.3382 52.8067 22.9682 52.7133 23.3548 52.7C23.4082 52.84 23.4515 52.9933 23.4848 53.16C23.8915 52.9733 24.2215 52.8467 24.4748 52.78C24.7348 52.7067 24.9782 52.67 25.2048 52.67C26.2648 52.67 26.7948 53.3033 26.7948 54.57V56.53C26.7948 56.67 26.8048 56.7633 26.8248 56.81C26.8448 56.8567 26.9015 56.9067 26.9948 56.96L27.4748 57.24L27.4348 57.99H24.6748L24.6248 57.04L25.1148 56.9V55.01C25.1148 54.71 25.1048 54.5 25.0848 54.38C25.0648 54.26 25.0082 54.1667 24.9148 54.1C24.8282 54.0333 24.6715 54 24.4448 54C24.2048 54 23.9015 54.0367 23.5348 54.11V56.53C23.5348 56.67 23.5448 56.7633 23.5648 56.81C23.5848 56.8567 23.6382 56.9067 23.7248 56.96L24.2148 57.24L24.1748 57.99H21.2748L21.2248 57.04ZM29.8864 60.28C29.1197 60.28 28.5397 60.16 28.1464 59.92C27.7597 59.68 27.5664 59.3267 27.5664 58.86C27.5664 58.3667 27.7931 57.9333 28.2464 57.56C28.1064 57.42 28.0364 57.2667 28.0364 57.1C28.0364 56.86 28.1931 56.52 28.5064 56.08C27.9597 55.7933 27.6864 55.3 27.6864 54.6C27.6864 53.9867 27.8931 53.5133 28.3064 53.18C28.7264 52.84 29.3297 52.67 30.1164 52.67C30.6697 52.67 31.1231 52.7533 31.4764 52.92L32.6764 52.55H33.1464V54H32.3664C32.3997 54.1667 32.4164 54.33 32.4164 54.49C32.4164 55.1033 32.2097 55.57 31.7964 55.89C31.3831 56.21 30.7764 56.37 29.9764 56.37C29.7031 56.37 29.4564 56.35 29.2364 56.31V56.45C29.2364 56.5567 29.2797 56.6333 29.3664 56.68C29.4597 56.72 29.6564 56.76 29.9564 56.8L30.8564 56.93C31.5631 57.03 32.0497 57.2033 32.3164 57.45C32.5897 57.6967 32.7264 58.0133 32.7264 58.4C32.7264 59 32.4797 59.4633 31.9864 59.79C31.4931 60.1167 30.7931 60.28 29.8864 60.28ZM30.1264 55.39C30.2664 55.39 30.4264 55.37 30.6064 55.33C30.6331 55.25 30.6564 55.13 30.6764 54.97C30.7031 54.81 30.7164 54.6633 30.7164 54.53C30.7164 54.23 30.6497 54.0067 30.5164 53.86C30.3897 53.7133 30.1897 53.64 29.9164 53.64C29.7831 53.64 29.6364 53.66 29.4764 53.7C29.4431 53.78 29.4131 53.8967 29.3864 54.05C29.3664 54.2033 29.3564 54.35 29.3564 54.49C29.3564 54.7967 29.4197 55.0233 29.5464 55.17C29.6731 55.3167 29.8664 55.39 30.1264 55.39ZM30.3464 59.15C30.6531 59.15 30.8864 59.1233 31.0464 59.07C31.0864 58.99 31.1064 58.8833 31.1064 58.75C31.1064 58.59 31.0497 58.4667 30.9364 58.38C30.8231 58.3 30.6197 58.24 30.3264 58.2L30.0064 58.15C29.7131 58.1167 29.4164 58.07 29.1164 58.01C29.0764 58.19 29.0564 58.3333 29.0564 58.44C29.0564 58.68 29.1631 58.8567 29.3764 58.97C29.5897 59.09 29.9131 59.15 30.3464 59.15ZM35.9591 58.13C35.1124 58.13 34.4791 57.9133 34.0591 57.48C33.6457 57.0467 33.4391 56.3833 33.4391 55.49C33.4391 54.9167 33.5424 54.4167 33.7491 53.99C33.9624 53.5633 34.2657 53.2367 34.6591 53.01C35.0524 52.7833 35.5157 52.67 36.0491 52.67C37.7757 52.67 38.6391 53.5633 38.6391 55.35C38.6391 56.2233 38.4024 56.9067 37.9291 57.4C37.4624 57.8867 36.8057 58.13 35.9591 58.13ZM36.1191 56.96C36.2524 56.96 36.3691 56.95 36.4691 56.93C36.5691 56.9033 36.6757 56.8633 36.7891 56.81C36.8291 56.6567 36.8624 56.46 36.8891 56.22C36.9157 55.98 36.9291 55.75 36.9291 55.53C36.9291 54.99 36.8424 54.58 36.6691 54.3C36.5024 54.02 36.2524 53.88 35.9191 53.88C35.6991 53.88 35.4757 53.91 35.2491 53.97C35.2024 54.07 35.1657 54.2333 35.1391 54.46C35.1124 54.68 35.0991 54.9333 35.0991 55.22C35.0991 55.78 35.1857 56.21 35.3591 56.51C35.5391 56.81 35.7924 56.96 36.1191 56.96Z" fill="#E70001"/>
<path d="M21.6339 2C31.969 2 40.3927 10.4988 40.3927 21.0391C40.3926 31.5793 31.969 40.0781 21.6339 40.0781C11.2989 40.078 2.87518 31.5792 2.87512 21.0391C2.87512 10.4988 11.2989 2.00008 21.6339 2Z" fill="white" stroke="#E90101" stroke-width="4"/>
<path d="M21.9688 36.5417C26.2249 36.5417 34.2735 34.4081 34.2735 26.3333C34.2735 19.1248 29.3516 13.9871 26.0307 11.3388C25.6623 8.89351 24.579 6.63495 22.9354 4.88563C22.679 4.61223 22.3313 4.45865 21.9688 4.45865C21.6063 4.45865 21.2586 4.61223 21.0022 4.88563C19.3586 6.63495 18.2753 8.89351 17.9069 11.3388C14.586 13.9871 9.66412 19.1248 9.66412 26.3333C9.66412 34.4081 17.7128 36.5417 21.9688 36.5417ZM21.9688 8.19313C22.7371 9.21301 23.2119 10.4484 23.336 11.75C23.336 11.7719 23.336 11.7879 23.336 11.8083C23.3278 11.8565 23.3114 11.9002 23.3073 11.9542C23.2682 12.3019 23.1109 12.6223 22.8653 12.8548C22.6196 13.0872 22.3026 13.2156 21.9743 13.2156C21.6459 13.2156 21.3289 13.0872 21.0833 12.8548C20.8377 12.6223 20.6804 12.3019 20.6413 11.9542C20.6413 11.9046 20.6208 11.8608 20.6126 11.8083C20.6126 11.7879 20.6126 11.7719 20.6126 11.75C20.7335 10.4496 21.2045 9.21436 21.9688 8.19313ZM18.6534 14.4173C19.051 14.9484 19.5554 15.3775 20.1292 15.6731C20.703 15.9686 21.3316 16.123 21.9688 16.125H21.9838H22.0235C22.6515 16.1163 23.2698 15.9588 23.8337 15.664C24.3976 15.3691 24.8931 14.9443 25.2842 14.4202C28.0815 16.8542 31.5391 20.9667 31.5391 26.3333C31.5391 33.5113 22.3571 33.625 21.9688 33.625C21.5805 33.625 12.3985 33.5113 12.3985 26.3333C12.3985 20.9667 15.8561 16.8542 18.6534 14.4173ZM17.4352 29.1756L21.5368 30.634C21.8172 30.7336 22.1204 30.7336 22.4008 30.634L26.5024 29.1756C26.8463 29.0532 27.1305 28.79 27.2926 28.4441C27.4546 28.0981 27.4812 27.6977 27.3665 27.3308C27.1956 26.781 25.585 21.9583 21.9688 21.9583C18.3526 21.9583 16.7421 26.781 16.5712 27.3308C16.4564 27.6977 16.483 28.0981 16.645 28.4441C16.8071 28.79 17.0913 29.0532 17.4352 29.1756ZM21.9688 24.875C22.8889 24.875 23.6833 25.9381 24.2014 26.9167L21.9688 27.7129L19.7403 26.9167C20.2516 25.9527 21.0446 24.875 21.9688 24.875Z" fill="#E90101"/>
</svg>
