<svg width="43" height="59" viewBox="0 0 43 59" fill="none" xmlns="http://www.w3.org/2000/svg">
<path d="M5.80258 58.15C4.78924 58.15 4.00924 57.84 3.46258 57.22C2.91591 56.6 2.64258 55.7233 2.64258 54.59C2.64258 53.87 2.77258 53.25 3.03258 52.73C3.29924 52.2033 3.68258 51.8033 4.18258 51.53C4.68258 51.25 5.27591 51.11 5.96258 51.11C6.74258 51.11 7.54591 51.2867 8.37258 51.64C8.31258 52.24 8.21591 52.9033 8.08258 53.63L7.32258 53.68L6.63258 52.67C6.33925 52.5833 6.01591 52.54 5.66258 52.54C5.39591 52.54 5.14258 52.5633 4.90258 52.61C4.79591 52.8167 4.70924 53.09 4.64258 53.43C4.57591 53.77 4.54258 54.1133 4.54258 54.46C4.54258 55.2 4.67591 55.75 4.94258 56.11C5.21591 56.4633 5.64591 56.6467 6.23258 56.66C6.46591 56.66 6.75925 56.6267 7.11258 56.56C7.47258 56.4867 7.82258 56.3933 8.16258 56.28L8.47258 57.38C8.12591 57.6067 7.70591 57.7933 7.21258 57.94C6.72591 58.08 6.25591 58.15 5.80258 58.15ZM11.4884 58.13C10.6417 58.13 10.0084 57.9133 9.58836 57.48C9.17503 57.0467 8.96836 56.3833 8.96836 55.49C8.96836 54.9167 9.07169 54.4167 9.27836 53.99C9.49169 53.5633 9.79503 53.2367 10.1884 53.01C10.5817 52.7833 11.045 52.67 11.5784 52.67C13.305 52.67 14.1684 53.5633 14.1684 55.35C14.1684 56.2233 13.9317 56.9067 13.4584 57.4C12.9917 57.8867 12.335 58.13 11.4884 58.13ZM11.6484 56.96C11.7817 56.96 11.8984 56.95 11.9984 56.93C12.0984 56.9033 12.205 56.8633 12.3184 56.81C12.3584 56.6567 12.3917 56.46 12.4184 56.22C12.445 55.98 12.4584 55.75 12.4584 55.53C12.4584 54.99 12.3717 54.58 12.1984 54.3C12.0317 54.02 11.7817 53.88 11.4484 53.88C11.2284 53.88 11.005 53.91 10.7784 53.97C10.7317 54.07 10.695 54.2333 10.6684 54.46C10.6417 54.68 10.6284 54.9333 10.6284 55.22C10.6284 55.78 10.715 56.21 10.8884 56.51C11.0684 56.81 11.3217 56.96 11.6484 56.96ZM17.3068 58.13C16.5335 58.13 15.9335 57.8933 15.5068 57.42C15.0801 56.94 14.8668 56.28 14.8668 55.44C14.8668 54.5667 15.0935 53.8867 15.5468 53.4C16.0068 52.9133 16.6335 52.67 17.4268 52.67C18.0268 52.67 18.6701 52.8067 19.3568 53.08C19.3435 53.2733 19.3135 53.53 19.2668 53.85C19.2201 54.1633 19.1701 54.4533 19.1168 54.72L18.4468 54.78L17.8268 53.99C17.6601 53.9567 17.4735 53.94 17.2668 53.94C17.1001 53.94 16.9468 53.95 16.8068 53.97C16.6535 54.2633 16.5768 54.6767 16.5768 55.21C16.5768 55.7567 16.6735 56.1633 16.8668 56.43C17.0601 56.69 17.3535 56.82 17.7468 56.82C17.9335 56.82 18.1601 56.7933 18.4268 56.74C18.6935 56.68 18.9668 56.5967 19.2468 56.49L19.4868 57.49C19.2201 57.6767 18.8868 57.83 18.4868 57.95C18.0935 58.07 17.7001 58.13 17.3068 58.13ZM19.8987 57.05L20.5187 56.87V52.08C20.5187 51.9333 20.5087 51.84 20.4887 51.8C20.4687 51.7533 20.4153 51.7033 20.3287 51.65L19.8887 51.42L19.9187 50.66L20.2287 50.61C21.1087 50.45 21.7253 50.3633 22.0787 50.35C22.1387 50.51 22.182 50.6833 22.2087 50.87V54.94L23.3187 53.86C23.352 53.8267 23.3687 53.79 23.3687 53.75C23.3687 53.7167 23.3587 53.69 23.3387 53.67L23.0587 53.32L23.1687 52.77H25.3887C25.4487 52.99 25.4887 53.2267 25.5087 53.48L23.8487 54.9L25.7787 57.56V58H24.0187L22.2087 55.4V56.54C22.2087 56.68 22.2187 56.7733 22.2387 56.82C22.2587 56.8667 22.312 56.9167 22.3987 56.97L22.8887 57.25L22.8487 58H19.9487L19.8987 57.05ZM28.2454 58.13C27.6587 58.13 27.2254 57.9867 26.9454 57.7C26.6654 57.4067 26.5254 56.9633 26.5254 56.37V53.94H25.8254V53.21L27.6254 51.57L28.2054 51.64V52.77H29.8854V53.95H28.2054V56.01C28.2054 56.33 28.2487 56.5433 28.3354 56.65C28.4287 56.7567 28.6054 56.81 28.8654 56.81C29.0854 56.81 29.3921 56.78 29.7854 56.72L29.9054 57.74C29.6654 57.8533 29.3954 57.9467 29.0954 58.02C28.8021 58.0933 28.5187 58.13 28.2454 58.13ZM31.8855 58.13C31.4322 58.13 31.0689 58.0067 30.7955 57.76C30.5222 57.5067 30.3855 57.1833 30.3855 56.79C30.3855 56.2633 30.6489 55.85 31.1755 55.55C31.7089 55.25 32.4822 55.08 33.4955 55.04C33.4955 54.7267 33.4689 54.4967 33.4155 54.35C33.3689 54.1967 33.2789 54.0933 33.1455 54.04C33.0189 53.98 32.8222 53.95 32.5555 53.95C32.2822 53.95 32.0889 53.96 31.9755 53.98L31.5655 54.79L30.8255 54.74C30.7122 54.2067 30.6322 53.6533 30.5855 53.08C30.9589 52.9533 31.3655 52.8533 31.8055 52.78C32.2522 52.7067 32.6689 52.67 33.0555 52.67C33.7622 52.67 34.2689 52.81 34.5755 53.09C34.8822 53.3633 35.0355 53.82 35.0355 54.46V56.55C35.0355 56.67 35.0455 56.7533 35.0655 56.8C35.0922 56.8467 35.1455 56.8933 35.2255 56.94L35.6255 57.17L35.5855 57.79C34.8122 57.97 34.2022 58.07 33.7555 58.09C33.7422 58.05 33.7222 57.98 33.6955 57.88C33.6689 57.7733 33.6455 57.6733 33.6255 57.58C33.3655 57.7467 33.0789 57.88 32.7655 57.98C32.4589 58.08 32.1655 58.13 31.8855 58.13ZM32.5555 57C32.8222 57 33.1455 56.91 33.5255 56.73L33.4855 55.97C33.3255 55.9567 33.2189 55.95 33.1655 55.95C32.9855 55.95 32.7755 55.97 32.5355 56.01C32.2955 56.0433 32.1055 56.0833 31.9655 56.13C31.9455 56.2167 31.9355 56.2967 31.9355 56.37C31.9355 56.57 31.9889 56.7267 32.0955 56.84C32.2089 56.9467 32.3622 57 32.5555 57ZM36.3927 50.6L38.0927 50.15L38.5027 51.67L36.8127 52.13L36.3927 50.6ZM35.9727 57.08L36.6727 56.87V54.44C36.6727 54.2933 36.6593 54.2 36.6327 54.16C36.6127 54.1133 36.556 54.0633 36.4627 54.01L36.0227 53.77L36.0727 53.02C36.626 52.9133 37.0527 52.8367 37.3527 52.79C37.6593 52.7367 37.9393 52.7067 38.1927 52.7C38.2793 52.9867 38.3327 53.2 38.3527 53.34V56.54C38.3527 56.68 38.3627 56.7733 38.3827 56.82C38.4027 56.8667 38.4593 56.9167 38.5527 56.97L39.0427 57.25L39.0027 58H36.0027L35.9727 57.08ZM39.4395 57.08L40.1395 56.87V52.08C40.1395 51.9333 40.1261 51.84 40.0995 51.8C40.0795 51.7533 40.0228 51.7033 39.9295 51.65L39.4895 51.42L39.5395 50.66C39.6728 50.6333 39.7761 50.6167 39.8495 50.61C40.7295 50.45 41.3428 50.3633 41.6895 50.35C41.7561 50.5033 41.7995 50.6767 41.8195 50.87V56.54C41.8195 56.68 41.8295 56.7733 41.8495 56.82C41.8695 56.8667 41.9261 56.9167 42.0195 56.97L42.5095 57.25L42.4695 58H39.4695L39.4395 57.08Z" fill="#E70001"/>
<path d="M21.6338 2C31.9688 2 40.3925 10.4988 40.3925 21.0391C40.3925 31.5793 31.9688 40.0781 21.6338 40.0781C11.2988 40.078 2.87502 31.5792 2.87497 21.0391C2.87497 10.4988 11.2987 2.00008 21.6338 2Z" fill="white" stroke="#E90101" stroke-width="4"/>
<path d="M32.7215 9.58569C32.6984 9.49071 32.6386 9.4088 32.5551 9.35788L27.2756 6.14137C27.0139 5.98194 26.6922 5.95587 26.4082 6.07089C26.1241 6.18596 25.9115 6.42872 25.8345 6.72538L24.0334 13.6752H20.8603C20.3977 10.9162 17.9931 8.80704 15.1046 8.80704C11.8863 8.80704 9.26813 11.4252 9.26813 14.6434C9.26813 17.5319 11.3773 19.9366 14.1363 20.3992V22.8464V30.2027C14.1363 31.8563 14.987 33.3144 16.2732 34.1644C15.9536 34.3226 15.7333 34.651 15.7333 35.0317C15.7333 35.5665 16.1668 36 16.7016 36H26.7718C27.3066 36 27.7401 35.5665 27.7401 35.0317C27.7401 34.651 27.5198 34.3225 27.2002 34.1644C28.4864 33.3144 29.3371 31.8564 29.3371 30.2027V22.8464V14.6434C29.3371 14.1087 28.9037 13.6752 28.3689 13.6752H26.034L27.382 8.47364L31.5477 11.0116C31.7215 11.1174 31.9483 11.0624 32.0542 10.8886L32.6782 9.86442C32.729 9.78093 32.7446 9.68067 32.7215 9.58569ZM20.8603 15.6117H23.5315L21.9076 21.8782H16.0729V20.3992C18.5167 19.9894 20.4505 18.0557 20.8603 15.6117ZM16.0728 18.4217V15.6117H18.8828C18.5305 16.9856 17.4467 18.0694 16.0728 18.4217ZM15.1045 13.6752C14.5697 13.6752 14.1363 14.1087 14.1363 14.6434V18.4217C12.4526 17.99 11.2045 16.4598 11.2045 14.6434C11.2045 12.4929 12.954 10.7434 15.1045 10.7434C16.9208 10.7434 18.4511 11.9915 18.8827 13.6752H15.1045ZM27.4006 30.2027H27.4005C27.4005 31.7519 26.1401 33.0123 24.5907 33.0123H18.8825C17.3332 33.0123 16.0728 31.7519 16.0728 30.2027V23.8147H21.4058L19.8507 29.815C19.8263 29.9096 19.8403 30.0101 19.8898 30.0944C19.9394 30.1786 20.0204 30.2397 20.1151 30.2642L21.2761 30.5651C21.4731 30.6162 21.6743 30.4978 21.7253 30.3008L23.4063 23.8147H27.4006V30.2027ZM27.4005 15.6117V21.8782H23.908L25.532 15.6117H27.4005Z" fill="#E90101"/>
</svg>
