<svg width="43" height="43" viewBox="0 0 43 43" fill="none" xmlns="http://www.w3.org/2000/svg">
<path d="M21.6338 2C31.9688 2 40.3925 10.4988 40.3925 21.0391C40.3925 31.5793 31.9688 40.0781 21.6338 40.0781C11.2988 40.078 2.87502 31.5792 2.87497 21.0391C2.87497 10.4988 11.2987 2.00008 21.6338 2Z" fill="white" stroke="#E90101" stroke-width="4"/>
<path d="M32.7215 9.58569C32.6984 9.49071 32.6386 9.4088 32.5551 9.35788L27.2756 6.14137C27.0139 5.98194 26.6922 5.95587 26.4082 6.07089C26.1241 6.18596 25.9115 6.42872 25.8345 6.72538L24.0334 13.6752H20.8603C20.3977 10.9162 17.9931 8.80704 15.1046 8.80704C11.8863 8.80704 9.26813 11.4252 9.26813 14.6434C9.26813 17.5319 11.3773 19.9366 14.1363 20.3992V22.8464V30.2027C14.1363 31.8563 14.987 33.3144 16.2732 34.1644C15.9536 34.3226 15.7333 34.651 15.7333 35.0317C15.7333 35.5665 16.1668 36 16.7016 36H26.7718C27.3066 36 27.7401 35.5665 27.7401 35.0317C27.7401 34.651 27.5198 34.3225 27.2002 34.1644C28.4864 33.3144 29.3371 31.8564 29.3371 30.2027V22.8464V14.6434C29.3371 14.1087 28.9037 13.6752 28.3689 13.6752H26.034L27.382 8.47364L31.5477 11.0116C31.7215 11.1174 31.9483 11.0624 32.0542 10.8886L32.6782 9.86442C32.729 9.78093 32.7446 9.68067 32.7215 9.58569ZM20.8603 15.6117H23.5315L21.9076 21.8782H16.0729V20.3992C18.5167 19.9894 20.4505 18.0557 20.8603 15.6117ZM16.0728 18.4217V15.6117H18.8828C18.5305 16.9856 17.4467 18.0694 16.0728 18.4217ZM15.1045 13.6752C14.5697 13.6752 14.1363 14.1087 14.1363 14.6434V18.4217C12.4526 17.99 11.2045 16.4598 11.2045 14.6434C11.2045 12.4929 12.954 10.7434 15.1045 10.7434C16.9208 10.7434 18.4511 11.9915 18.8827 13.6752H15.1045ZM27.4006 30.2027H27.4005C27.4005 31.7519 26.1401 33.0123 24.5907 33.0123H18.8825C17.3332 33.0123 16.0728 31.7519 16.0728 30.2027V23.8147H21.4058L19.8507 29.815C19.8263 29.9096 19.8403 30.0101 19.8898 30.0944C19.9394 30.1786 20.0204 30.2397 20.1151 30.2642L21.2761 30.5651C21.4731 30.6162 21.6743 30.4978 21.7253 30.3008L23.4063 23.8147H27.4006V30.2027ZM27.4005 15.6117V21.8782H23.908L25.532 15.6117H27.4005Z" fill="#E90101"/>
</svg>
