<svg width="43" height="58" viewBox="0 0 43 58" fill="none" xmlns="http://www.w3.org/2000/svg">
<path d="M10.6229 57.15C9.60956 57.15 8.82956 56.84 8.28289 56.22C7.73622 55.6 7.46289 54.7233 7.46289 53.59C7.46289 52.87 7.59289 52.25 7.85289 51.73C8.11956 51.2033 8.50289 50.8033 9.00289 50.53C9.50289 50.25 10.0962 50.11 10.7829 50.11C11.5629 50.11 12.3662 50.2867 13.1929 50.64C13.1329 51.24 13.0362 51.9033 12.9029 52.63L12.1429 52.68L11.4529 51.67C11.1596 51.5833 10.8362 51.54 10.4829 51.54C10.2162 51.54 9.96289 51.5633 9.72289 51.61C9.61622 51.8167 9.52956 52.09 9.46289 52.43C9.39622 52.77 9.36289 53.1133 9.36289 53.46C9.36289 54.2 9.49622 54.75 9.76289 55.11C10.0362 55.4633 10.4662 55.6467 11.0529 55.66C11.2862 55.66 11.5796 55.6267 11.9329 55.56C12.2929 55.4867 12.6429 55.3933 12.9829 55.28L13.2929 56.38C12.9462 56.6067 12.5262 56.7933 12.0329 56.94C11.5462 57.08 11.0762 57.15 10.6229 57.15ZM16.3087 57.13C15.462 57.13 14.8287 56.9133 14.4087 56.48C13.9953 56.0467 13.7887 55.3833 13.7887 54.49C13.7887 53.9167 13.892 53.4167 14.0987 52.99C14.312 52.5633 14.6153 52.2367 15.0087 52.01C15.402 51.7833 15.8653 51.67 16.3987 51.67C18.1253 51.67 18.9887 52.5633 18.9887 54.35C18.9887 55.2233 18.752 55.9067 18.2787 56.4C17.812 56.8867 17.1553 57.13 16.3087 57.13ZM16.4687 55.96C16.602 55.96 16.7187 55.95 16.8187 55.93C16.9187 55.9033 17.0253 55.8633 17.1387 55.81C17.1787 55.6567 17.212 55.46 17.2387 55.22C17.2653 54.98 17.2787 54.75 17.2787 54.53C17.2787 53.99 17.192 53.58 17.0187 53.3C16.852 53.02 16.602 52.88 16.2687 52.88C16.0487 52.88 15.8253 52.91 15.5987 52.97C15.552 53.07 15.5153 53.2333 15.4887 53.46C15.462 53.68 15.4487 53.9333 15.4487 54.22C15.4487 54.78 15.5353 55.21 15.7087 55.51C15.8887 55.81 16.142 55.96 16.4687 55.96ZM22.1271 57.13C21.3538 57.13 20.7538 56.8933 20.3271 56.42C19.9004 55.94 19.6871 55.28 19.6871 54.44C19.6871 53.5667 19.9138 52.8867 20.3671 52.4C20.8271 51.9133 21.4538 51.67 22.2471 51.67C22.8471 51.67 23.4904 51.8067 24.1771 52.08C24.1638 52.2733 24.1338 52.53 24.0871 52.85C24.0404 53.1633 23.9904 53.4533 23.9371 53.72L23.2671 53.78L22.6471 52.99C22.4804 52.9567 22.2938 52.94 22.0871 52.94C21.9204 52.94 21.7671 52.95 21.6271 52.97C21.4738 53.2633 21.3971 53.6767 21.3971 54.21C21.3971 54.7567 21.4938 55.1633 21.6871 55.43C21.8804 55.69 22.1738 55.82 22.5671 55.82C22.7538 55.82 22.9804 55.7933 23.2471 55.74C23.5138 55.68 23.7871 55.5967 24.0671 55.49L24.3071 56.49C24.0404 56.6767 23.7071 56.83 23.3071 56.95C22.9138 57.07 22.5204 57.13 22.1271 57.13ZM27.295 57.13C26.4483 57.13 25.815 56.9133 25.395 56.48C24.9817 56.0467 24.775 55.3833 24.775 54.49C24.775 53.9167 24.8783 53.4167 25.085 52.99C25.2983 52.5633 25.6017 52.2367 25.995 52.01C26.3883 51.7833 26.8517 51.67 27.385 51.67C29.1117 51.67 29.975 52.5633 29.975 54.35C29.975 55.2233 29.7383 55.9067 29.265 56.4C28.7983 56.8867 28.1417 57.13 27.295 57.13ZM27.455 55.96C27.5883 55.96 27.705 55.95 27.805 55.93C27.905 55.9033 28.0117 55.8633 28.125 55.81C28.165 55.6567 28.1983 55.46 28.225 55.22C28.2517 54.98 28.265 54.75 28.265 54.53C28.265 53.99 28.1783 53.58 28.005 53.3C27.8383 53.02 27.5883 52.88 27.255 52.88C27.035 52.88 26.8117 52.91 26.585 52.97C26.5383 53.07 26.5017 53.2333 26.475 53.46C26.4483 53.68 26.435 53.9333 26.435 54.22C26.435 54.78 26.5217 55.21 26.695 55.51C26.875 55.81 27.1283 55.96 27.455 55.96ZM31.95 57.13C31.4967 57.13 31.1333 57.0067 30.86 56.76C30.5867 56.5067 30.45 56.1833 30.45 55.79C30.45 55.2633 30.7133 54.85 31.24 54.55C31.7733 54.25 32.5467 54.08 33.56 54.04C33.56 53.7267 33.5333 53.4967 33.48 53.35C33.4333 53.1967 33.3433 53.0933 33.21 53.04C33.0833 52.98 32.8867 52.95 32.62 52.95C32.3467 52.95 32.1533 52.96 32.04 52.98L31.63 53.79L30.89 53.74C30.7767 53.2067 30.6967 52.6533 30.65 52.08C31.0233 51.9533 31.43 51.8533 31.87 51.78C32.3167 51.7067 32.7333 51.67 33.12 51.67C33.8267 51.67 34.3333 51.81 34.64 52.09C34.9467 52.3633 35.1 52.82 35.1 53.46V55.55C35.1 55.67 35.11 55.7533 35.13 55.8C35.1567 55.8467 35.21 55.8933 35.29 55.94L35.69 56.17L35.65 56.79C34.8767 56.97 34.2667 57.07 33.82 57.09C33.8067 57.05 33.7867 56.98 33.76 56.88C33.7333 56.7733 33.71 56.6733 33.69 56.58C33.43 56.7467 33.1433 56.88 32.83 56.98C32.5233 57.08 32.23 57.13 31.95 57.13ZM32.62 56C32.8867 56 33.21 55.91 33.59 55.73L33.55 54.97C33.39 54.9567 33.2833 54.95 33.23 54.95C33.05 54.95 32.84 54.97 32.6 55.01C32.36 55.0433 32.17 55.0833 32.03 55.13C32.01 55.2167 32 55.2967 32 55.37C32 55.57 32.0533 55.7267 32.16 55.84C32.2733 55.9467 32.4267 56 32.62 56Z" fill="#E70001"/>
<path d="M21.5 2C32.3142 2 41 10.5507 41 21C41 31.4493 32.3142 40 21.5 40C10.6858 40 2 31.4493 2 21C2 10.5507 10.6858 2 21.5 2Z" fill="white" stroke="#E90101" stroke-width="4"/>
<g clip-path="url(#clip0_27818_787)">
<path d="M33.5488 16.7085C33.0692 16.0607 32.332 15.6892 31.526 15.6892H29.6405L30.011 12.591H10.7305L12.6174 28.3691H8.95518V29.2496C8.95518 31.3176 10.6376 33 12.7056 33H28.0359C30.1039 33 31.7863 31.3176 31.7863 29.2496V28.3691H28.1241L28.4351 25.7687H29.986C31.1005 25.7687 32.0679 25.0525 32.3932 23.9865L33.9331 18.9406C34.1684 18.1698 34.0283 17.3562 33.5488 16.7085ZM28.027 14.3519L26.3507 28.3691H14.3908L12.7145 14.3519H28.027ZM29.8198 30.13C29.4944 30.7867 28.8171 31.2391 28.0359 31.2391H12.7056C11.9244 31.2391 11.247 30.7866 10.9216 30.13H29.8198ZM32.249 18.4266L30.709 23.4725C30.6113 23.7927 30.3208 24.0078 29.9861 24.0078H28.6458L29.43 17.45H31.5261C31.7681 17.45 31.9896 17.5616 32.1336 17.7562C32.2776 17.9507 32.3197 18.1951 32.249 18.4266Z" fill="#E90101"/>
<path d="M18.2674 7.89057C18.2674 7.65263 18.3095 7.57933 18.4218 7.38348C18.5764 7.11422 18.8098 6.70727 18.8098 5.99994H17.049C17.049 6.23793 17.0069 6.31118 16.8946 6.50709C16.74 6.77635 16.5065 7.18325 16.5065 7.89062C16.5065 8.59795 16.7401 9.0049 16.8946 9.27416C17.0069 9.46997 17.049 9.54327 17.049 9.78131C17.049 10.0192 17.0069 10.0924 16.8946 10.2882C16.74 10.5575 16.5065 10.9643 16.5065 11.6716H18.2674C18.2674 11.4337 18.3094 11.3604 18.4218 11.1647C18.5764 10.8954 18.8098 10.4885 18.8098 9.78126C18.8098 9.07393 18.5762 8.66698 18.4218 8.39772C18.3095 8.20192 18.2674 8.12861 18.2674 7.89057Z" fill="#E90101"/>
<path d="M23.6925 7.89058C23.6925 7.65264 23.7346 7.57939 23.8469 7.38359C24.0014 7.11428 24.235 6.70738 24.235 6H22.4741C22.4741 6.23794 22.432 6.31124 22.3197 6.50709C22.1651 6.77636 21.9316 7.18331 21.9316 7.89063C21.9316 8.59796 22.1652 9.00491 22.3197 9.27422C22.432 9.47003 22.4741 9.54333 22.4741 9.78132C22.4741 10.0192 22.432 10.0924 22.3197 10.2882C22.1652 10.5575 21.9316 10.9644 21.9316 11.6716H23.6925C23.6925 11.4338 23.7346 11.3606 23.8469 11.1648C24.0014 10.8955 24.235 10.4886 24.235 9.78132C24.235 9.07399 24.0014 8.66704 23.8469 8.39773C23.7346 8.20187 23.6925 8.12852 23.6925 7.89058Z" fill="#E90101"/>
<path d="M24.7324 17.7949L24.6654 17.0658L23.9363 16.9988C23.7791 16.9843 20.0634 16.6702 17.8719 18.8616C15.6803 21.0531 15.9946 24.769 16.0091 24.9261L16.0761 25.6551L16.8052 25.7222C16.8422 25.7256 17.0766 25.7456 17.4422 25.7456C18.6283 25.7456 21.1945 25.5344 22.8696 23.8593C25.0611 21.6678 24.7469 17.952 24.7324 17.7949ZM21.6245 22.6142C20.947 23.2917 20.0152 23.6387 19.1628 23.8136L21.9047 21.0717L20.6596 19.8266L17.9177 22.5685C18.0926 21.716 18.4396 20.7843 19.117 20.1068C20.2129 19.0109 21.9743 18.7792 22.9882 18.7431C22.9519 19.7575 22.7201 21.5186 21.6245 22.6142Z" fill="#E90101"/>
</g>
<defs>
<clipPath id="clip0_27818_787">
<rect width="27" height="27" fill="white" transform="translate(8 6)"/>
</clipPath>
</defs>
</svg>
