<svg width="43" height="42" viewBox="0 0 43 42" fill="none" xmlns="http://www.w3.org/2000/svg">
<path d="M21.5 2C32.3142 2 41 10.5507 41 21C41 31.4493 32.3142 40 21.5 40C10.6858 40 2 31.4493 2 21C2 10.5507 10.6858 2 21.5 2Z" fill="white" stroke="#E90101" stroke-width="4"/>
<g clip-path="url(#clip0_27844_7)">
<path d="M33.5488 16.7085C33.0692 16.0607 32.332 15.6892 31.526 15.6892H29.6405L30.011 12.591H10.7305L12.6174 28.3691H8.95518V29.2496C8.95518 31.3176 10.6376 33 12.7056 33H28.0359C30.1039 33 31.7863 31.3176 31.7863 29.2496V28.3691H28.1241L28.4351 25.7687H29.986C31.1005 25.7687 32.0679 25.0525 32.3932 23.9865L33.9331 18.9406C34.1684 18.1698 34.0283 17.3562 33.5488 16.7085ZM28.027 14.3519L26.3507 28.3691H14.3908L12.7145 14.3519H28.027ZM29.8198 30.13C29.4944 30.7867 28.8171 31.2391 28.0359 31.2391H12.7056C11.9244 31.2391 11.247 30.7866 10.9216 30.13H29.8198ZM32.249 18.4266L30.709 23.4725C30.6113 23.7927 30.3208 24.0078 29.9861 24.0078H28.6458L29.43 17.45H31.5261C31.7681 17.45 31.9896 17.5616 32.1336 17.7562C32.2776 17.9507 32.3197 18.1951 32.249 18.4266Z" fill="#E90101"/>
<path d="M18.2674 7.89057C18.2674 7.65263 18.3095 7.57933 18.4218 7.38348C18.5764 7.11422 18.8098 6.70727 18.8098 5.99994H17.049C17.049 6.23793 17.0069 6.31118 16.8946 6.50709C16.74 6.77635 16.5065 7.18325 16.5065 7.89062C16.5065 8.59795 16.7401 9.0049 16.8946 9.27416C17.0069 9.46997 17.049 9.54327 17.049 9.78131C17.049 10.0192 17.0069 10.0924 16.8946 10.2882C16.74 10.5575 16.5065 10.9643 16.5065 11.6716H18.2674C18.2674 11.4337 18.3094 11.3604 18.4218 11.1647C18.5764 10.8954 18.8098 10.4885 18.8098 9.78126C18.8098 9.07393 18.5762 8.66698 18.4218 8.39772C18.3095 8.20192 18.2674 8.12861 18.2674 7.89057Z" fill="#E90101"/>
<path d="M23.6925 7.89058C23.6925 7.65264 23.7346 7.57939 23.8469 7.38359C24.0014 7.11428 24.235 6.70738 24.235 6H22.4741C22.4741 6.23794 22.432 6.31124 22.3197 6.50709C22.1651 6.77636 21.9316 7.18331 21.9316 7.89063C21.9316 8.59796 22.1652 9.00491 22.3197 9.27422C22.432 9.47003 22.4741 9.54333 22.4741 9.78132C22.4741 10.0192 22.432 10.0924 22.3197 10.2882C22.1652 10.5575 21.9316 10.9644 21.9316 11.6716H23.6925C23.6925 11.4338 23.7346 11.3606 23.8469 11.1648C24.0014 10.8955 24.235 10.4886 24.235 9.78132C24.235 9.07399 24.0014 8.66704 23.8469 8.39773C23.7346 8.20187 23.6925 8.12852 23.6925 7.89058Z" fill="#E90101"/>
<path d="M24.7324 17.7949L24.6654 17.0658L23.9363 16.9988C23.7791 16.9843 20.0634 16.6702 17.8719 18.8616C15.6803 21.0531 15.9946 24.769 16.0091 24.9261L16.0761 25.6551L16.8052 25.7222C16.8422 25.7256 17.0766 25.7456 17.4422 25.7456C18.6283 25.7456 21.1945 25.5344 22.8696 23.8593C25.0611 21.6678 24.7469 17.952 24.7324 17.7949ZM21.6245 22.6142C20.947 23.2917 20.0152 23.6387 19.1628 23.8136L21.9047 21.0717L20.6596 19.8266L17.9177 22.5685C18.0926 21.716 18.4396 20.7843 19.117 20.1068C20.2129 19.0109 21.9743 18.7792 22.9882 18.7431C22.9519 19.7575 22.7201 21.5186 21.6245 22.6142Z" fill="#E90101"/>
</g>
<defs>
<clipPath id="clip0_27844_7">
<rect width="27" height="27" fill="white" transform="translate(8 6)"/>
</clipPath>
</defs>
</svg>
