<svg width="53" height="58" viewBox="0 0 53 58" fill="none" xmlns="http://www.w3.org/2000/svg">
<path d="M2.97484 57.12C2.24151 57.12 1.49818 57.0067 0.744844 56.78C0.778177 56.12 0.83151 55.5067 0.904844 54.94L1.67484 54.79L2.17484 55.64C2.57484 55.78 2.92818 55.85 3.23484 55.85C3.34151 55.85 3.56818 55.82 3.91484 55.76C3.92818 55.6267 3.93484 55.5367 3.93484 55.49C3.93484 55.33 3.90818 55.21 3.85484 55.13C3.80151 55.0433 3.68484 54.95 3.50484 54.85C3.32484 54.7433 3.00151 54.5867 2.53484 54.38C1.96151 54.1 1.54818 53.8 1.29484 53.48C1.04151 53.1533 0.914844 52.77 0.914844 52.33C0.914844 51.6433 1.14818 51.1067 1.61484 50.72C2.08151 50.3333 2.72151 50.14 3.53484 50.14C3.92818 50.14 4.31818 50.18 4.70484 50.26C5.09818 50.3333 5.44151 50.4367 5.73484 50.57C5.72151 50.9433 5.69151 51.4067 5.64484 51.96L5.61484 52.39L4.88484 52.5L4.12484 51.53C3.88484 51.4567 3.58484 51.42 3.22484 51.42C2.99818 51.42 2.82818 51.44 2.71484 51.48C2.68151 51.6133 2.66484 51.7167 2.66484 51.79C2.66484 51.9367 2.70151 52.0667 2.77484 52.18C2.84818 52.2867 2.97818 52.4 3.16484 52.52C3.35151 52.6333 3.62818 52.7767 3.99484 52.95C4.52818 53.2033 4.93151 53.4267 5.20484 53.62C5.47818 53.8133 5.66818 54.0167 5.77484 54.23C5.88818 54.4367 5.94484 54.69 5.94484 54.99C5.94484 55.65 5.68151 56.17 5.15484 56.55C4.62818 56.93 3.90151 57.12 2.97484 57.12ZM9.13094 57.13C8.28427 57.13 7.65094 56.9133 7.23094 56.48C6.8176 56.0467 6.61094 55.3833 6.61094 54.49C6.61094 53.9167 6.71427 53.4167 6.92094 52.99C7.13427 52.5633 7.4376 52.2367 7.83094 52.01C8.22427 51.7833 8.6876 51.67 9.22094 51.67C10.9476 51.67 11.8109 52.5633 11.8109 54.35C11.8109 55.2233 11.5743 55.9067 11.1009 56.4C10.6343 56.8867 9.9776 57.13 9.13094 57.13ZM9.29094 55.96C9.42427 55.96 9.54094 55.95 9.64094 55.93C9.74094 55.9033 9.8476 55.8633 9.96094 55.81C10.0009 55.6567 10.0343 55.46 10.0609 55.22C10.0876 54.98 10.1009 54.75 10.1009 54.53C10.1009 53.99 10.0143 53.58 9.84094 53.3C9.67427 53.02 9.42427 52.88 9.09094 52.88C8.87094 52.88 8.6476 52.91 8.42094 52.97C8.37427 53.07 8.3376 53.2333 8.31094 53.46C8.28427 53.68 8.27094 53.9333 8.27094 54.22C8.27094 54.78 8.3576 55.21 8.53094 55.51C8.71094 55.81 8.96427 55.96 9.29094 55.96ZM14.7136 57.12C14.3469 57.12 13.9803 57.08 13.6136 57C13.2469 56.9267 12.9069 56.8267 12.5936 56.7V51.08C12.5936 50.9333 12.5836 50.84 12.5636 50.8C12.5436 50.7533 12.4903 50.7033 12.4036 50.65L11.9336 50.42L11.9836 49.66C12.6036 49.5533 13.0736 49.4767 13.3936 49.43C13.7136 49.3833 13.9636 49.3567 14.1436 49.35C14.2103 49.49 14.2569 49.6633 14.2836 49.87V51.87C14.6636 51.7367 15.0403 51.67 15.4136 51.67C16.1136 51.67 16.6603 51.8933 17.0536 52.34C17.4536 52.78 17.6536 53.4133 17.6536 54.24C17.6536 55.1533 17.4003 55.8633 16.8936 56.37C16.3936 56.87 15.6669 57.12 14.7136 57.12ZM15.0636 55.83C15.3769 55.83 15.6103 55.7967 15.7636 55.73C15.8169 55.55 15.8603 55.34 15.8936 55.1C15.9269 54.86 15.9436 54.6267 15.9436 54.4C15.9436 53.3733 15.6003 52.86 14.9136 52.86C14.7403 52.86 14.5303 52.89 14.2836 52.95V55.7C14.4569 55.7867 14.7169 55.83 15.0636 55.83ZM18.1079 56.05L18.7179 55.87V53.44C18.7179 53.2933 18.7079 53.2 18.6879 53.16C18.6679 53.1133 18.6146 53.0633 18.5279 53.01L18.0879 52.77L18.1179 52.02C18.2312 51.9933 18.3279 51.9767 18.4079 51.97C19.2146 51.8033 19.8112 51.7133 20.1979 51.7C20.2579 51.8733 20.3146 52.09 20.3679 52.35C20.7679 52.0367 21.1079 51.82 21.3879 51.7H21.9579C21.9512 51.9533 21.9346 52.23 21.9079 52.53C21.8812 52.8233 21.8479 53.06 21.8079 53.24C21.5679 53.2267 21.3912 53.22 21.2779 53.22C20.9979 53.22 20.7079 53.2367 20.4079 53.27V55.54C20.4079 55.68 20.4179 55.7733 20.4379 55.82C20.4579 55.8667 20.5112 55.9167 20.5979 55.97L21.1979 56.29L21.1579 57H18.1579L18.1079 56.05ZM24.6857 57.12C23.9057 57.12 23.3024 56.8833 22.8757 56.41C22.4557 55.9367 22.2457 55.2833 22.2457 54.45C22.2457 53.87 22.349 53.3733 22.5557 52.96C22.7624 52.54 23.0557 52.22 23.4357 52C23.8157 51.78 24.259 51.67 24.7657 51.67C25.519 51.67 26.0957 51.91 26.4957 52.39C26.9024 52.87 27.0957 53.5533 27.0757 54.44L24.0357 55C24.129 55.28 24.259 55.4867 24.4257 55.62C24.599 55.7467 24.8257 55.81 25.1057 55.81C25.299 55.81 25.529 55.7833 25.7957 55.73C26.0624 55.67 26.3324 55.59 26.6057 55.49L26.8357 56.48C26.589 56.6667 26.269 56.82 25.8757 56.94C25.4824 57.06 25.0857 57.12 24.6857 57.12ZM25.4357 53.6C25.4224 53.3467 25.349 53.1633 25.2157 53.05C25.089 52.93 24.909 52.87 24.6757 52.87C24.4824 52.87 24.299 52.8967 24.1257 52.95C23.9857 53.2767 23.9224 53.63 23.9357 54.01L25.4357 53.6ZM27.5705 56.05L28.1905 55.87V53.44C28.1905 53.2933 28.1805 53.2 28.1605 53.16C28.1405 53.1133 28.0872 53.0633 28.0005 53.01L27.5605 52.77L27.5905 52.02L27.8605 51.97C28.6805 51.8033 29.2872 51.7133 29.6805 51.7C29.7339 51.84 29.7772 51.9833 29.8105 52.13C30.1705 51.9633 30.4772 51.8467 30.7305 51.78C30.9905 51.7067 31.2272 51.67 31.4405 51.67C31.7005 51.67 31.9439 51.72 32.1705 51.82C32.3972 51.9133 32.5672 52.04 32.6805 52.2C33.0605 52.0133 33.4005 51.88 33.7005 51.8C34.0072 51.7133 34.2972 51.67 34.5705 51.67C35.1172 51.67 35.5205 51.8267 35.7805 52.14C36.0405 52.4533 36.1705 52.93 36.1705 53.57V55.54C36.1705 55.68 36.1805 55.7733 36.2005 55.82C36.2205 55.8667 36.2772 55.9167 36.3705 55.97L36.8505 56.25L36.8105 57H34.0905L34.0405 56.05L34.5205 55.91V54.02C34.5205 53.7333 34.5105 53.53 34.4905 53.41C34.4772 53.2833 34.4239 53.1867 34.3305 53.12C34.2372 53.0467 34.0805 53.01 33.8605 53.01C33.6872 53.01 33.3972 53.04 32.9905 53.1C33.0039 53.2067 33.0105 53.3633 33.0105 53.57V55.54C33.0105 55.68 33.0205 55.7733 33.0405 55.82C33.0605 55.8667 33.1205 55.9167 33.2205 55.97L33.7105 56.25L33.6705 57H30.9305L30.8805 56.05L31.3605 55.91V54.02C31.3605 53.7267 31.3505 53.52 31.3305 53.4C31.3172 53.2733 31.2639 53.1767 31.1705 53.11C31.0772 53.0433 30.9239 53.01 30.7105 53.01C30.4772 53.01 30.1939 53.04 29.8605 53.1V55.54C29.8605 55.68 29.8705 55.7733 29.8905 55.82C29.9105 55.8667 29.9639 55.9167 30.0505 55.97L30.5405 56.25L30.5005 57H27.6205L27.5705 56.05ZM39.5392 57.12C38.7592 57.12 38.1559 56.8833 37.7292 56.41C37.3092 55.9367 37.0992 55.2833 37.0992 54.45C37.0992 53.87 37.2026 53.3733 37.4092 52.96C37.6159 52.54 37.9092 52.22 38.2892 52C38.6692 51.78 39.1126 51.67 39.6192 51.67C40.3726 51.67 40.9492 51.91 41.3492 52.39C41.7559 52.87 41.9492 53.5533 41.9292 54.44L38.8892 55C38.9826 55.28 39.1126 55.4867 39.2792 55.62C39.4526 55.7467 39.6792 55.81 39.9592 55.81C40.1526 55.81 40.3826 55.7833 40.6492 55.73C40.9159 55.67 41.1859 55.59 41.4592 55.49L41.6892 56.48C41.4426 56.6667 41.1226 56.82 40.7292 56.94C40.3359 57.06 39.9392 57.12 39.5392 57.12ZM40.2892 53.6C40.2759 53.3467 40.2026 53.1633 40.0692 53.05C39.9426 52.93 39.7626 52.87 39.5292 52.87C39.3359 52.87 39.1526 52.8967 38.9792 52.95C38.8392 53.2767 38.7759 53.63 38.7892 54.01L40.2892 53.6ZM44.3522 57.17C43.8255 57.17 43.2155 57.0767 42.5222 56.89C42.5622 56.2367 42.6055 55.7533 42.6522 55.44L43.2222 55.33L43.8522 56C44.0722 56.0667 44.3189 56.1 44.5922 56.1C44.7455 56.1 44.8655 56.09 44.9522 56.07C44.9722 56.0167 44.9822 55.9433 44.9822 55.85C44.9822 55.77 44.9622 55.7033 44.9222 55.65C44.8889 55.5967 44.8089 55.5333 44.6822 55.46C44.5555 55.3867 44.3355 55.2733 44.0222 55.12C43.6289 54.9133 43.3289 54.73 43.1222 54.57C42.9155 54.4033 42.7655 54.2333 42.6722 54.06C42.5855 53.8867 42.5422 53.68 42.5422 53.44C42.5422 52.9067 42.7389 52.4833 43.1322 52.17C43.5322 51.8567 44.0722 51.7 44.7522 51.7C45.0322 51.7 45.3255 51.7333 45.6322 51.8C45.9455 51.86 46.2255 51.9433 46.4722 52.05C46.4722 52.4833 46.4422 52.9667 46.3822 53.5L45.8622 53.58L45.1922 52.86C45.0189 52.8067 44.7655 52.78 44.4322 52.78C44.3789 52.78 44.2722 52.7867 44.1122 52.8C44.0922 52.84 44.0822 52.9033 44.0822 52.99C44.0822 53.0833 44.1089 53.1667 44.1622 53.24C44.2155 53.3067 44.3089 53.3833 44.4422 53.47C44.5822 53.55 44.8022 53.6667 45.1022 53.82C45.5422 54.0333 45.8722 54.22 46.0922 54.38C46.3189 54.5333 46.4755 54.69 46.5622 54.85C46.6555 55.01 46.7022 55.2033 46.7022 55.43C46.7022 55.9767 46.4922 56.4033 46.0722 56.71C45.6589 57.0167 45.0855 57.17 44.3522 57.17ZM48.698 57.13C48.2447 57.13 47.8814 57.0067 47.608 56.76C47.3347 56.5067 47.198 56.1833 47.198 55.79C47.198 55.2633 47.4614 54.85 47.988 54.55C48.5214 54.25 49.2947 54.08 50.308 54.04C50.308 53.7267 50.2814 53.4967 50.228 53.35C50.1814 53.1967 50.0914 53.0933 49.958 53.04C49.8314 52.98 49.6347 52.95 49.368 52.95C49.0947 52.95 48.9014 52.96 48.788 52.98L48.378 53.79L47.638 53.74C47.5247 53.2067 47.4447 52.6533 47.398 52.08C47.7714 51.9533 48.178 51.8533 48.618 51.78C49.0647 51.7067 49.4814 51.67 49.868 51.67C50.5747 51.67 51.0814 51.81 51.388 52.09C51.6947 52.3633 51.848 52.82 51.848 53.46V55.55C51.848 55.67 51.858 55.7533 51.878 55.8C51.9047 55.8467 51.958 55.8933 52.038 55.94L52.438 56.17L52.398 56.79C51.6247 56.97 51.0147 57.07 50.568 57.09C50.5547 57.05 50.5347 56.98 50.508 56.88C50.4814 56.7733 50.458 56.6733 50.438 56.58C50.178 56.7467 49.8914 56.88 49.578 56.98C49.2714 57.08 48.978 57.13 48.698 57.13ZM49.368 56C49.6347 56 49.958 55.91 50.338 55.73L50.298 54.97C50.138 54.9567 50.0314 54.95 49.978 54.95C49.798 54.95 49.588 54.97 49.348 55.01C49.108 55.0433 48.918 55.0833 48.778 55.13C48.758 55.2167 48.748 55.2967 48.748 55.37C48.748 55.57 48.8014 55.7267 48.908 55.84C49.0214 55.9467 49.1747 56 49.368 56Z" fill="#E70001"/>
<path d="M26.5 2C37.3142 2 46 10.5507 46 21C46 31.4493 37.3142 40 26.5 40C15.6858 40 7 31.4493 7 21C7 10.5507 15.6858 2 26.5 2Z" fill="white" stroke="#E90101" stroke-width="4"/>
<g clip-path="url(#clip0_27818_707)">
<mask id="path-3-inside-1_27818_707" fill="white">
<path d="M26.5 8C25.652 8 25.0066 8.52 24.6438 9.2025C21.8995 9.55391 18.9906 10.7137 16.7294 12.4362C16.6893 12.4281 16.6534 12.4078 16.6113 12.4037C16.3877 12.3834 16.1704 12.4159 15.97 12.485C15.5692 12.6211 15.2064 12.8953 14.8731 13.2487C14.5398 13.6022 14.2846 13.9739 14.1813 14.37C14.1222 14.5995 14.1264 14.8575 14.1981 15.1012C13.4704 16.2225 13 17.5347 13 18.92C13 19.763 13.2152 20.5105 13.6413 21.0812C14.0673 21.652 14.7339 22.04 15.4806 22.04H15.6494L19.615 32.6675C19.693 32.8727 19.8955 33.0087 20.1213 33.0087H23.0913C23.2115 33.0514 23.3423 33.0514 23.4625 33.0087H29.5544C29.6746 33.0514 29.8054 33.0514 29.9256 33.0087H32.8787C33.1045 33.0087 33.307 32.8727 33.385 32.6675L35.3762 27.3537L37.3675 22.04C38.1796 22.0237 38.8884 21.7312 39.3419 21.1787C39.808 20.61 40 19.8463 40 18.92C40 16.1961 37.7409 13.5758 34.7856 11.705C34.7477 11.5364 34.6907 11.3759 34.6 11.2337C34.3785 10.8844 34.0326 10.5817 33.6044 10.34C33.1762 10.0983 32.729 9.96625 32.305 9.95C32.054 9.94187 31.7903 9.99266 31.5625 10.1125C30.5036 9.71641 29.4236 9.40156 28.3563 9.2025C27.9934 8.52 27.348 8 26.5 8ZM26.5 9.04C27.0252 9.04 27.3923 9.33656 27.5463 9.82C27.6053 10.0048 27.7698 10.143 27.9681 10.1775C28.9637 10.3522 30.0058 10.6508 31.0225 11.0225C31.033 11.2662 31.1174 11.508 31.2419 11.705C31.4634 12.0544 31.8262 12.3408 32.2544 12.5825C32.6826 12.8242 33.096 12.9725 33.52 12.9887C33.8259 12.9989 34.1549 12.9237 34.4144 12.7287C37.0574 14.4716 38.92 16.8339 38.92 18.92C38.92 19.7102 38.747 20.2423 38.4981 20.545C38.2492 20.8477 37.9159 21 37.3 21H37.1988C37.1291 20.9756 37.0532 20.9634 36.9794 20.9675C36.9266 20.9716 36.876 20.9817 36.8275 21H15.4806C15.0946 21 14.7824 20.8314 14.5187 20.48C14.2551 20.1286 14.08 19.5842 14.08 18.92C14.08 17.8292 14.4238 16.7547 14.9913 15.8162C15.2402 15.8589 15.5017 15.8305 15.7338 15.7512C16.1345 15.6152 16.5311 15.3409 16.8644 14.9875C17.1977 14.6341 17.4191 14.2623 17.5225 13.8662C17.5816 13.6367 17.59 13.3747 17.5225 13.135C19.6593 11.5527 22.469 10.4578 24.9981 10.1775C25.2091 10.1552 25.3884 10.015 25.4537 9.82C25.6077 9.33656 25.9748 9.04 26.5 9.04ZM32.1869 11.0062C32.2143 11.0062 32.2227 11.0042 32.2712 11.0062C32.4674 11.0123 32.7712 11.0692 33.0644 11.2337C33.3576 11.3983 33.5685 11.6258 33.6719 11.7862C33.7225 11.8675 33.733 11.9122 33.7394 11.9325C33.712 11.9406 33.6592 11.9528 33.5706 11.9487C33.3745 11.9427 33.0876 11.8533 32.7944 11.6887C32.5012 11.5242 32.2902 11.313 32.1869 11.1525C32.1595 11.1098 32.151 11.0956 32.1363 11.0712C32.1552 11.0509 32.1721 11.0286 32.1869 11.0062ZM22.18 12.16C21.9184 12.1661 21.6548 12.223 21.4206 12.3712C20.9545 12.6658 20.7351 13.1939 20.7287 13.7037C20.7224 14.2136 20.9017 14.7437 21.235 15.2312C21.5683 15.7188 21.9965 16.0925 22.4838 16.2875C22.971 16.4825 23.5701 16.5008 24.0363 16.2062C24.5024 15.9117 24.7049 15.3998 24.7113 14.89C24.7176 14.3802 24.5383 13.85 24.205 13.3625C23.8717 12.875 23.4266 12.5012 22.9394 12.3062C22.6947 12.2087 22.4416 12.1539 22.18 12.16ZM22.0956 13.2C22.1969 13.1736 22.3445 13.1898 22.5344 13.265C22.7875 13.3666 23.087 13.6022 23.3106 13.9312C23.5342 14.2603 23.6355 14.6097 23.6313 14.8737C23.627 15.1378 23.5511 15.278 23.4456 15.345C23.3402 15.412 23.1588 15.4303 22.9056 15.3287C22.6525 15.2272 22.353 14.9916 22.1294 14.6625C21.9058 14.3334 21.8045 13.9841 21.8088 13.72C21.813 13.4559 21.9058 13.3158 22.0113 13.2487C22.0387 13.2325 22.0619 13.2081 22.0956 13.2ZM16.3413 13.4762C16.3813 13.5148 16.4256 13.5473 16.4762 13.5738C16.4741 13.5819 16.4784 13.5819 16.4762 13.59C16.4277 13.7728 16.2991 14.047 16.0713 14.2887C15.8434 14.5305 15.565 14.697 15.3794 14.76C15.295 14.7884 15.2528 14.7905 15.2275 14.7925C15.2212 14.7864 15.217 14.7823 15.2106 14.7762C15.2085 14.7498 15.2085 14.7194 15.2275 14.6462C15.276 14.4634 15.4384 14.1892 15.6662 13.9475C15.8941 13.7058 16.1556 13.5392 16.3413 13.4762ZM33.4694 15.2312C32.9716 15.2312 32.5455 15.5156 32.2881 15.8812C32.0308 16.2469 31.9 16.6998 31.9 17.1975C31.9 17.6952 32.0308 18.1644 32.2881 18.53C32.5455 18.8956 32.9716 19.18 33.4694 19.18C33.9672 19.18 34.3764 18.8956 34.6338 18.53C34.8911 18.1644 35.0388 17.6952 35.0388 17.1975C35.0388 16.6998 34.8911 16.2469 34.6338 15.8812C34.3764 15.5156 33.9672 15.2312 33.4694 15.2312ZM33.4694 16.2712C33.5369 16.2712 33.6255 16.3037 33.7394 16.4662C33.8533 16.6287 33.9587 16.8908 33.9587 17.1975C33.9587 17.5042 33.8533 17.7825 33.7394 17.945C33.6255 18.1075 33.5369 18.14 33.4694 18.14C33.4019 18.14 33.2964 18.1075 33.1825 17.945C33.0686 17.7825 32.98 17.5042 32.98 17.1975C32.98 16.8908 33.0686 16.6287 33.1825 16.4662C33.2964 16.3037 33.4019 16.2712 33.4694 16.2712ZM16.7969 22.04H36.2031L32.4906 31.9688H30.3812L31.8831 24.7375C31.9211 24.5648 31.8662 24.3861 31.7376 24.2602C31.6068 24.1362 31.4212 24.0834 31.2419 24.12C31.0309 24.1687 30.8706 24.3353 30.8369 24.5425L29.3013 31.9688H27.04V24.64C27.0463 24.4897 26.983 24.3455 26.8713 24.2439C26.7573 24.1403 26.6034 24.0895 26.4494 24.1038C26.4262 24.1078 26.403 24.1139 26.3819 24.12C26.1309 24.1748 25.9537 24.3922 25.96 24.64V31.9688H23.6988L22.1631 24.5425C22.1378 24.4044 22.0555 24.2805 21.9353 24.1992C21.8151 24.12 21.6653 24.0916 21.5219 24.12C21.235 24.185 21.0536 24.4592 21.1169 24.7375L22.6187 31.9688H20.5094L16.7969 22.04Z"/>
</mask>
<path d="M26.5 8C25.652 8 25.0066 8.52 24.6438 9.2025C21.8995 9.55391 18.9906 10.7137 16.7294 12.4362C16.6893 12.4281 16.6534 12.4078 16.6113 12.4037C16.3877 12.3834 16.1704 12.4159 15.97 12.485C15.5692 12.6211 15.2064 12.8953 14.8731 13.2487C14.5398 13.6022 14.2846 13.9739 14.1813 14.37C14.1222 14.5995 14.1264 14.8575 14.1981 15.1012C13.4704 16.2225 13 17.5347 13 18.92C13 19.763 13.2152 20.5105 13.6413 21.0812C14.0673 21.652 14.7339 22.04 15.4806 22.04H15.6494L19.615 32.6675C19.693 32.8727 19.8955 33.0087 20.1213 33.0087H23.0913C23.2115 33.0514 23.3423 33.0514 23.4625 33.0087H29.5544C29.6746 33.0514 29.8054 33.0514 29.9256 33.0087H32.8787C33.1045 33.0087 33.307 32.8727 33.385 32.6675L35.3762 27.3537L37.3675 22.04C38.1796 22.0237 38.8884 21.7312 39.3419 21.1787C39.808 20.61 40 19.8463 40 18.92C40 16.1961 37.7409 13.5758 34.7856 11.705C34.7477 11.5364 34.6907 11.3759 34.6 11.2337C34.3785 10.8844 34.0326 10.5817 33.6044 10.34C33.1762 10.0983 32.729 9.96625 32.305 9.95C32.054 9.94187 31.7903 9.99266 31.5625 10.1125C30.5036 9.71641 29.4236 9.40156 28.3563 9.2025C27.9934 8.52 27.348 8 26.5 8ZM26.5 9.04C27.0252 9.04 27.3923 9.33656 27.5463 9.82C27.6053 10.0048 27.7698 10.143 27.9681 10.1775C28.9637 10.3522 30.0058 10.6508 31.0225 11.0225C31.033 11.2662 31.1174 11.508 31.2419 11.705C31.4634 12.0544 31.8262 12.3408 32.2544 12.5825C32.6826 12.8242 33.096 12.9725 33.52 12.9887C33.8259 12.9989 34.1549 12.9237 34.4144 12.7287C37.0574 14.4716 38.92 16.8339 38.92 18.92C38.92 19.7102 38.747 20.2423 38.4981 20.545C38.2492 20.8477 37.9159 21 37.3 21H37.1988C37.1291 20.9756 37.0532 20.9634 36.9794 20.9675C36.9266 20.9716 36.876 20.9817 36.8275 21H15.4806C15.0946 21 14.7824 20.8314 14.5187 20.48C14.2551 20.1286 14.08 19.5842 14.08 18.92C14.08 17.8292 14.4238 16.7547 14.9913 15.8162C15.2402 15.8589 15.5017 15.8305 15.7338 15.7512C16.1345 15.6152 16.5311 15.3409 16.8644 14.9875C17.1977 14.6341 17.4191 14.2623 17.5225 13.8662C17.5816 13.6367 17.59 13.3747 17.5225 13.135C19.6593 11.5527 22.469 10.4578 24.9981 10.1775C25.2091 10.1552 25.3884 10.015 25.4537 9.82C25.6077 9.33656 25.9748 9.04 26.5 9.04ZM32.1869 11.0062C32.2143 11.0062 32.2227 11.0042 32.2712 11.0062C32.4674 11.0123 32.7712 11.0692 33.0644 11.2337C33.3576 11.3983 33.5685 11.6258 33.6719 11.7862C33.7225 11.8675 33.733 11.9122 33.7394 11.9325C33.712 11.9406 33.6592 11.9528 33.5706 11.9487C33.3745 11.9427 33.0876 11.8533 32.7944 11.6887C32.5012 11.5242 32.2902 11.313 32.1869 11.1525C32.1595 11.1098 32.151 11.0956 32.1363 11.0712C32.1552 11.0509 32.1721 11.0286 32.1869 11.0062ZM22.18 12.16C21.9184 12.1661 21.6548 12.223 21.4206 12.3712C20.9545 12.6658 20.7351 13.1939 20.7287 13.7037C20.7224 14.2136 20.9017 14.7437 21.235 15.2312C21.5683 15.7188 21.9965 16.0925 22.4838 16.2875C22.971 16.4825 23.5701 16.5008 24.0363 16.2062C24.5024 15.9117 24.7049 15.3998 24.7113 14.89C24.7176 14.3802 24.5383 13.85 24.205 13.3625C23.8717 12.875 23.4266 12.5012 22.9394 12.3062C22.6947 12.2087 22.4416 12.1539 22.18 12.16ZM22.0956 13.2C22.1969 13.1736 22.3445 13.1898 22.5344 13.265C22.7875 13.3666 23.087 13.6022 23.3106 13.9312C23.5342 14.2603 23.6355 14.6097 23.6313 14.8737C23.627 15.1378 23.5511 15.278 23.4456 15.345C23.3402 15.412 23.1588 15.4303 22.9056 15.3287C22.6525 15.2272 22.353 14.9916 22.1294 14.6625C21.9058 14.3334 21.8045 13.9841 21.8088 13.72C21.813 13.4559 21.9058 13.3158 22.0113 13.2487C22.0387 13.2325 22.0619 13.2081 22.0956 13.2ZM16.3413 13.4762C16.3813 13.5148 16.4256 13.5473 16.4762 13.5738C16.4741 13.5819 16.4784 13.5819 16.4762 13.59C16.4277 13.7728 16.2991 14.047 16.0713 14.2887C15.8434 14.5305 15.565 14.697 15.3794 14.76C15.295 14.7884 15.2528 14.7905 15.2275 14.7925C15.2212 14.7864 15.217 14.7823 15.2106 14.7762C15.2085 14.7498 15.2085 14.7194 15.2275 14.6462C15.276 14.4634 15.4384 14.1892 15.6662 13.9475C15.8941 13.7058 16.1556 13.5392 16.3413 13.4762ZM33.4694 15.2312C32.9716 15.2312 32.5455 15.5156 32.2881 15.8812C32.0308 16.2469 31.9 16.6998 31.9 17.1975C31.9 17.6952 32.0308 18.1644 32.2881 18.53C32.5455 18.8956 32.9716 19.18 33.4694 19.18C33.9672 19.18 34.3764 18.8956 34.6338 18.53C34.8911 18.1644 35.0388 17.6952 35.0388 17.1975C35.0388 16.6998 34.8911 16.2469 34.6338 15.8812C34.3764 15.5156 33.9672 15.2312 33.4694 15.2312ZM33.4694 16.2712C33.5369 16.2712 33.6255 16.3037 33.7394 16.4662C33.8533 16.6287 33.9587 16.8908 33.9587 17.1975C33.9587 17.5042 33.8533 17.7825 33.7394 17.945C33.6255 18.1075 33.5369 18.14 33.4694 18.14C33.4019 18.14 33.2964 18.1075 33.1825 17.945C33.0686 17.7825 32.98 17.5042 32.98 17.1975C32.98 16.8908 33.0686 16.6287 33.1825 16.4662C33.2964 16.3037 33.4019 16.2712 33.4694 16.2712ZM16.7969 22.04H36.2031L32.4906 31.9688H30.3812L31.8831 24.7375C31.9211 24.5648 31.8662 24.3861 31.7376 24.2602C31.6068 24.1362 31.4212 24.0834 31.2419 24.12C31.0309 24.1687 30.8706 24.3353 30.8369 24.5425L29.3013 31.9688H27.04V24.64C27.0463 24.4897 26.983 24.3455 26.8713 24.2439C26.7573 24.1403 26.6034 24.0895 26.4494 24.1038C26.4262 24.1078 26.403 24.1139 26.3819 24.12C26.1309 24.1748 25.9537 24.3922 25.96 24.64V31.9688H23.6988L22.1631 24.5425C22.1378 24.4044 22.0555 24.2805 21.9353 24.1992C21.8151 24.12 21.6653 24.0916 21.5219 24.12C21.235 24.185 21.0536 24.4592 21.1169 24.7375L22.6187 31.9688H20.5094L16.7969 22.04Z" fill="#E90101" stroke="#E90101" stroke-width="10" mask="url(#path-3-inside-1_27818_707)"/>
</g>
<defs>
<clipPath id="clip0_27818_707">
<rect width="27" height="26" fill="white" transform="translate(13 8)"/>
</clipPath>
</defs>
</svg>
