<svg width="43" height="42" viewBox="0 0 43 42" fill="none" xmlns="http://www.w3.org/2000/svg">
<path d="M21.5 2C32.3142 2 41 10.5507 41 21C41 31.4493 32.3142 40 21.5 40C10.6858 40 2 31.4493 2 21C2 10.5507 10.6858 2 21.5 2Z" fill="white" stroke="#E90101" stroke-width="4"/>
<g clip-path="url(#clip0_27834_11)">
<mask id="path-2-inside-1_27834_11" fill="white">
<path d="M21.5 8C20.652 8 20.0066 8.52 19.6438 9.2025C16.8995 9.55391 13.9906 10.7137 11.7294 12.4362C11.6893 12.4281 11.6534 12.4078 11.6113 12.4037C11.3877 12.3834 11.1704 12.4159 10.97 12.485C10.5692 12.6211 10.2064 12.8953 9.87312 13.2487C9.53984 13.6022 9.28461 13.9739 9.18125 14.37C9.12219 14.5995 9.12641 14.8575 9.19813 15.1012C8.47039 16.2225 8 17.5347 8 18.92C8 19.763 8.21516 20.5105 8.64125 21.0812C9.06734 21.652 9.73391 22.04 10.4806 22.04H10.6494L14.615 32.6675C14.693 32.8727 14.8955 33.0087 15.1213 33.0087H18.0913C18.2115 33.0514 18.3423 33.0514 18.4625 33.0087H24.5544C24.6746 33.0514 24.8054 33.0514 24.9256 33.0087H27.8787C28.1045 33.0087 28.307 32.8727 28.385 32.6675L30.3762 27.3537L32.3675 22.04C33.1796 22.0237 33.8884 21.7312 34.3419 21.1787C34.808 20.61 35 19.8463 35 18.92C35 16.1961 32.7409 13.5758 29.7856 11.705C29.7477 11.5364 29.6907 11.3759 29.6 11.2337C29.3785 10.8844 29.0326 10.5817 28.6044 10.34C28.1762 10.0983 27.729 9.96625 27.305 9.95C27.054 9.94187 26.7903 9.99266 26.5625 10.1125C25.5036 9.71641 24.4236 9.40156 23.3563 9.2025C22.9934 8.52 22.348 8 21.5 8ZM21.5 9.04C22.0252 9.04 22.3923 9.33656 22.5463 9.82C22.6053 10.0048 22.7698 10.143 22.9681 10.1775C23.9637 10.3522 25.0058 10.6508 26.0225 11.0225C26.033 11.2662 26.1174 11.508 26.2419 11.705C26.4634 12.0544 26.8262 12.3408 27.2544 12.5825C27.6826 12.8242 28.096 12.9725 28.52 12.9887C28.8259 12.9989 29.1549 12.9237 29.4144 12.7287C32.0574 14.4716 33.92 16.8339 33.92 18.92C33.92 19.7102 33.747 20.2423 33.4981 20.545C33.2492 20.8477 32.9159 21 32.3 21H32.1988C32.1291 20.9756 32.0532 20.9634 31.9794 20.9675C31.9266 20.9716 31.876 20.9817 31.8275 21H10.4806C10.0946 21 9.78242 20.8314 9.51875 20.48C9.25508 20.1286 9.08 19.5842 9.08 18.92C9.08 17.8292 9.42383 16.7547 9.99125 15.8162C10.2402 15.8589 10.5017 15.8305 10.7338 15.7512C11.1345 15.6152 11.5311 15.3409 11.8644 14.9875C12.1977 14.6341 12.4191 14.2623 12.5225 13.8662C12.5816 13.6367 12.59 13.3747 12.5225 13.135C14.6593 11.5527 17.469 10.4578 19.9981 10.1775C20.2091 10.1552 20.3884 10.015 20.4537 9.82C20.6077 9.33656 20.9748 9.04 21.5 9.04ZM27.1869 11.0062C27.2143 11.0062 27.2227 11.0042 27.2712 11.0062C27.4674 11.0123 27.7712 11.0692 28.0644 11.2337C28.3576 11.3983 28.5685 11.6258 28.6719 11.7862C28.7225 11.8675 28.733 11.9122 28.7394 11.9325C28.712 11.9406 28.6592 11.9528 28.5706 11.9487C28.3745 11.9427 28.0876 11.8533 27.7944 11.6887C27.5012 11.5242 27.2902 11.313 27.1869 11.1525C27.1595 11.1098 27.151 11.0956 27.1363 11.0712C27.1552 11.0509 27.1721 11.0286 27.1869 11.0062ZM17.18 12.16C16.9184 12.1661 16.6548 12.223 16.4206 12.3712C15.9545 12.6658 15.7351 13.1939 15.7287 13.7037C15.7224 14.2136 15.9017 14.7437 16.235 15.2312C16.5683 15.7188 16.9965 16.0925 17.4838 16.2875C17.971 16.4825 18.5701 16.5008 19.0363 16.2062C19.5024 15.9117 19.7049 15.3998 19.7113 14.89C19.7176 14.3802 19.5383 13.85 19.205 13.3625C18.8717 12.875 18.4266 12.5012 17.9394 12.3062C17.6947 12.2087 17.4416 12.1539 17.18 12.16ZM17.0956 13.2C17.1969 13.1736 17.3445 13.1898 17.5344 13.265C17.7875 13.3666 18.087 13.6022 18.3106 13.9312C18.5342 14.2603 18.6355 14.6097 18.6313 14.8737C18.627 15.1378 18.5511 15.278 18.4456 15.345C18.3402 15.412 18.1588 15.4303 17.9056 15.3287C17.6525 15.2272 17.353 14.9916 17.1294 14.6625C16.9058 14.3334 16.8045 13.9841 16.8088 13.72C16.813 13.4559 16.9058 13.3158 17.0113 13.2487C17.0387 13.2325 17.0619 13.2081 17.0956 13.2ZM11.3413 13.4762C11.3813 13.5148 11.4256 13.5473 11.4762 13.5738C11.4741 13.5819 11.4784 13.5819 11.4762 13.59C11.4277 13.7728 11.2991 14.047 11.0713 14.2887C10.8434 14.5305 10.565 14.697 10.3794 14.76C10.295 14.7884 10.2528 14.7905 10.2275 14.7925C10.2212 14.7864 10.217 14.7823 10.2106 14.7762C10.2085 14.7498 10.2085 14.7194 10.2275 14.6462C10.276 14.4634 10.4384 14.1892 10.6662 13.9475C10.8941 13.7058 11.1556 13.5392 11.3413 13.4762ZM28.4694 15.2312C27.9716 15.2312 27.5455 15.5156 27.2881 15.8812C27.0308 16.2469 26.9 16.6998 26.9 17.1975C26.9 17.6952 27.0308 18.1644 27.2881 18.53C27.5455 18.8956 27.9716 19.18 28.4694 19.18C28.9672 19.18 29.3764 18.8956 29.6338 18.53C29.8911 18.1644 30.0388 17.6952 30.0388 17.1975C30.0388 16.6998 29.8911 16.2469 29.6338 15.8812C29.3764 15.5156 28.9672 15.2312 28.4694 15.2312ZM28.4694 16.2712C28.5369 16.2712 28.6255 16.3037 28.7394 16.4662C28.8533 16.6287 28.9587 16.8908 28.9587 17.1975C28.9587 17.5042 28.8533 17.7825 28.7394 17.945C28.6255 18.1075 28.5369 18.14 28.4694 18.14C28.4019 18.14 28.2964 18.1075 28.1825 17.945C28.0686 17.7825 27.98 17.5042 27.98 17.1975C27.98 16.8908 28.0686 16.6287 28.1825 16.4662C28.2964 16.3037 28.4019 16.2712 28.4694 16.2712ZM11.7969 22.04H31.2031L27.4906 31.9688H25.3812L26.8831 24.7375C26.9211 24.5648 26.8662 24.3861 26.7376 24.2602C26.6068 24.1362 26.4212 24.0834 26.2419 24.12C26.0309 24.1687 25.8706 24.3353 25.8369 24.5425L24.3013 31.9688H22.04V24.64C22.0463 24.4897 21.983 24.3455 21.8713 24.2439C21.7573 24.1403 21.6034 24.0895 21.4494 24.1038C21.4262 24.1078 21.403 24.1139 21.3819 24.12C21.1309 24.1748 20.9537 24.3922 20.96 24.64V31.9688H18.6988L17.1631 24.5425C17.1378 24.4044 17.0555 24.2805 16.9353 24.1992C16.8151 24.12 16.6653 24.0916 16.5219 24.12C16.235 24.185 16.0536 24.4592 16.1169 24.7375L17.6187 31.9688H15.5094L11.7969 22.04Z"/>
</mask>
<path d="M21.5 8C20.652 8 20.0066 8.52 19.6438 9.2025C16.8995 9.55391 13.9906 10.7137 11.7294 12.4362C11.6893 12.4281 11.6534 12.4078 11.6113 12.4037C11.3877 12.3834 11.1704 12.4159 10.97 12.485C10.5692 12.6211 10.2064 12.8953 9.87312 13.2487C9.53984 13.6022 9.28461 13.9739 9.18125 14.37C9.12219 14.5995 9.12641 14.8575 9.19813 15.1012C8.47039 16.2225 8 17.5347 8 18.92C8 19.763 8.21516 20.5105 8.64125 21.0812C9.06734 21.652 9.73391 22.04 10.4806 22.04H10.6494L14.615 32.6675C14.693 32.8727 14.8955 33.0087 15.1213 33.0087H18.0913C18.2115 33.0514 18.3423 33.0514 18.4625 33.0087H24.5544C24.6746 33.0514 24.8054 33.0514 24.9256 33.0087H27.8787C28.1045 33.0087 28.307 32.8727 28.385 32.6675L30.3762 27.3537L32.3675 22.04C33.1796 22.0237 33.8884 21.7312 34.3419 21.1787C34.808 20.61 35 19.8463 35 18.92C35 16.1961 32.7409 13.5758 29.7856 11.705C29.7477 11.5364 29.6907 11.3759 29.6 11.2337C29.3785 10.8844 29.0326 10.5817 28.6044 10.34C28.1762 10.0983 27.729 9.96625 27.305 9.95C27.054 9.94187 26.7903 9.99266 26.5625 10.1125C25.5036 9.71641 24.4236 9.40156 23.3563 9.2025C22.9934 8.52 22.348 8 21.5 8ZM21.5 9.04C22.0252 9.04 22.3923 9.33656 22.5463 9.82C22.6053 10.0048 22.7698 10.143 22.9681 10.1775C23.9637 10.3522 25.0058 10.6508 26.0225 11.0225C26.033 11.2662 26.1174 11.508 26.2419 11.705C26.4634 12.0544 26.8262 12.3408 27.2544 12.5825C27.6826 12.8242 28.096 12.9725 28.52 12.9887C28.8259 12.9989 29.1549 12.9237 29.4144 12.7287C32.0574 14.4716 33.92 16.8339 33.92 18.92C33.92 19.7102 33.747 20.2423 33.4981 20.545C33.2492 20.8477 32.9159 21 32.3 21H32.1988C32.1291 20.9756 32.0532 20.9634 31.9794 20.9675C31.9266 20.9716 31.876 20.9817 31.8275 21H10.4806C10.0946 21 9.78242 20.8314 9.51875 20.48C9.25508 20.1286 9.08 19.5842 9.08 18.92C9.08 17.8292 9.42383 16.7547 9.99125 15.8162C10.2402 15.8589 10.5017 15.8305 10.7338 15.7512C11.1345 15.6152 11.5311 15.3409 11.8644 14.9875C12.1977 14.6341 12.4191 14.2623 12.5225 13.8662C12.5816 13.6367 12.59 13.3747 12.5225 13.135C14.6593 11.5527 17.469 10.4578 19.9981 10.1775C20.2091 10.1552 20.3884 10.015 20.4537 9.82C20.6077 9.33656 20.9748 9.04 21.5 9.04ZM27.1869 11.0062C27.2143 11.0062 27.2227 11.0042 27.2712 11.0062C27.4674 11.0123 27.7712 11.0692 28.0644 11.2337C28.3576 11.3983 28.5685 11.6258 28.6719 11.7862C28.7225 11.8675 28.733 11.9122 28.7394 11.9325C28.712 11.9406 28.6592 11.9528 28.5706 11.9487C28.3745 11.9427 28.0876 11.8533 27.7944 11.6887C27.5012 11.5242 27.2902 11.313 27.1869 11.1525C27.1595 11.1098 27.151 11.0956 27.1363 11.0712C27.1552 11.0509 27.1721 11.0286 27.1869 11.0062ZM17.18 12.16C16.9184 12.1661 16.6548 12.223 16.4206 12.3712C15.9545 12.6658 15.7351 13.1939 15.7287 13.7037C15.7224 14.2136 15.9017 14.7437 16.235 15.2312C16.5683 15.7188 16.9965 16.0925 17.4838 16.2875C17.971 16.4825 18.5701 16.5008 19.0363 16.2062C19.5024 15.9117 19.7049 15.3998 19.7113 14.89C19.7176 14.3802 19.5383 13.85 19.205 13.3625C18.8717 12.875 18.4266 12.5012 17.9394 12.3062C17.6947 12.2087 17.4416 12.1539 17.18 12.16ZM17.0956 13.2C17.1969 13.1736 17.3445 13.1898 17.5344 13.265C17.7875 13.3666 18.087 13.6022 18.3106 13.9312C18.5342 14.2603 18.6355 14.6097 18.6313 14.8737C18.627 15.1378 18.5511 15.278 18.4456 15.345C18.3402 15.412 18.1588 15.4303 17.9056 15.3287C17.6525 15.2272 17.353 14.9916 17.1294 14.6625C16.9058 14.3334 16.8045 13.9841 16.8088 13.72C16.813 13.4559 16.9058 13.3158 17.0113 13.2487C17.0387 13.2325 17.0619 13.2081 17.0956 13.2ZM11.3413 13.4762C11.3813 13.5148 11.4256 13.5473 11.4762 13.5738C11.4741 13.5819 11.4784 13.5819 11.4762 13.59C11.4277 13.7728 11.2991 14.047 11.0713 14.2887C10.8434 14.5305 10.565 14.697 10.3794 14.76C10.295 14.7884 10.2528 14.7905 10.2275 14.7925C10.2212 14.7864 10.217 14.7823 10.2106 14.7762C10.2085 14.7498 10.2085 14.7194 10.2275 14.6462C10.276 14.4634 10.4384 14.1892 10.6662 13.9475C10.8941 13.7058 11.1556 13.5392 11.3413 13.4762ZM28.4694 15.2312C27.9716 15.2312 27.5455 15.5156 27.2881 15.8812C27.0308 16.2469 26.9 16.6998 26.9 17.1975C26.9 17.6952 27.0308 18.1644 27.2881 18.53C27.5455 18.8956 27.9716 19.18 28.4694 19.18C28.9672 19.18 29.3764 18.8956 29.6338 18.53C29.8911 18.1644 30.0388 17.6952 30.0388 17.1975C30.0388 16.6998 29.8911 16.2469 29.6338 15.8812C29.3764 15.5156 28.9672 15.2312 28.4694 15.2312ZM28.4694 16.2712C28.5369 16.2712 28.6255 16.3037 28.7394 16.4662C28.8533 16.6287 28.9587 16.8908 28.9587 17.1975C28.9587 17.5042 28.8533 17.7825 28.7394 17.945C28.6255 18.1075 28.5369 18.14 28.4694 18.14C28.4019 18.14 28.2964 18.1075 28.1825 17.945C28.0686 17.7825 27.98 17.5042 27.98 17.1975C27.98 16.8908 28.0686 16.6287 28.1825 16.4662C28.2964 16.3037 28.4019 16.2712 28.4694 16.2712ZM11.7969 22.04H31.2031L27.4906 31.9688H25.3812L26.8831 24.7375C26.9211 24.5648 26.8662 24.3861 26.7376 24.2602C26.6068 24.1362 26.4212 24.0834 26.2419 24.12C26.0309 24.1687 25.8706 24.3353 25.8369 24.5425L24.3013 31.9688H22.04V24.64C22.0463 24.4897 21.983 24.3455 21.8713 24.2439C21.7573 24.1403 21.6034 24.0895 21.4494 24.1038C21.4262 24.1078 21.403 24.1139 21.3819 24.12C21.1309 24.1748 20.9537 24.3922 20.96 24.64V31.9688H18.6988L17.1631 24.5425C17.1378 24.4044 17.0555 24.2805 16.9353 24.1992C16.8151 24.12 16.6653 24.0916 16.5219 24.12C16.235 24.185 16.0536 24.4592 16.1169 24.7375L17.6187 31.9688H15.5094L11.7969 22.04Z" fill="#E90101" stroke="#E90101" stroke-width="10" mask="url(#path-2-inside-1_27834_11)"/>
</g>
<defs>
<clipPath id="clip0_27834_11">
<rect width="27" height="26" fill="white" transform="translate(8 8)"/>
</clipPath>
</defs>
</svg>
