<svg width="64" height="64" viewBox="0 0 64 64" fill="none" xmlns="http://www.w3.org/2000/svg">
<circle cx="32" cy="32" r="32" fill="#740200"/>
<path d="M6.92932 40.6364H9.8233H54.3906H57.0917C58.2493 40.6364 59.021 40 59.021 39.0455C59.021 38.0909 58.2493 37.4545 57.0917 37.4545H55.1624C54.7765 28.3864 47.2521 20.9091 37.2197 18.8409C37.6055 18.2045 37.7985 17.5682 37.7985 16.7727C37.7985 14.0682 35.2903 12 32.0105 12C28.7307 12 26.2225 14.0682 26.2225 16.7727C26.2225 17.5682 26.4155 18.2045 26.8013 18.8409C16.7689 20.9091 9.24451 28.3864 8.85864 37.4545H6.92932C5.77173 37.4545 5 38.0909 5 39.0455C5 40 5.77173 40.6364 6.92932 40.6364Z" fill="#E90101"/>
<path d="M11.7526 43.8181L13.2961 46.2045C13.489 46.6818 14.2607 46.9999 15.0325 46.9999H49.1815C49.9532 46.9999 50.532 46.6818 50.9178 46.2045L52.4613 43.8181H11.7526Z" fill="#E90101"/>
</svg>
