<svg width="33" height="30" viewBox="0 0 33 30" fill="none" xmlns="http://www.w3.org/2000/svg">
<ellipse cx="16.8002" cy="15" rx="15.875" ry="15" fill="#740200"/>
<path d="M17.1638 8.13787C17.3589 8.13787 17.5166 7.98338 17.5166 7.79306C17.5166 7.60273 17.3589 7.44824 17.1638 7.44824H17.1602C16.9655 7.44824 16.8091 7.60273 16.8091 7.79306C16.8091 7.98338 16.969 8.13787 17.1638 8.13787Z" fill="#EEEEEE"/>
<path d="M14.3415 7.44842C14.5367 7.44842 14.6944 7.29393 14.6944 7.1036C14.6944 6.91327 14.5367 6.75879 14.3415 6.75879H14.338C14.1433 6.75879 13.9869 6.91327 13.9869 7.1036C13.9869 7.29393 14.1468 7.44842 14.3415 7.44842Z" fill="#EEEEEE"/>
<path d="M19.2805 6.75848C19.4756 6.75848 19.6333 6.60399 19.6333 6.41366C19.6333 6.22333 19.4756 6.06885 19.2805 6.06885H19.277C19.0822 6.06885 18.9259 6.22333 18.9259 6.41366C18.9259 6.60399 19.0858 6.75848 19.2805 6.75848Z" fill="#EEEEEE"/>
<path d="M22.1025 7.44842C22.2976 7.44842 22.4553 7.29393 22.4553 7.1036C22.4553 6.91327 22.2976 6.75879 22.1025 6.75879H22.099C21.9042 6.75879 21.7479 6.91327 21.7479 7.1036C21.7479 7.29393 21.9077 7.44842 22.1025 7.44842Z" fill="#EEEEEE"/>
<path d="M20.6917 8.13787C20.8868 8.13787 21.0445 7.98338 21.0445 7.79306C21.0445 7.60273 20.8868 7.44824 20.6917 7.44824H20.6882C20.4934 7.44824 20.3371 7.60273 20.3371 7.79306C20.3371 7.98338 20.4969 8.13787 20.6917 8.13787Z" fill="#EEEEEE"/>
<path d="M16.4582 6.06878C16.6534 6.06878 16.8111 5.91429 16.8111 5.72396C16.8111 5.53364 16.6534 5.37915 16.4582 5.37915H16.4547C16.26 5.37915 16.1036 5.53364 16.1036 5.72396C16.1036 5.91429 16.2635 6.06878 16.4582 6.06878Z" fill="#EEEEEE"/>
<path d="M25.6194 20.5518H7.98063C7.39715 20.5518 6.9223 21.0159 6.9223 21.5862V22.2759C6.9223 23.2266 7.71357 24.0001 8.6862 24.0001H24.9139C25.8865 24.0001 26.6778 23.2266 26.6778 22.2759V21.5862C26.6778 21.0159 26.2033 20.5518 25.6194 20.5518ZM25.9722 22.2759C25.9722 22.8462 25.4978 23.3104 24.9139 23.3104H8.68616C8.10267 23.3104 7.62783 22.8462 7.62783 22.2759V21.5862C7.62783 21.3962 7.78621 21.2414 7.98059 21.2414H25.6194C25.8138 21.2414 25.9722 21.3962 25.9722 21.5862V22.2759H25.9722Z" fill="#EEEEEE"/>
<path d="M7.87692 19.7613C8.04588 19.5975 8.58389 19.1723 9.03897 19.1723C9.23724 19.1723 9.32224 19.2472 9.49513 19.4161C9.68773 19.6044 9.95128 19.862 10.4501 19.862C10.9489 19.862 11.2128 19.6044 11.4051 19.4161C11.5779 19.2472 11.663 19.1723 11.8612 19.1723C12.0595 19.1723 12.1445 19.2472 12.3174 19.4161C12.51 19.6044 12.7736 19.862 13.2724 19.862C13.7712 19.862 14.0351 19.6044 14.2273 19.4161C14.4002 19.2472 14.4852 19.1723 14.6835 19.1723C14.8818 19.1723 14.9668 19.2472 15.1397 19.4161C15.3323 19.6044 15.5958 19.862 16.0946 19.862C16.5935 19.862 16.8573 19.6044 17.0496 19.4161C17.2225 19.2472 17.3075 19.1723 17.5058 19.1723C17.704 19.1723 17.789 19.2472 17.9619 19.4161C18.1545 19.6044 18.4181 19.862 18.9169 19.862C19.4157 19.862 19.6796 19.6044 19.8719 19.4161C20.0447 19.2472 20.1298 19.1723 20.328 19.1723C20.5263 19.1723 20.6113 19.2472 20.7842 19.4161C20.9768 19.6044 21.2404 19.862 21.7392 19.862C22.238 19.862 22.5019 19.6044 22.6942 19.4161C22.867 19.2472 22.952 19.1723 23.1503 19.1723C23.3486 19.1723 23.4336 19.2472 23.6065 19.4161C23.7991 19.6044 24.0626 19.862 24.5614 19.862C25.3894 19.862 26.1394 19.1523 26.2219 19.0713C26.3595 18.9368 26.3595 18.7192 26.2223 18.5844C26.0851 18.4496 25.8614 18.4489 25.7238 18.5834C25.5545 18.7471 25.0162 19.1723 24.5611 19.1723C24.3628 19.1723 24.2778 19.0975 24.105 18.9285C23.9127 18.7403 23.6488 18.4827 23.15 18.4827C22.6512 18.4827 22.3876 18.7402 22.195 18.9285C22.0222 19.0975 21.9371 19.1723 21.7388 19.1723C21.5406 19.1723 21.4556 19.0975 21.2827 18.9285C21.0904 18.7403 20.8265 18.4827 20.3277 18.4827C19.8289 18.4827 19.5653 18.7402 19.3727 18.9285C19.1999 19.0975 19.1148 19.1723 18.9166 19.1723C18.7183 19.1723 18.6333 19.0975 18.4604 18.9285C18.2681 18.7403 18.0043 18.4827 17.5054 18.4827C17.0066 18.4827 16.7431 18.7402 16.5505 18.9285C16.3776 19.0975 16.2926 19.1723 16.0943 19.1723C15.896 19.1723 15.811 19.0975 15.6382 18.9285C15.4459 18.7403 15.182 18.4827 14.6832 18.4827C14.1844 18.4827 13.9208 18.7402 13.7282 18.9285C13.5554 19.0975 13.4703 19.1723 13.272 19.1723C13.0738 19.1723 12.9888 19.0975 12.8159 18.9285C12.6236 18.7403 12.3597 18.4827 11.8609 18.4827C11.3621 18.4827 11.0986 18.7402 10.9059 18.9285C10.7331 19.0975 10.648 19.1723 10.4498 19.1723C10.2515 19.1723 10.1665 19.0975 9.99362 18.9285C9.80134 18.7403 9.53746 18.4827 9.03864 18.4827C8.21103 18.4827 7.46102 19.1923 7.37814 19.2734C7.24055 19.4078 7.24055 19.6254 7.37776 19.7603C7.51531 19.8947 7.73863 19.8954 7.87692 19.7613Z" fill="#EEEEEE"/>
<path d="M26.3252 15.0344H15.3891C15.1944 15.0344 15.0364 15.1889 15.0364 15.3792C15.0364 15.5696 15.1944 15.7241 15.3891 15.7241H26.3252C26.5196 15.7241 26.678 15.8789 26.678 16.0689V16.7585C26.678 16.9485 26.5196 17.1033 26.3252 17.1033H7.27525C7.08086 17.1033 6.92249 16.9485 6.92249 16.7585V16.0689C6.92249 15.8789 7.08086 15.7241 7.27525 15.7241H10.4502C10.645 15.7241 10.803 15.5696 10.803 15.3793C10.803 15.1889 10.645 15.0345 10.4502 15.0345H7.27525C6.69176 15.0344 6.21692 15.4986 6.21692 16.0689V16.7586C6.21692 17.3289 6.69176 17.7931 7.27525 17.7931H26.3252C26.909 17.7931 27.3835 17.3289 27.3835 16.7586V16.0689C27.3835 15.4986 26.909 15.0344 26.3252 15.0344Z" fill="#EEEEEE"/>
<path d="M15.0363 13.655C14.9428 13.655 14.8532 13.6912 14.7869 13.7561L12.9197 15.5812L11.0524 13.7561C10.9864 13.6912 10.8965 13.655 10.803 13.655H7.98081C7.7861 13.655 7.62805 13.8095 7.62805 13.9998C7.62805 14.1902 7.7861 14.3447 7.98081 14.3447H10.657L12.6703 16.3126C12.7391 16.3798 12.8294 16.4136 12.9197 16.4136C13.01 16.4136 13.1003 16.3798 13.1691 16.3126L15.1824 14.3447H25.6197C25.8144 14.3447 25.9724 14.1902 25.9724 13.9998C25.9724 13.8095 25.8144 13.655 25.6197 13.655H15.0363Z" fill="#EEEEEE"/>
<path d="M12.2247 6.75848C12.4199 6.75848 12.5776 6.60399 12.5776 6.41366C12.5776 6.22333 12.4199 6.06885 12.2247 6.06885H12.2212C12.0265 6.06885 11.8701 6.22333 11.8701 6.41366C11.8701 6.60399 12.0299 6.75848 12.2247 6.75848Z" fill="#EEEEEE"/>
<path d="M7.98066 12.9655H25.6195C26.2326 12.9655 26.6778 12.5303 26.6764 11.9621C26.6877 11.8431 26.9234 9.01966 24.7954 6.74206C23.0954 4.92243 20.4055 4 16.8001 4C13.1947 4 10.5048 4.92243 8.80509 6.74206C6.67714 9.01966 6.91278 11.8431 6.92233 11.931C6.92233 12.5303 7.36754 12.9655 7.98066 12.9655ZM9.32578 7.20689C10.8865 5.53657 13.4011 4.68967 16.8001 4.68967C20.1938 4.68967 22.7063 5.53414 24.2677 7.19966C26.1871 9.24761 25.9762 11.8741 25.9723 11.931C25.9723 12.1535 25.8471 12.2759 25.6195 12.2759H7.98066C7.75631 12.2759 7.6279 12.1503 7.62645 11.9C7.62397 11.8735 7.40561 9.26244 9.32578 7.20689Z" fill="#EEEEEE"/>
</svg>
