<svg width="64" height="64" viewBox="0 0 64 64" fill="none" xmlns="http://www.w3.org/2000/svg">
<circle cx="32" cy="32" r="32" fill="#740200"/>
<path d="M23.3106 31.1666C23.3662 31.1745 23.4218 31.1782 23.4765 31.1782C23.8807 31.1782 24.2414 30.972 24.3216 30.6749C24.5533 29.8164 25.044 29.023 25.7799 28.3166L26.6804 27.4523C26.8239 27.3145 26.8819 27.1398 26.8404 26.97L26.0112 23.581C25.9283 23.2426 25.4815 23.0164 25.0124 23.0764C24.5436 23.1363 24.2307 23.4591 24.3134 23.7975L25.0774 26.9202L24.4022 27.5685C23.508 28.4267 22.9115 29.3918 22.6296 30.4367C22.5383 30.7741 22.8434 31.1009 23.3106 31.1666Z" fill="#E90101"/>
<path d="M32.214 38.8508C32.69 38.8508 33.076 38.5722 33.076 38.2284C33.076 37.8846 32.69 37.6061 32.214 37.6061C28.4126 37.6061 25.0995 35.656 24.336 32.9693C24.2402 32.6326 23.7845 32.4158 23.3183 32.4847C22.8519 32.5537 22.5514 32.8827 22.6471 33.2194C23.5744 36.4825 27.5978 38.8508 32.214 38.8508Z" fill="#E90101"/>
<path d="M43.3758 48.7553H41.8201C39.4968 47.1105 36.3663 46.1159 33.0759 45.9672V41.3193C39.9618 40.9976 45.4278 36.8515 45.4278 31.8004C45.4278 29.8071 44.5912 27.9091 43.0046 26.2935L45.4147 16.4461C45.459 16.2649 45.3901 16.0789 45.2262 15.9379C45.0624 15.797 44.8205 15.7155 44.5657 15.7155H33.0759V13.6968C33.0759 12.8961 33.9783 12.2447 35.0873 12.2447H43.7214C44.1975 12.2447 44.5834 11.9661 44.5834 11.6223C44.5834 11.2786 44.1975 11 43.7214 11H35.0873C33.0277 11 31.3519 12.2097 31.3519 13.6968V15.7155H19.862C19.6072 15.7155 19.3654 15.7969 19.2016 15.9379C19.0378 16.0789 18.9689 16.2649 19.0131 16.4461L21.4231 26.2935C19.8365 27.9092 19 29.8073 19 31.8004C19 36.8514 24.466 40.9975 31.352 41.3193V45.9672C28.0616 46.1159 24.9311 47.1105 22.6078 48.7553H21.0521C20.576 48.7553 20.1901 49.0339 20.1901 49.3777C20.1901 49.7214 20.576 50 21.0521 50H43.3759C43.852 50 44.2379 49.7214 44.2379 49.3777C44.2379 49.0339 43.8518 48.7553 43.3758 48.7553ZM32.2139 47.1915C34.7072 47.1915 37.1313 47.7495 39.1271 48.7553H25.3007C27.2965 47.7495 29.7206 47.1915 32.2139 47.1915ZM23.0248 26.8202C23.1684 26.6824 23.2263 26.5076 23.1848 26.3379L21.9274 21.1998L20.8898 16.9601H31.3519V20.5777H24.5002C24.0242 20.5777 23.6382 20.8561 23.6381 21.1998C23.6381 21.5438 24.0241 21.8223 24.5002 21.8223H42.3481L41.243 26.3379C41.2015 26.5077 41.2594 26.6823 41.403 26.8202C42.9082 28.2652 43.7038 29.9874 43.7038 31.8004C43.7038 36.3743 38.5495 40.0954 32.214 40.0954C25.8785 40.0954 20.7241 36.3743 20.7241 31.8004C20.724 29.9874 21.5196 28.2654 23.0248 26.8202ZM42.6527 20.5777H33.0759V16.9602H43.5381L42.6527 20.5777Z" fill="#E90101"/>
</svg>
