<svg width="33" height="30" viewBox="0 0 33 30" fill="none" xmlns="http://www.w3.org/2000/svg">
<ellipse cx="16.8002" cy="15" rx="15.875" ry="15" fill="#740200"/>
<path d="M11.6097 14.3209C11.6434 14.3245 11.677 14.3263 11.7101 14.3263C11.9549 14.3263 12.1732 14.2309 12.2218 14.0936C12.3621 13.6968 12.6592 13.3301 13.1047 13.0036L13.6499 12.6041C13.7368 12.5404 13.7718 12.4597 13.7467 12.3812L13.2447 10.8148C13.1946 10.6584 12.924 10.5538 12.64 10.5816C12.3562 10.6093 12.1668 10.7585 12.2169 10.9149L12.6794 12.3582L12.2706 12.6578C11.7292 13.0545 11.3681 13.5006 11.1974 13.9835C11.1422 14.1395 11.3269 14.2905 11.6097 14.3209Z" fill="white"/>
<path d="M17 17.8724C17.2883 17.8724 17.5219 17.7436 17.5219 17.5847C17.5219 17.4258 17.2883 17.2971 17 17.2971C14.6986 17.2971 12.6928 16.3957 12.2305 15.154C12.1726 14.9983 11.8966 14.8981 11.6144 14.93C11.332 14.9619 11.1501 15.1139 11.208 15.2696C11.7694 16.7777 14.2053 17.8724 17 17.8724Z" fill="white"/>
<path d="M23.7576 22.4504H22.8158C21.4092 21.6902 19.5139 21.2305 17.5219 21.1618V19.0135C21.6907 18.8648 25 16.9485 25 14.6139C25 13.6926 24.4935 12.8153 23.5329 12.0686L24.992 7.5172C25.0189 7.43344 24.9771 7.34745 24.8779 7.28229C24.7787 7.21716 24.6323 7.1795 24.4781 7.1795H17.5219V6.24646C17.5219 5.8764 18.0682 5.57529 18.7396 5.57529H23.9669C24.2551 5.57529 24.4888 5.44654 24.4888 5.28764C24.4888 5.12875 24.2551 5 23.9669 5H18.7396C17.4927 5 16.4781 5.55914 16.4781 6.24646V7.1795H9.5219C9.36763 7.1795 9.22122 7.21713 9.12206 7.28229C9.0229 7.34745 8.98115 7.43344 9.00794 7.5172L10.467 12.0686C9.50645 12.8154 9.00001 13.6927 9.00001 14.6139C9.00001 16.9485 12.3092 18.8648 16.4782 19.0135V21.1618C14.4861 21.2305 12.5908 21.6902 11.1842 22.4504H10.2424C9.95417 22.4504 9.7205 22.5792 9.7205 22.7381C9.7205 22.897 9.95417 23.0257 10.2424 23.0257H23.7577C24.0459 23.0257 24.2796 22.897 24.2796 22.7381C24.2796 22.5792 24.0459 22.4504 23.7576 22.4504ZM17 21.7276C18.5095 21.7276 19.9771 21.9856 21.1854 22.4504H12.8146C14.0229 21.9856 15.4905 21.7276 17 21.7276ZM11.4367 12.3121C11.5236 12.2484 11.5587 12.1676 11.5336 12.0891L10.7723 9.71434L10.1441 7.75475H16.4781V9.42677H12.3299C12.0418 9.42677 11.8081 9.55549 11.808 9.71434C11.808 9.87331 12.0417 10.0021 12.3299 10.0021H23.1355L22.4664 12.0891C22.4413 12.1676 22.4763 12.2483 22.5633 12.3121C23.4746 12.98 23.9562 13.7759 23.9562 14.6139C23.9562 16.728 20.8357 18.4478 17.0001 18.4478C13.1644 18.4478 10.0438 16.728 10.0438 14.6139C10.0437 13.776 10.5254 12.98 11.4367 12.3121ZM23.3199 9.42681H17.5219V7.75479H23.8559L23.3199 9.42681Z" fill="white"/>
</svg>
