<svg width="39" height="39" viewBox="0 0 39 39" fill="none" xmlns="http://www.w3.org/2000/svg">
<g clip-path="url(#clip0_27816_142)">
<circle cx="19.5" cy="19.5" r="19.5" fill="#740200"/>
<path d="M10.0532 21.4787L18.7533 30.4837C19.053 30.7938 19.2028 30.9489 19.3795 30.9871C19.4591 31.0043 19.5409 31.0043 19.6205 30.9871C19.7972 30.9489 19.947 30.7938 20.2467 30.4837L28.9468 21.4787C31.3946 18.9452 31.6918 14.7759 29.6331 11.8522L29.2461 11.3025C26.7832 7.80495 21.8395 8.39151 20.109 12.3866C19.8645 12.9509 19.1355 12.9509 18.891 12.3866C17.1605 8.39151 12.2169 7.80495 9.754 11.3025L9.3669 11.8522C7.30814 14.7759 7.6054 18.9452 10.0532 21.4787Z" fill="white"/>
</g>
<defs>
<clipPath id="clip0_27816_142">
<rect width="39" height="39" fill="white"/>
</clipPath>
</defs>
</svg>
