<svg width="43" height="61" viewBox="0 0 43 61" fill="none" xmlns="http://www.w3.org/2000/svg">
<path d="M6.4891 58.15C5.47577 58.15 4.69577 57.84 4.1491 57.22C3.60243 56.6 3.3291 55.7233 3.3291 54.59C3.3291 53.87 3.4591 53.25 3.7191 52.73C3.98577 52.2033 4.3691 51.8033 4.8691 51.53C5.3691 51.25 5.96244 51.11 6.6491 51.11C7.4291 51.11 8.23244 51.2867 9.0591 51.64C8.9991 52.24 8.90244 52.9033 8.7691 53.63L8.0091 53.68L7.3191 52.67C7.02577 52.5833 6.70244 52.54 6.3491 52.54C6.08243 52.54 5.8291 52.5633 5.5891 52.61C5.48244 52.8167 5.39577 53.09 5.3291 53.43C5.26243 53.77 5.2291 54.1133 5.2291 54.46C5.2291 55.2 5.36244 55.75 5.6291 56.11C5.90244 56.4633 6.33243 56.6467 6.9191 56.66C7.15244 56.66 7.44577 56.6267 7.7991 56.56C8.1591 56.4867 8.5091 56.3933 8.8491 56.28L9.1591 57.38C8.81244 57.6067 8.39244 57.7933 7.8991 57.94C7.41244 58.08 6.94244 58.15 6.4891 58.15ZM11.3221 58.13C10.8687 58.13 10.5054 58.0067 10.2321 57.76C9.95874 57.5067 9.82207 57.1833 9.82207 56.79C9.82207 56.2633 10.0854 55.85 10.6121 55.55C11.1454 55.25 11.9187 55.08 12.9321 55.04C12.9321 54.7267 12.9054 54.4967 12.8521 54.35C12.8054 54.1967 12.7154 54.0933 12.5821 54.04C12.4554 53.98 12.2587 53.95 11.9921 53.95C11.7187 53.95 11.5254 53.96 11.4121 53.98L11.0021 54.79L10.2621 54.74C10.1487 54.2067 10.0687 53.6533 10.0221 53.08C10.3954 52.9533 10.8021 52.8533 11.2421 52.78C11.6887 52.7067 12.1054 52.67 12.4921 52.67C13.1987 52.67 13.7054 52.81 14.0121 53.09C14.3187 53.3633 14.4721 53.82 14.4721 54.46V56.55C14.4721 56.67 14.4821 56.7533 14.5021 56.8C14.5287 56.8467 14.5821 56.8933 14.6621 56.94L15.0621 57.17L15.0221 57.79C14.2487 57.97 13.6387 58.07 13.1921 58.09C13.1787 58.05 13.1587 57.98 13.1321 57.88C13.1054 57.7733 13.0821 57.6733 13.0621 57.58C12.8021 57.7467 12.5154 57.88 12.2021 57.98C11.8954 58.08 11.6021 58.13 11.3221 58.13ZM11.9921 57C12.2587 57 12.5821 56.91 12.9621 56.73L12.9221 55.97C12.7621 55.9567 12.6554 55.95 12.6021 55.95C12.4221 55.95 12.2121 55.97 11.9721 56.01C11.7321 56.0433 11.5421 56.0833 11.4021 56.13C11.3821 56.2167 11.3721 56.2967 11.3721 56.37C11.3721 56.57 11.4254 56.7267 11.5321 56.84C11.6454 56.9467 11.7987 57 11.9921 57ZM15.2075 59.2L15.8275 59.03V54.44C15.8275 54.2933 15.8175 54.2 15.7975 54.16C15.7775 54.1133 15.7209 54.0633 15.6275 54.01L15.1775 53.77L15.2275 53.02C15.2609 53.0133 15.2942 53.0067 15.3275 53C15.3609 52.9933 15.3975 52.9867 15.4375 52.98C15.7509 52.92 16.0809 52.8633 16.4275 52.81C16.7809 52.75 17.0709 52.7133 17.2975 52.7C17.3575 52.84 17.3975 53 17.4175 53.18C17.6242 53.0133 17.8442 52.8867 18.0775 52.8C18.3175 52.7133 18.5542 52.67 18.7875 52.67C19.4542 52.67 19.9642 52.9067 20.3175 53.38C20.6775 53.8467 20.8575 54.5133 20.8575 55.38C20.8575 56.28 20.6109 56.97 20.1175 57.45C19.6242 57.9233 18.9109 58.16 17.9775 58.16C17.8775 58.16 17.7209 58.1533 17.5075 58.14V58.69C17.5075 58.8367 17.5175 58.9333 17.5375 58.98C17.5575 59.0267 17.6142 59.0733 17.7075 59.12L18.2975 59.45L18.2575 60.15H15.2575L15.2075 59.2ZM18.2375 56.92C18.5509 56.92 18.8042 56.8767 18.9975 56.79C19.0509 56.6233 19.0942 56.4233 19.1275 56.19C19.1675 55.95 19.1875 55.7267 19.1875 55.52C19.1875 55.0067 19.0975 54.61 18.9175 54.33C18.7442 54.05 18.5009 53.91 18.1875 53.91C17.9942 53.91 17.7675 53.9667 17.5075 54.08V56.8C17.7009 56.88 17.9442 56.92 18.2375 56.92ZM21.3276 57.05L21.9376 56.87V54.44C21.9376 54.2933 21.9276 54.2 21.9076 54.16C21.8876 54.1133 21.8343 54.0633 21.7476 54.01L21.3076 53.77L21.3376 53.02C21.451 52.9933 21.5476 52.9767 21.6276 52.97C22.4343 52.8033 23.031 52.7133 23.4176 52.7C23.4776 52.8733 23.5343 53.09 23.5876 53.35C23.9876 53.0367 24.3276 52.82 24.6076 52.7H25.1776C25.171 52.9533 25.1543 53.23 25.1276 53.53C25.101 53.8233 25.0676 54.06 25.0276 54.24C24.7876 54.2267 24.611 54.22 24.4976 54.22C24.2176 54.22 23.9276 54.2367 23.6276 54.27V56.54C23.6276 56.68 23.6376 56.7733 23.6576 56.82C23.6776 56.8667 23.731 56.9167 23.8176 56.97L24.4176 57.29L24.3776 58H21.3776L21.3276 57.05ZM25.9854 50.6L27.6854 50.15L28.0954 51.67L26.4054 52.13L25.9854 50.6ZM25.5654 57.08L26.2654 56.87V54.44C26.2654 54.2933 26.2521 54.2 26.2254 54.16C26.2054 54.1133 26.1488 54.0633 26.0554 54.01L25.6154 53.77L25.6654 53.02C26.2188 52.9133 26.6454 52.8367 26.9454 52.79C27.2521 52.7367 27.5321 52.7067 27.7854 52.7C27.8721 52.9867 27.9254 53.2 27.9454 53.34V56.54C27.9454 56.68 27.9554 56.7733 27.9754 56.82C27.9954 56.8667 28.0521 56.9167 28.1454 56.97L28.6354 57.25L28.5954 58H25.5954L25.5654 57.08ZM29.0422 57.04L29.6622 56.86V54.44C29.6622 54.2933 29.6522 54.2 29.6322 54.16C29.6122 54.1133 29.5589 54.0633 29.4722 54.01L29.0322 53.77L29.0622 53.02L29.2822 52.98C30.1556 52.8067 30.7856 52.7133 31.1722 52.7C31.2256 52.84 31.2689 52.9933 31.3022 53.16C31.7089 52.9733 32.0389 52.8467 32.2922 52.78C32.5522 52.7067 32.7956 52.67 33.0222 52.67C34.0822 52.67 34.6122 53.3033 34.6122 54.57V56.53C34.6122 56.67 34.6222 56.7633 34.6422 56.81C34.6622 56.8567 34.7189 56.9067 34.8122 56.96L35.2922 57.24L35.2522 57.99H32.4922L32.4422 57.04L32.9322 56.9V55.01C32.9322 54.71 32.9222 54.5 32.9022 54.38C32.8822 54.26 32.8256 54.1667 32.7322 54.1C32.6456 54.0333 32.4889 54 32.2622 54C32.0222 54 31.7189 54.0367 31.3522 54.11V56.53C31.3522 56.67 31.3622 56.7633 31.3822 56.81C31.4022 56.8567 31.4556 56.9067 31.5422 56.96L32.0322 57.24L31.9922 57.99H29.0922L29.0422 57.04ZM37.0838 58.13C36.6305 58.13 36.2671 58.0067 35.9938 57.76C35.7205 57.5067 35.5838 57.1833 35.5838 56.79C35.5838 56.2633 35.8471 55.85 36.3738 55.55C36.9071 55.25 37.6805 55.08 38.6938 55.04C38.6938 54.7267 38.6671 54.4967 38.6138 54.35C38.5671 54.1967 38.4771 54.0933 38.3438 54.04C38.2171 53.98 38.0205 53.95 37.7538 53.95C37.4805 53.95 37.2871 53.96 37.1738 53.98L36.7638 54.79L36.0238 54.74C35.9105 54.2067 35.8305 53.6533 35.7838 53.08C36.1571 52.9533 36.5638 52.8533 37.0038 52.78C37.4505 52.7067 37.8671 52.67 38.2538 52.67C38.9605 52.67 39.4671 52.81 39.7738 53.09C40.0805 53.3633 40.2338 53.82 40.2338 54.46V56.55C40.2338 56.67 40.2438 56.7533 40.2638 56.8C40.2905 56.8467 40.3438 56.8933 40.4238 56.94L40.8238 57.17L40.7838 57.79C40.0105 57.97 39.4005 58.07 38.9538 58.09C38.9405 58.05 38.9205 57.98 38.8938 57.88C38.8671 57.7733 38.8438 57.6733 38.8238 57.58C38.5638 57.7467 38.2771 57.88 37.9638 57.98C37.6571 58.08 37.3638 58.13 37.0838 58.13ZM37.7538 57C38.0205 57 38.3438 56.91 38.7238 56.73L38.6838 55.97C38.5238 55.9567 38.4171 55.95 38.3638 55.95C38.1838 55.95 37.9738 55.97 37.7338 56.01C37.4938 56.0433 37.3038 56.0833 37.1638 56.13C37.1438 56.2167 37.1338 56.2967 37.1338 56.37C37.1338 56.57 37.1871 56.7267 37.2938 56.84C37.4071 56.9467 37.5605 57 37.7538 57Z" fill="#E70001"/>
<path d="M21.6338 2C31.9689 2 40.3926 10.4988 40.3926 21.0391C40.3925 31.5793 31.9688 40.0781 21.6338 40.0781C11.2988 40.078 2.87505 31.5792 2.875 21.0391C2.875 10.4988 11.2988 2.00008 21.6338 2Z" fill="white" stroke="#E90101" stroke-width="4"/>
<g clip-path="url(#clip0_27818_687)">
<path d="M21.9501 14.2913C14.6547 14.2913 16.6528 21.7016 16.9026 22.5581C17.1524 23.4147 19.4013 29.9254 22.1498 29.9254C24.8978 29.9254 26.5969 24.3142 27.0965 22.6446C30.3948 13.6919 21.9501 14.2913 21.9501 14.2913ZM19.4647 20.0092C19.0379 20.0092 18.6907 19.7112 18.6907 19.3457C18.6907 18.9799 19.0379 18.6823 19.4647 18.6823C19.8916 18.6823 20.2392 18.9799 20.2392 19.3457C20.2397 19.7112 19.8921 20.0092 19.4647 20.0092ZM21.7323 28.6579C21.6964 28.6845 21.6506 28.6997 21.6049 28.6997C21.5724 28.6997 21.539 28.6917 21.51 28.6773C21.029 28.4438 20.4945 28.0408 20.4596 27.7078C20.4468 27.586 20.4989 27.476 20.6071 27.3997C20.6651 27.3575 20.735 27.3365 20.8082 27.3365C21.1731 27.3365 21.5405 27.954 21.7844 28.4716C21.8149 28.5365 21.7942 28.6116 21.7323 28.6579ZM22.8186 28.6508C22.7886 28.6647 22.7561 28.6723 22.7242 28.6723C22.6775 28.6723 22.6327 28.6584 22.5963 28.6301C22.5343 28.5846 22.5137 28.5091 22.5447 28.4442C22.7886 27.9262 23.1559 27.3091 23.5203 27.3091C23.5936 27.3091 23.6635 27.3306 23.722 27.3723C23.8297 27.4499 23.8823 27.559 23.869 27.6817C23.8341 28.0151 23.3005 28.4172 22.8186 28.6508ZM24.7985 20.0231C24.3716 20.0231 24.0244 19.7251 24.0244 19.3597C24.0244 18.9938 24.3716 18.6962 24.7985 18.6962C25.2253 18.6962 25.572 18.9938 25.572 19.3597C25.572 19.7255 25.2253 20.0231 24.7985 20.0231Z" fill="#E90101"/>
<path d="M24.4641 29.7817C23.7948 30.3668 23.0281 30.7208 22.1498 30.7208C21.2892 30.7208 20.4685 30.3461 19.6738 29.5861C19.3113 29.2392 19.0826 29.3012 19.1515 29.7632C19.2985 30.7466 19.5734 31.2473 19.9152 31.6145C20.254 31.9782 20.4758 31.9504 20.4734 31.6056C20.4704 31.2608 20.7094 31.386 20.8924 31.824C21.0492 32.2 21.2455 32.4668 21.4732 32.7138C21.8095 33.0792 22.4601 33.1083 22.7626 32.7214C23.0075 32.4086 23.1914 32.0727 23.3242 31.781C23.5204 31.3468 23.6655 31.2321 23.6866 31.5525C23.7068 31.8724 24.0495 31.9007 24.3579 31.5184C24.7429 31.0412 24.9323 30.5017 25.0218 29.9764C25.0995 29.514 24.8447 29.4495 24.4641 29.7817Z" fill="#E90101"/>
<path d="M15.8345 15.2773C14.0011 15.0492 13.1022 16.9056 13.0092 17.494C12.8499 18.0842 12.6345 18.4661 12.2042 18.923C11.8634 19.2851 11.9785 19.6573 12.5219 19.6421C13.4425 19.6164 14.2573 19.283 14.8558 18.9276C15.3024 18.6625 15.653 18.0108 15.773 17.5564C15.8881 17.1189 16.0503 16.6885 16.2731 16.2801C16.5038 15.8585 16.372 15.3439 15.8345 15.2773Z" fill="#E90101"/>
<path d="M31.223 17.494C31.1305 16.9191 30.2699 15.134 28.5202 15.2646C27.9793 15.3051 27.5917 15.5121 27.6065 15.5272C27.6148 15.5361 27.6222 15.5449 27.6311 15.5546C28.145 16.1557 28.4872 16.8643 28.6589 17.6761C28.7553 18.1343 29.0931 18.7776 29.551 19.0279C30.1288 19.3432 30.8753 19.6189 31.7098 19.6421C32.2527 19.6573 32.3683 19.2851 32.0275 18.923C31.5962 18.4661 31.3813 18.0846 31.223 17.494Z" fill="#E90101"/>
<path d="M16.3076 13.3315L16.8613 14.215C17.119 14.6256 17.6083 14.6994 18.0174 14.4473C18.4271 14.1952 18.5948 13.7155 18.3351 13.3067C17.8925 12.6086 17.3472 11.7715 17.1913 11.6256C16.9169 11.3685 11.3067 8.72348 11.0072 9.02361C10.782 9.24912 13.6299 11.1523 15.056 12.0817C15.4883 12.3637 16.0504 12.9214 16.3076 13.3315Z" fill="#E90101"/>
<path d="M32.9929 9.02361C32.6934 8.72348 27.0838 11.3685 26.8093 11.6256C26.6584 11.766 26.1445 12.5526 25.7117 13.2346C25.4516 13.6434 25.6232 14.1046 26.0515 14.3255C26.4799 14.5463 26.9947 14.4448 27.2519 14.0346L27.6926 13.3315C27.9493 12.9214 28.5119 12.3637 28.9441 12.0817C30.3703 11.1519 33.2176 9.2487 32.9929 9.02361Z" fill="#E90101"/>
</g>
<defs>
<clipPath id="clip0_27818_687">
<rect width="28" height="24" fill="white" transform="translate(8.00006 9)"/>
</clipPath>
</defs>
</svg>
