<svg width="23" height="22" viewBox="0 0 23 22" fill="none" xmlns="http://www.w3.org/2000/svg">
<path d="M2.16814 12.4787L10.8183 21.4837C11.1162 21.7938 11.2652 21.9489 11.4408 21.9871C11.52 22.0043 11.6013 22.0043 11.6805 21.9871C11.8561 21.9489 12.0051 21.7938 12.303 21.4837L20.9531 12.4787C23.3869 9.94518 23.6824 5.77588 21.6355 2.85222L21.2507 2.30248C18.802 -1.19505 13.8867 -0.60849 12.1662 3.38659C11.9231 3.95093 11.1982 3.95093 10.9551 3.38659C9.23458 -0.60849 4.31934 -1.19505 1.87063 2.30249L1.48575 2.85222C-0.561175 5.77588 -0.265627 9.94518 2.16814 12.4787Z" fill="#740200"/>
</svg>
