<svg width="39" height="39" viewBox="0 0 39 39" fill="none" xmlns="http://www.w3.org/2000/svg">
<g clip-path="url(#clip0_27816_279)">
<circle cx="19.5" cy="19.5" r="19.5" fill="#740200"/>
<path d="M29.4101 22.2101C28.8634 22.7568 28.8634 23.6433 29.4101 24.19C29.9568 24.7367 30.8432 24.7367 31.3899 24.19L35.4681 20.1118C35.4891 20.0908 35.5096 20.0692 35.5292 20.0472C35.818 19.7907 36 19.4167 36 19C36 18.5834 35.818 18.2093 35.5292 17.9528C35.5096 17.9308 35.4891 17.9093 35.4681 17.8883L31.3899 13.8101C30.8432 13.2633 29.9568 13.2633 29.4101 13.8101C28.8634 14.3568 28.8634 15.2432 29.4101 15.79L31.2201 17.6H23.4C22.6268 17.6 22 18.2268 22 19C22 19.7732 22.6268 20.4 23.4 20.4H31.2201L29.4101 22.2101Z" fill="white"/>
<path d="M12.2 5C9.88041 5 8 6.88041 8 9.2V28.8C8 31.1197 9.88041 33 12.2 33H25.5C27.433 33 29 31.433 29 29.5V25.6256C28.7927 25.5058 28.5975 25.3573 28.4201 25.1799C27.504 24.2637 27.3554 22.8709 27.9744 21.8H23.4C21.8536 21.8 20.6 20.5464 20.6 19C20.6 17.4536 21.8536 16.2 23.4 16.2H27.9744C27.3554 15.1292 27.504 13.7362 28.4201 12.8201C28.5975 12.6427 28.7927 12.4941 29 12.3743V8.5C29 6.56701 27.433 5 25.5 5H12.2Z" fill="white"/>
</g>
<defs>
<clipPath id="clip0_27816_279">
<rect width="39" height="39" fill="white"/>
</clipPath>
</defs>
</svg>
