<svg width="41" height="36" viewBox="0 0 41 36" fill="none" xmlns="http://www.w3.org/2000/svg">
<path d="M37.3824 3.31229L35.7857 1.6284C36.1598 1.47125 36.4096 1.19687 36.4096 0.883542C36.4096 0.395556 35.8094 0 35.0673 0H5.09739C3.69886 0 2.42451 0.375139 1.50942 0.978403C0.592754 1.57924 0 2.42 0 3.33903V32.6462C0 34.2527 1.97957 35.5556 4.42044 35.5556H36.8369C38.8933 35.5556 40.561 34.4589 40.561 33.1059V5.72688C40.561 4.49597 39.1771 3.48889 37.3824 3.31229ZM9.27979 12.5236L12.2336 14.8253C12.4658 15.0069 12.8547 15.0419 13.1015 14.9042L13.2227 14.8376C13.4696 14.6999 13.4844 14.4415 13.2508 14.2601L10.2807 11.9452C9.68179 11.4787 9.93322 11.1001 10.3457 10.871C10.7581 10.6418 11.3672 10.5421 11.966 11.0087L14.9361 13.3235C15.1682 13.505 15.5585 13.5395 15.8054 13.4019L15.9251 13.3352C16.172 13.198 16.1868 12.9397 15.9532 12.7582L12.9993 10.456C11.9275 9.62063 13.5965 8.74195 14.6433 9.55833C15.8984 10.5363 17.4331 11.7326 17.4331 11.7326C19.3682 13.2301 19.3757 13.8937 19.1643 14.8128C18.9943 15.5533 18.7118 16.0797 19.9123 17.0157L20.2937 17.3125L18.6099 18.6247L17.946 18.1085C16.7457 17.1724 15.9103 17.2672 14.772 17.2541C13.3601 17.2376 12.3681 17.1198 10.4492 15.6141C10.4492 15.6141 8.91462 14.4177 7.65948 13.4398C6.61282 12.6238 8.20792 11.6878 9.27979 12.5236ZM14.8814 31.1268H13.9278V29.2289L12.9816 30.5464H12.3L11.3257 29.2216V31.1269H10.3736V27.7819H11.2872L12.64 29.6784L13.966 27.7819H14.8812V31.1268H14.8814ZM19.6595 28.3594H17.2867V29.1544H19.3107V29.7276H17.2867V30.5493H19.6595V31.1268H16.3346V27.7819H19.6595V28.3594ZM24.7451 31.1268H23.904L21.8194 29.0376V31.1268H20.8673V27.7819H21.7085L23.793 29.8667V27.7819H24.7451V31.1268ZM21.6731 21.0129L23.357 19.7003L28.317 23.5667L26.3522 24.6599L21.6731 21.0129ZM29.8397 29.9761C29.8397 30.1503 29.791 30.3118 29.6978 30.4563C29.6032 30.6013 29.4701 30.7268 29.3031 30.829C29.136 30.9306 28.9365 31.0109 28.7103 31.0683C28.4855 31.1247 28.2401 31.1535 27.9814 31.1535C27.7242 31.1535 27.4787 31.1247 27.2525 31.0683C27.0263 31.0109 26.8283 30.9301 26.6642 30.8285C26.4986 30.7263 26.3671 30.6013 26.2739 30.4563C26.1793 30.3118 26.132 30.1503 26.132 29.9761V27.7819H27.0841V29.9538C27.0841 30.1498 27.1654 30.3045 27.3266 30.413C27.4892 30.5229 27.7035 30.576 27.9815 30.576C28.2595 30.576 28.4753 30.5225 28.6408 30.4125C28.8065 30.3025 28.8862 30.1522 28.8862 29.9537V27.7819H29.8398L29.8397 29.9761ZM32.0011 12.5976C31.3239 13.684 30.1072 15.6772 28.7471 16.7383C25.5834 19.35 25.5404 16.984 22.9326 18.9564L15.6146 24.6599L13.6588 23.5721L13.6262 23.5847C13.6262 23.5847 13.635 23.5774 13.6483 23.5672C13.9573 23.3268 18.3096 19.9348 22.0545 17.0152C25.7594 14.1277 28.8521 11.7165 29.504 11.209C30.8406 10.1664 33.0582 10.9064 32.0011 12.5976ZM2.78672 3.37847V3.33903C2.78672 2.95222 3.03805 2.56542 3.4756 2.27792C3.91177 1.98993 4.48532 1.83375 5.09739 1.83375H32.6959L34.161 3.37847H2.78672Z" fill="#E90101"/>
</svg>
