<svg width="47" height="71" viewBox="0 0 47 71" fill="none" xmlns="http://www.w3.org/2000/svg">
<path d="M5.39449 57.14C4.28783 57.14 3.46116 56.86 2.91449 56.3C2.37449 55.74 2.10449 54.89 2.10449 53.75C2.10449 53.01 2.24116 52.37 2.51449 51.83C2.78783 51.2833 3.17783 50.8633 3.68449 50.57C4.19116 50.2767 4.79449 50.13 5.49449 50.13C7.72116 50.13 8.83449 51.2667 8.83449 53.54C8.83449 54.2867 8.69783 54.93 8.42449 55.47C8.15116 56.01 7.75449 56.4233 7.23449 56.71C6.72116 56.9967 6.10783 57.14 5.39449 57.14ZM5.60449 55.76C5.98449 55.76 6.34783 55.6633 6.69449 55.47C6.76783 55.2633 6.82449 55.0067 6.86449 54.7C6.90449 54.3867 6.92449 54.08 6.92449 53.78C6.92449 53.04 6.78449 52.48 6.50449 52.1C6.23116 51.72 5.82783 51.53 5.29449 51.53C4.91449 51.53 4.54783 51.6 4.19449 51.74C4.12116 51.8667 4.06449 52.0767 4.02449 52.37C3.98449 52.6567 3.96449 52.9867 3.96449 53.36C3.96449 54.1333 4.10449 54.7267 4.38449 55.14C4.66449 55.5533 5.07116 55.76 5.60449 55.76ZM9.48777 56.05L10.0978 55.87V53.44C10.0978 53.2933 10.0878 53.2 10.0678 53.16C10.0478 53.1133 9.99444 53.0633 9.90777 53.01L9.46777 52.77L9.49777 52.02C9.61111 51.9933 9.70777 51.9767 9.78777 51.97C10.5944 51.8033 11.1911 51.7133 11.5778 51.7C11.6378 51.8733 11.6944 52.09 11.7478 52.35C12.1478 52.0367 12.4878 51.82 12.7678 51.7H13.3378C13.3311 51.9533 13.3144 52.23 13.2878 52.53C13.2611 52.8233 13.2278 53.06 13.1878 53.24C12.9478 53.2267 12.7711 53.22 12.6578 53.22C12.3778 53.22 12.0878 53.2367 11.7878 53.27V55.54C11.7878 55.68 11.7978 55.7733 11.8178 55.82C11.8378 55.8667 11.8911 55.9167 11.9778 55.97L12.5778 56.29L12.5378 57H9.53777L9.48777 56.05ZM15.6656 57.13C15.0256 57.13 14.5256 56.89 14.1656 56.41C13.8056 55.93 13.6256 55.2867 13.6256 54.48C13.6256 53.5533 13.8689 52.8533 14.3556 52.38C14.8489 51.9067 15.5489 51.67 16.4556 51.67C16.5089 51.67 16.6823 51.6767 16.9756 51.69V51.09C16.9756 50.9433 16.9656 50.8467 16.9456 50.8C16.9256 50.7533 16.8689 50.7033 16.7756 50.65L16.3256 50.42L16.3756 49.66C17.0156 49.5467 17.4889 49.47 17.7956 49.43C18.1023 49.3833 18.3456 49.3567 18.5256 49.35C18.5856 49.5033 18.6289 49.6767 18.6556 49.87V55.56C18.6556 55.68 18.6656 55.7633 18.6856 55.81C18.7123 55.8567 18.7689 55.9033 18.8556 55.95L19.2356 56.18L19.1956 56.8C18.5423 56.9667 17.9023 57.0667 17.2756 57.1C17.2289 56.9733 17.1823 56.82 17.1356 56.64C16.6823 56.9667 16.1923 57.13 15.6656 57.13ZM16.2456 55.85C16.4656 55.85 16.7123 55.7767 16.9856 55.63V53.04C16.7856 52.9533 16.5289 52.91 16.2156 52.91C15.9623 52.91 15.7189 52.9433 15.4856 53.01C15.4323 53.1367 15.3889 53.31 15.3556 53.53C15.3289 53.75 15.3156 53.9933 15.3156 54.26C15.3156 54.8067 15.3889 55.21 15.5356 55.47C15.6889 55.7233 15.9256 55.85 16.2456 55.85ZM20.0343 49.6L21.7343 49.15L22.1443 50.67L20.4543 51.13L20.0343 49.6ZM19.6143 56.08L20.3143 55.87V53.44C20.3143 53.2933 20.3009 53.2 20.2743 53.16C20.2543 53.1133 20.1976 53.0633 20.1043 53.01L19.6643 52.77L19.7143 52.02C20.2676 51.9133 20.6943 51.8367 20.9943 51.79C21.3009 51.7367 21.5809 51.7067 21.8343 51.7C21.9209 51.9867 21.9743 52.2 21.9943 52.34V55.54C21.9943 55.68 22.0043 55.7733 22.0243 55.82C22.0443 55.8667 22.1009 55.9167 22.1943 55.97L22.6843 56.25L22.6443 57H19.6443L19.6143 56.08ZM23.0911 56.04L23.7111 55.86V53.44C23.7111 53.2933 23.7011 53.2 23.6811 53.16C23.6611 53.1133 23.6077 53.0633 23.5211 53.01L23.0811 52.77L23.1111 52.02L23.3311 51.98C24.2044 51.8067 24.8344 51.7133 25.2211 51.7C25.2744 51.84 25.3177 51.9933 25.3511 52.16C25.7577 51.9733 26.0877 51.8467 26.3411 51.78C26.6011 51.7067 26.8444 51.67 27.0711 51.67C28.1311 51.67 28.6611 52.3033 28.6611 53.57V55.53C28.6611 55.67 28.6711 55.7633 28.6911 55.81C28.7111 55.8567 28.7677 55.9067 28.8611 55.96L29.3411 56.24L29.3011 56.99H26.5411L26.4911 56.04L26.9811 55.9V54.01C26.9811 53.71 26.9711 53.5 26.9511 53.38C26.9311 53.26 26.8744 53.1667 26.7811 53.1C26.6944 53.0333 26.5377 53 26.3111 53C26.0711 53 25.7677 53.0367 25.4011 53.11V55.53C25.4011 55.67 25.4111 55.7633 25.4311 55.81C25.4511 55.8567 25.5044 55.9067 25.5911 55.96L26.0811 56.24L26.0411 56.99H23.1411L23.0911 56.04ZM31.1326 57.13C30.6793 57.13 30.316 57.0067 30.0426 56.76C29.7693 56.5067 29.6326 56.1833 29.6326 55.79C29.6326 55.2633 29.896 54.85 30.4226 54.55C30.956 54.25 31.7293 54.08 32.7426 54.04C32.7426 53.7267 32.716 53.4967 32.6626 53.35C32.616 53.1967 32.526 53.0933 32.3926 53.04C32.266 52.98 32.0693 52.95 31.8026 52.95C31.5293 52.95 31.336 52.96 31.2226 52.98L30.8126 53.79L30.0726 53.74C29.9593 53.2067 29.8793 52.6533 29.8326 52.08C30.206 51.9533 30.6126 51.8533 31.0526 51.78C31.4993 51.7067 31.916 51.67 32.3026 51.67C33.0093 51.67 33.516 51.81 33.8226 52.09C34.1293 52.3633 34.2826 52.82 34.2826 53.46V55.55C34.2826 55.67 34.2926 55.7533 34.3126 55.8C34.3393 55.8467 34.3926 55.8933 34.4726 55.94L34.8726 56.17L34.8326 56.79C34.0593 56.97 33.4493 57.07 33.0026 57.09C32.9893 57.05 32.9693 56.98 32.9426 56.88C32.916 56.7733 32.8926 56.6733 32.8726 56.58C32.6126 56.7467 32.326 56.88 32.0126 56.98C31.706 57.08 31.4126 57.13 31.1326 57.13ZM31.8026 56C32.0693 56 32.3926 55.91 32.7726 55.73L32.7326 54.97C32.5726 54.9567 32.466 54.95 32.4126 54.95C32.2326 54.95 32.0226 54.97 31.7826 55.01C31.5426 55.0433 31.3526 55.0833 31.2126 55.13C31.1926 55.2167 31.1826 55.2967 31.1826 55.37C31.1826 55.57 31.236 55.7267 31.3426 55.84C31.456 55.9467 31.6093 56 31.8026 56ZM35.2397 56.05L35.8497 55.87V53.44C35.8497 53.2933 35.8397 53.2 35.8197 53.16C35.7997 53.1133 35.7464 53.0633 35.6597 53.01L35.2197 52.77L35.2497 52.02C35.3631 51.9933 35.4597 51.9767 35.5397 51.97C36.3464 51.8033 36.9431 51.7133 37.3297 51.7C37.3897 51.8733 37.4464 52.09 37.4997 52.35C37.8997 52.0367 38.2397 51.82 38.5197 51.7H39.0897C39.0831 51.9533 39.0664 52.23 39.0397 52.53C39.0131 52.8233 38.9797 53.06 38.9397 53.24C38.6997 53.2267 38.5231 53.22 38.4097 53.22C38.1297 53.22 37.8397 53.2367 37.5397 53.27V55.54C37.5397 55.68 37.5497 55.7733 37.5697 55.82C37.5897 55.8667 37.6431 55.9167 37.7297 55.97L38.3297 56.29L38.2897 57H35.2897L35.2397 56.05ZM41.5644 59.29C41.0844 58.97 40.6577 58.5567 40.2844 58.05L41.3944 56.96L39.9444 53.14C39.8711 52.96 39.8211 52.8433 39.7944 52.79C39.7677 52.7367 39.7177 52.6633 39.6444 52.57L39.4744 52.35L39.5244 51.77H42.0844L42.1844 52.62L41.6044 52.76L42.4244 55.27L43.3444 52.97C43.3577 52.93 43.3644 52.9 43.3644 52.88C43.3644 52.82 43.3377 52.78 43.2844 52.76L42.8144 52.56L42.9044 51.77H44.8044L44.8944 52.58L43.6144 55.37C43.1544 56.3767 42.7744 57.1667 42.4744 57.74C42.1744 58.3133 41.8711 58.83 41.5644 59.29ZM11.9012 70.03C11.1812 70.03 10.5179 70 9.91121 69.94L9.86121 68.98L10.5912 68.78V64.97C10.5912 64.7967 10.5779 64.6833 10.5512 64.63C10.5245 64.57 10.4545 64.5167 10.3412 64.47L9.82121 64.18L9.88121 63.35C10.5745 63.2967 11.1579 63.2567 11.6312 63.23C12.1045 63.1967 12.4845 63.18 12.7712 63.18C13.6912 63.18 14.4279 63.2867 14.9812 63.5C15.5412 63.7133 15.9479 64.05 16.2012 64.51C16.4612 64.97 16.5912 65.58 16.5912 66.34C16.5912 67.3 16.3712 68.0767 15.9312 68.67C15.5379 69.1833 15.0145 69.54 14.3612 69.74C13.7145 69.9333 12.8945 70.03 11.9012 70.03ZM13.1612 68.6C13.7212 68.6 14.1645 68.5333 14.4912 68.4C14.5512 68.2333 14.6045 67.9733 14.6512 67.62C14.7045 67.2667 14.7312 66.9367 14.7312 66.63C14.7312 65.8767 14.5745 65.32 14.2612 64.96C13.9545 64.6 13.4845 64.42 12.8512 64.42C12.7645 64.42 12.6845 64.4233 12.6112 64.43C12.5379 64.4367 12.4679 64.4433 12.4012 64.45V68.55C12.6679 68.5833 12.9212 68.6 13.1612 68.6ZM17.2612 69.05L17.8712 68.87V66.44C17.8712 66.2933 17.8612 66.2 17.8412 66.16C17.8212 66.1133 17.7679 66.0633 17.6812 66.01L17.2412 65.77L17.2712 65.02C17.3845 64.9933 17.4812 64.9767 17.5612 64.97C18.3679 64.8033 18.9645 64.7133 19.3512 64.7C19.4112 64.8733 19.4679 65.09 19.5212 65.35C19.9212 65.0367 20.2612 64.82 20.5412 64.7H21.1112C21.1045 64.9533 21.0879 65.23 21.0612 65.53C21.0345 65.8233 21.0012 66.06 20.9612 66.24C20.7212 66.2267 20.5445 66.22 20.4312 66.22C20.1512 66.22 19.8612 66.2367 19.5612 66.27V68.54C19.5612 68.68 19.5712 68.7733 19.5912 68.82C19.6112 68.8667 19.6645 68.9167 19.7512 68.97L20.3512 69.29L20.3112 70H17.3112L17.2612 69.05ZM21.919 62.6L23.619 62.15L24.029 63.67L22.339 64.13L21.919 62.6ZM21.499 69.08L22.199 68.87V66.44C22.199 66.2933 22.1857 66.2 22.159 66.16C22.139 66.1133 22.0824 66.0633 21.989 66.01L21.549 65.77L21.599 65.02C22.1524 64.9133 22.579 64.8367 22.879 64.79C23.1857 64.7367 23.4657 64.7067 23.719 64.7C23.8057 64.9867 23.859 65.2 23.879 65.34V68.54C23.879 68.68 23.889 68.7733 23.909 68.82C23.929 68.8667 23.9857 68.9167 24.079 68.97L24.569 69.25L24.529 70H21.529L21.499 69.08ZM24.9758 69.04L25.5958 68.86V66.44C25.5958 66.2933 25.5858 66.2 25.5658 66.16C25.5458 66.1133 25.4925 66.0633 25.4058 66.01L24.9658 65.77L24.9958 65.02L25.2158 64.98C26.0892 64.8067 26.7192 64.7133 27.1058 64.7C27.1592 64.84 27.2025 64.9933 27.2358 65.16C27.6425 64.9733 27.9725 64.8467 28.2258 64.78C28.4858 64.7067 28.7292 64.67 28.9558 64.67C30.0158 64.67 30.5458 65.3033 30.5458 66.57V68.53C30.5458 68.67 30.5558 68.7633 30.5758 68.81C30.5958 68.8567 30.6525 68.9067 30.7458 68.96L31.2258 69.24L31.1858 69.99H28.4258L28.3758 69.04L28.8658 68.9V67.01C28.8658 66.71 28.8558 66.5 28.8358 66.38C28.8158 66.26 28.7592 66.1667 28.6658 66.1C28.5792 66.0333 28.4225 66 28.1958 66C27.9558 66 27.6525 66.0367 27.2858 66.11V68.53C27.2858 68.67 27.2958 68.7633 27.3158 68.81C27.3358 68.8567 27.3892 68.9067 27.4758 68.96L27.9658 69.24L27.9258 69.99H25.0258L24.9758 69.04ZM31.5774 69.05L32.1974 68.87V64.08C32.1974 63.9333 32.1874 63.84 32.1674 63.8C32.1474 63.7533 32.094 63.7033 32.0074 63.65L31.5674 63.42L31.5974 62.66L31.9074 62.61C32.7874 62.45 33.404 62.3633 33.7574 62.35C33.8174 62.51 33.8607 62.6833 33.8874 62.87V66.94L34.9974 65.86C35.0307 65.8267 35.0474 65.79 35.0474 65.75C35.0474 65.7167 35.0374 65.69 35.0174 65.67L34.7374 65.32L34.8474 64.77H37.0674C37.1274 64.99 37.1674 65.2267 37.1874 65.48L35.5274 66.9L37.4574 69.56V70H35.6974L33.8874 67.4V68.54C33.8874 68.68 33.8974 68.7733 33.9174 68.82C33.9374 68.8667 33.9907 68.9167 34.0774 68.97L34.5674 69.25L34.5274 70H31.6274L31.5774 69.05Z" fill="#E70001"/>
<path d="M22.5 2C33.9504 2 43 10.6485 43 21.0391C42.9999 31.4296 33.9504 40.0781 22.5 40.0781C11.0496 40.0781 2.00006 31.4296 2 21.0391C2 10.6485 11.0496 2 22.5 2Z" fill="white" stroke="#E90101" stroke-width="4"/>
<path d="M13.3125 8C12.5876 8 12 8.48663 12 9.0869V19.2313C12 23.4649 15.8128 26.9613 20.75 27.4939V34.8221L16.8173 34.8101C16.0925 34.8079 15.5027 35.2927 15.5 35.893C15.4973 36.4932 16.0828 36.9817 16.8077 36.9839L22.0576 37H22.0667L28.1917 36.9839C28.9166 36.982 29.5023 36.4938 29.5 35.8935C29.4977 35.2933 28.9081 34.8082 28.1833 34.8101L23.375 34.8227V27.4997C28.7969 26.9626 33 23.1412 33 18.5067V9.0869C33 8.48663 32.4123 8 31.6875 8H13.3125ZM14.625 15.246V10.1738H30.375V15.246H14.625ZM28.9458 19.169C28.8247 19.6944 28.6122 20.1931 28.3228 20.6531C27.9637 21.2236 27.4863 21.7343 26.9177 22.1631C26.3663 22.5789 25.7286 22.9183 25.0287 23.1605C24.6513 23.2912 24.2559 23.3935 23.8466 23.4642C23.3736 23.546 22.91 23.2947 22.8113 22.9029C22.7126 22.5111 23.0161 22.1273 23.4891 22.0456C23.7885 21.9937 24.0778 21.9189 24.3539 21.8234C24.8662 21.6461 25.3341 21.3974 25.7393 21.0917C26.1573 20.7764 26.5077 20.4013 26.7709 19.9833C26.9828 19.6465 27.1382 19.2816 27.2269 18.8972C27.3176 18.5041 27.7759 18.2463 28.2505 18.3214C28.7251 18.3964 29.0364 18.7759 28.9458 19.169Z" fill="#E90101"/>
</svg>
