<svg width="45" height="43" viewBox="0 0 45 43" fill="none" xmlns="http://www.w3.org/2000/svg">
<path d="M22.5 2C33.9504 2 43 10.6485 43 21.0391C42.9999 31.4296 33.9504 40.0781 22.5 40.0781C11.0496 40.0781 2.00006 31.4296 2 21.0391C2 10.6485 11.0496 2 22.5 2Z" fill="white" stroke="#E90101" stroke-width="4"/>
<path d="M13.3125 8C12.5876 8 12 8.48663 12 9.0869V19.2313C12 23.4649 15.8128 26.9613 20.75 27.4939V34.8221L16.8173 34.8101C16.0925 34.8079 15.5027 35.2927 15.5 35.893C15.4973 36.4932 16.0828 36.9817 16.8077 36.9839L22.0576 37H22.0667L28.1917 36.9839C28.9166 36.982 29.5023 36.4938 29.5 35.8935C29.4977 35.2933 28.9081 34.8082 28.1833 34.8101L23.375 34.8227V27.4997C28.7969 26.9626 33 23.1412 33 18.5067V9.0869C33 8.48663 32.4123 8 31.6875 8H13.3125ZM14.625 15.246V10.1738H30.375V15.246H14.625ZM28.9458 19.169C28.8247 19.6944 28.6122 20.1931 28.3228 20.6531C27.9637 21.2236 27.4863 21.7343 26.9177 22.1631C26.3663 22.5789 25.7286 22.9183 25.0287 23.1605C24.6513 23.2912 24.2559 23.3935 23.8466 23.4642C23.3736 23.546 22.91 23.2947 22.8113 22.9029C22.7126 22.5111 23.0161 22.1273 23.4891 22.0456C23.7885 21.9937 24.0778 21.9189 24.3539 21.8234C24.8662 21.6461 25.3341 21.3974 25.7393 21.0917C26.1573 20.7764 26.5077 20.4013 26.7709 19.9833C26.9828 19.6465 27.1382 19.2816 27.2269 18.8972C27.3176 18.5041 27.7759 18.2463 28.2505 18.3214C28.7251 18.3964 29.0364 18.7759 28.9458 19.169Z" fill="#E90101"/>
</svg>
