<svg width="49" height="71" viewBox="0 0 49 71" fill="none" xmlns="http://www.w3.org/2000/svg">
<path d="M12.6152 57.14C11.5085 57.14 10.6819 56.86 10.1352 56.3C9.5952 55.74 9.3252 54.89 9.3252 53.75C9.3252 53.01 9.46186 52.37 9.7352 51.83C10.0085 51.2833 10.3985 50.8633 10.9052 50.57C11.4119 50.2767 12.0152 50.13 12.7152 50.13C14.9419 50.13 16.0552 51.2667 16.0552 53.54C16.0552 54.2867 15.9185 54.93 15.6452 55.47C15.3719 56.01 14.9752 56.4233 14.4552 56.71C13.9419 56.9967 13.3285 57.14 12.6152 57.14ZM12.8252 55.76C13.2052 55.76 13.5685 55.6633 13.9152 55.47C13.9885 55.2633 14.0452 55.0067 14.0852 54.7C14.1252 54.3867 14.1452 54.08 14.1452 53.78C14.1452 53.04 14.0052 52.48 13.7252 52.1C13.4519 51.72 13.0485 51.53 12.5152 51.53C12.1352 51.53 11.7685 51.6 11.4152 51.74C11.3419 51.8667 11.2852 52.0767 11.2452 52.37C11.2052 52.6567 11.1852 52.9867 11.1852 53.36C11.1852 54.1333 11.3252 54.7267 11.6052 55.14C11.8852 55.5533 12.2919 55.76 12.8252 55.76ZM19.01 57.13C18.4234 57.13 17.99 56.9867 17.71 56.7C17.43 56.4067 17.29 55.9633 17.29 55.37V52.94H16.59V52.21L18.39 50.57L18.97 50.64V51.77H20.65V52.95H18.97V55.01C18.97 55.33 19.0134 55.5433 19.1 55.65C19.1934 55.7567 19.37 55.81 19.63 55.81C19.85 55.81 20.1567 55.78 20.55 55.72L20.67 56.74C20.43 56.8533 20.16 56.9467 19.86 57.02C19.5667 57.0933 19.2834 57.13 19.01 57.13ZM21.093 56.05L21.713 55.87V51.08C21.713 50.9333 21.703 50.84 21.683 50.8C21.663 50.7533 21.6097 50.7033 21.523 50.65L21.083 50.42L21.113 49.66L21.423 49.61C22.303 49.45 22.9197 49.3633 23.273 49.35C23.333 49.51 23.3763 49.6833 23.403 49.87V52.15C23.7697 51.9833 24.0797 51.8633 24.333 51.79C24.593 51.71 24.8497 51.67 25.103 51.67C26.143 51.67 26.663 52.3033 26.663 53.57V55.54C26.663 55.68 26.673 55.7733 26.693 55.82C26.713 55.8667 26.7697 55.9167 26.863 55.97L27.343 56.25L27.303 57H24.543L24.493 56.05L24.983 55.91V54.01C24.983 53.7167 24.973 53.51 24.953 53.39C24.9397 53.2633 24.8863 53.1667 24.793 53.1C24.6997 53.0333 24.543 53 24.323 53C24.1097 53 23.803 53.0367 23.403 53.11V55.54C23.403 55.68 23.413 55.7733 23.433 55.82C23.453 55.8667 23.5063 55.9167 23.593 55.97L24.083 56.25L24.043 57H21.143L21.093 56.05ZM30.0246 57.12C29.2446 57.12 28.6412 56.8833 28.2146 56.41C27.7946 55.9367 27.5846 55.2833 27.5846 54.45C27.5846 53.87 27.6879 53.3733 27.8946 52.96C28.1012 52.54 28.3946 52.22 28.7746 52C29.1546 51.78 29.5979 51.67 30.1046 51.67C30.8579 51.67 31.4346 51.91 31.8346 52.39C32.2412 52.87 32.4346 53.5533 32.4146 54.44L29.3746 55C29.4679 55.28 29.5979 55.4867 29.7646 55.62C29.9379 55.7467 30.1646 55.81 30.4446 55.81C30.6379 55.81 30.8679 55.7833 31.1346 55.73C31.4012 55.67 31.6712 55.59 31.9446 55.49L32.1746 56.48C31.9279 56.6667 31.6079 56.82 31.2146 56.94C30.8212 57.06 30.4246 57.12 30.0246 57.12ZM30.7746 53.6C30.7612 53.3467 30.6879 53.1633 30.5546 53.05C30.4279 52.93 30.2479 52.87 30.0146 52.87C29.8212 52.87 29.6379 52.8967 29.4646 52.95C29.3246 53.2767 29.2612 53.63 29.2746 54.01L30.7746 53.6ZM32.8706 56.05L33.4806 55.87V53.44C33.4806 53.2933 33.4706 53.2 33.4506 53.16C33.4306 53.1133 33.3773 53.0633 33.2906 53.01L32.8506 52.77L32.8806 52.02C32.9939 51.9933 33.0906 51.9767 33.1706 51.97C33.9773 51.8033 34.5739 51.7133 34.9606 51.7C35.0206 51.8733 35.0773 52.09 35.1306 52.35C35.5306 52.0367 35.8706 51.82 36.1506 51.7H36.7206C36.7139 51.9533 36.6973 52.23 36.6706 52.53C36.6439 52.8233 36.6106 53.06 36.5706 53.24C36.3306 53.2267 36.1539 53.22 36.0406 53.22C35.7606 53.22 35.4706 53.2367 35.1706 53.27V55.54C35.1706 55.68 35.1806 55.7733 35.2006 55.82C35.2206 55.8667 35.2739 55.9167 35.3606 55.97L35.9606 56.29L35.9206 57H32.9206L32.8706 56.05ZM39.2284 49.46H39.8984L37.5684 57.61H36.8884L39.2284 49.46ZM4.42906 70.13C3.44906 70.13 2.72906 69.8733 2.26906 69.36C1.81573 68.84 1.58906 68.0267 1.58906 66.92V64.95C1.58906 64.7767 1.57573 64.6633 1.54906 64.61C1.52906 64.55 1.46573 64.4967 1.35906 64.45L1.03906 64.26L1.06906 63.26H4.18906L4.23906 64.25L3.40906 64.48V66.53C3.40906 67.2233 3.50906 67.77 3.70906 68.17C3.90906 68.57 4.2524 68.77 4.73906 68.77C4.89906 68.77 5.0524 68.7467 5.19906 68.7C5.3524 68.6533 5.4824 68.59 5.58906 68.51C5.65573 68.3567 5.7024 68.1533 5.72906 67.9C5.75573 67.64 5.76906 67.2933 5.76906 66.86V64.95C5.76906 64.7767 5.75573 64.6633 5.72906 64.61C5.7024 64.55 5.6324 64.4967 5.51906 64.45L5.02906 64.17L5.07906 63.26H8.04906L8.09906 64.34L7.57906 64.48V66.74C7.57906 67.8133 7.3024 68.6467 6.74906 69.24C6.2024 69.8333 5.42906 70.13 4.42906 70.13ZM8.4807 69.04L9.1007 68.86V66.44C9.1007 66.2933 9.0907 66.2 9.0707 66.16C9.0507 66.1133 8.99737 66.0633 8.9107 66.01L8.4707 65.77L8.5007 65.02L8.7207 64.98C9.59404 64.8067 10.224 64.7133 10.6107 64.7C10.664 64.84 10.7074 64.9933 10.7407 65.16C11.1474 64.9733 11.4774 64.8467 11.7307 64.78C11.9907 64.7067 12.234 64.67 12.4607 64.67C13.5207 64.67 14.0507 65.3033 14.0507 66.57V68.53C14.0507 68.67 14.0607 68.7633 14.0807 68.81C14.1007 68.8567 14.1574 68.9067 14.2507 68.96L14.7307 69.24L14.6907 69.99H11.9307L11.8807 69.04L12.3707 68.9V67.01C12.3707 66.71 12.3607 66.5 12.3407 66.38C12.3207 66.26 12.264 66.1667 12.1707 66.1C12.084 66.0333 11.9274 66 11.7007 66C11.4607 66 11.1574 66.0367 10.7907 66.11V68.53C10.7907 68.67 10.8007 68.7633 10.8207 68.81C10.8407 68.8567 10.894 68.9067 10.9807 68.96L11.4707 69.24L11.4307 69.99H8.5307L8.4807 69.04ZM15.0823 69.05L15.7023 68.87V64.08C15.7023 63.9333 15.6923 63.84 15.6723 63.8C15.6523 63.7533 15.5989 63.7033 15.5123 63.65L15.0723 63.42L15.1023 62.66L15.4123 62.61C16.2923 62.45 16.9089 62.3633 17.2623 62.35C17.3223 62.51 17.3656 62.6833 17.3923 62.87V66.94L18.5023 65.86C18.5356 65.8267 18.5523 65.79 18.5523 65.75C18.5523 65.7167 18.5423 65.69 18.5223 65.67L18.2423 65.32L18.3523 64.77H20.5723C20.6323 64.99 20.6723 65.2267 20.6923 65.48L19.0323 66.9L20.9623 69.56V70H19.2023L17.3923 67.4V68.54C17.3923 68.68 17.4023 68.7733 17.4223 68.82C17.4423 68.8667 17.4956 68.9167 17.5823 68.97L18.0723 69.25L18.0323 70H15.1323L15.0823 69.05ZM21.2737 69.04L21.8937 68.86V66.44C21.8937 66.2933 21.8837 66.2 21.8637 66.16C21.8437 66.1133 21.7903 66.0633 21.7037 66.01L21.2637 65.77L21.2937 65.02L21.5137 64.98C22.387 64.8067 23.017 64.7133 23.4037 64.7C23.457 64.84 23.5003 64.9933 23.5337 65.16C23.9403 64.9733 24.2703 64.8467 24.5237 64.78C24.7837 64.7067 25.027 64.67 25.2537 64.67C26.3137 64.67 26.8437 65.3033 26.8437 66.57V68.53C26.8437 68.67 26.8537 68.7633 26.8737 68.81C26.8937 68.8567 26.9503 68.9067 27.0437 68.96L27.5237 69.24L27.4837 69.99H24.7237L24.6737 69.04L25.1637 68.9V67.01C25.1637 66.71 25.1537 66.5 25.1337 66.38C25.1137 66.26 25.057 66.1667 24.9637 66.1C24.877 66.0333 24.7203 66 24.4937 66C24.2537 66 23.9503 66.0367 23.5837 66.11V68.53C23.5837 68.67 23.5937 68.7633 23.6137 68.81C23.6337 68.8567 23.687 68.9067 23.7737 68.96L24.2637 69.24L24.2237 69.99H21.3237L21.2737 69.04ZM30.2852 70.13C29.4386 70.13 28.8052 69.9133 28.3852 69.48C27.9719 69.0467 27.7652 68.3833 27.7652 67.49C27.7652 66.9167 27.8686 66.4167 28.0752 65.99C28.2886 65.5633 28.5919 65.2367 28.9852 65.01C29.3786 64.7833 29.8419 64.67 30.3752 64.67C32.1019 64.67 32.9652 65.5633 32.9652 67.35C32.9652 68.2233 32.7286 68.9067 32.2552 69.4C31.7886 69.8867 31.1319 70.13 30.2852 70.13ZM30.4452 68.96C30.5786 68.96 30.6952 68.95 30.7952 68.93C30.8952 68.9033 31.0019 68.8633 31.1152 68.81C31.1552 68.6567 31.1886 68.46 31.2152 68.22C31.2419 67.98 31.2552 67.75 31.2552 67.53C31.2552 66.99 31.1686 66.58 30.9952 66.3C30.8286 66.02 30.5786 65.88 30.2452 65.88C30.0252 65.88 29.8019 65.91 29.5752 65.97C29.5286 66.07 29.4919 66.2333 29.4652 66.46C29.4386 66.68 29.4252 66.9333 29.4252 67.22C29.4252 67.78 29.5119 68.21 29.6852 68.51C29.8652 68.81 30.1186 68.96 30.4452 68.96ZM33.6941 66.14C33.6208 65.96 33.5708 65.8433 33.5441 65.79C33.5175 65.7367 33.4675 65.6633 33.3941 65.57L33.2241 65.35L33.2741 64.77H35.8041L35.9041 65.62L35.3541 65.75L36.0341 68.18L37.0241 64.85L38.0541 64.71L39.1941 68.27L39.8341 65.97C39.8475 65.93 39.8541 65.9 39.8541 65.88C39.8541 65.82 39.8241 65.78 39.7641 65.76L39.2841 65.56L39.3841 64.77H41.2841L41.3841 65.55L39.6641 70.05L38.2241 70.16L37.3941 67.38L36.4841 70.05L35.0441 70.16L33.6941 66.14ZM41.8694 69.04L42.4894 68.86V66.44C42.4894 66.2933 42.4794 66.2 42.4594 66.16C42.4394 66.1133 42.386 66.0633 42.2994 66.01L41.8594 65.77L41.8894 65.02L42.1094 64.98C42.9827 64.8067 43.6127 64.7133 43.9994 64.7C44.0527 64.84 44.096 64.9933 44.1294 65.16C44.536 64.9733 44.866 64.8467 45.1194 64.78C45.3794 64.7067 45.6227 64.67 45.8494 64.67C46.9094 64.67 47.4394 65.3033 47.4394 66.57V68.53C47.4394 68.67 47.4494 68.7633 47.4694 68.81C47.4894 68.8567 47.546 68.9067 47.6394 68.96L48.1194 69.24L48.0794 69.99H45.3194L45.2694 69.04L45.7594 68.9V67.01C45.7594 66.71 45.7494 66.5 45.7294 66.38C45.7094 66.26 45.6527 66.1667 45.5594 66.1C45.4727 66.0333 45.316 66 45.0894 66C44.8494 66 44.546 66.0367 44.1794 66.11V68.53C44.1794 68.67 44.1894 68.7633 44.2094 68.81C44.2294 68.8567 44.2827 68.9067 44.3694 68.96L44.8594 69.24L44.8194 69.99H41.9194L41.8694 69.04Z" fill="#E70001"/>
<path d="M24.1426 2C35.3648 2 44.2861 10.6193 44.2861 21.0391C44.2861 31.4588 35.3647 40.0781 24.1426 40.0781C12.9205 40.078 4.00006 31.4587 4 21.0391C4 10.6194 12.9205 2.00014 24.1426 2Z" fill="white" stroke="#E90101" stroke-width="4"/>
<g clip-path="url(#clip0_27818_792)">
<path d="M32 34H14.6667C13.8667 34 13.3333 33.55 13.3333 32.875V13.75C13.3333 13.075 13.8667 12.625 14.6667 12.625H32C32.8 12.625 33.3333 13.075 33.3333 13.75V32.875C33.3333 33.55 32.8 34 32 34ZM16 31.75H30.6667V14.875H16V31.75Z" fill="#E90101"/>
<path d="M16 14.875C13.7333 14.875 12 13.4125 12 11.5C12 9.5875 13.7333 8.125 16 8.125C17.0667 8.125 18 8.4625 18.8 9.025C19.3333 9.475 19.3333 10.15 18.8 10.6C18.2667 11.05 17.4667 11.05 16.9333 10.6C16.6667 10.4875 16.4 10.375 16 10.375C15.2 10.375 14.6667 10.825 14.6667 11.5C14.6667 12.175 15.2 12.625 16 12.625C16.8 12.625 17.3333 13.075 17.3333 13.75C17.3333 14.425 16.8 14.875 16 14.875Z" fill="#E90101"/>
<path d="M30.6667 14.875C29.8667 14.875 29.3333 14.425 29.3333 13.75C29.3333 13.075 29.8667 12.625 30.6667 12.625C31.4667 12.625 32 12.175 32 11.5C32 10.825 31.4667 10.375 30.6667 10.375C30.2667 10.375 29.8667 10.4875 29.7333 10.7125C29.2 11.1625 28.4 11.275 27.8667 10.825C27.3333 10.375 27.2 9.7 27.7333 9.25C28.5333 8.4625 29.6 8.125 30.8 8.125C33.0667 8.125 34.8 9.5875 34.8 11.5C34.8 13.4125 32.9333 14.875 30.6667 14.875Z" fill="#E90101"/>
<path d="M28.6667 11.1625C28.2667 11.1625 27.8667 11.05 27.6 10.7125C27.0667 10.2625 26.2667 10.2625 25.7333 10.6C25.2 11.05 24.4 11.05 23.8667 10.6C23.3333 10.15 23.3333 9.47499 23.8667 9.02499C25.4667 7.78749 28.2667 7.89999 29.6 9.24999C30.1333 9.69999 30 10.4875 29.4667 10.825C29.3333 11.05 28.9333 11.1625 28.6667 11.1625Z" fill="#E90101"/>
<path d="M24.8 10.9375C24.2667 10.9375 23.8667 10.7125 23.6 10.375C23.2 9.7 22.2667 9.25 21.2 9.25C20.1333 9.25 19.4667 9.7 18.9333 10.375C18.6667 10.9375 17.8667 11.1625 17.2 10.825C16.5333 10.4875 16.2667 9.925 16.6667 9.3625C17.6 7.9 19.3333 7 21.3333 7C23.3333 7 25.0667 7.9 26 9.3625C26.4 9.925 26.1333 10.6 25.4667 10.9375C25.3333 10.9375 25.0667 10.9375 24.8 10.9375Z" fill="#E90101"/>
<path d="M37.3333 20.5C36.5333 20.5 36 20.05 36 19.375C36 18.1375 34.8 17.125 33.3333 17.125C32.5333 17.125 32 16.675 32 16C32 15.325 32.5333 14.875 33.3333 14.875C36.2667 14.875 38.6667 16.9 38.6667 19.375C38.6667 20.05 38.1333 20.5 37.3333 20.5Z" fill="#E90101"/>
<path d="M33.3333 17.125H32C31.2 17.125 30.6667 16.675 30.6667 16C30.6667 15.325 31.2 14.875 32 14.875H33.3333C34.1333 14.875 34.6667 15.325 34.6667 16C34.6667 16.675 34.1333 17.125 33.3333 17.125Z" fill="#E90101"/>
<path d="M37.3333 23.875C36.5333 23.875 36 23.425 36 22.75V19.375C36 18.7 36.5333 18.25 37.3333 18.25C38.1333 18.25 38.6667 18.7 38.6667 19.375V22.75C38.6667 23.425 38.1333 23.875 37.3333 23.875Z" fill="#E90101"/>
<path d="M33.3333 27.25C32.5333 27.25 32 26.8 32 26.125C32 25.45 32.5333 25 33.3333 25C34.8 25 36 23.9875 36 22.75C36 22.075 36.5333 21.625 37.3333 21.625C38.1333 21.625 38.6667 22.075 38.6667 22.75C38.6667 25.225 36.2667 27.25 33.3333 27.25Z" fill="#E90101"/>
<path d="M33.3333 27.25H32C31.2 27.25 30.6667 26.8 30.6667 26.125C30.6667 25.45 31.2 25 32 25H33.3333C34.1333 25 34.6667 25.45 34.6667 26.125C34.6667 26.8 34.1333 27.25 33.3333 27.25Z" fill="#E90101"/>
<path d="M37.3333 23.875C36.5333 23.875 36 23.425 36 22.75V19.375C36 18.7 36.5333 18.25 37.3333 18.25C38.1333 18.25 38.6667 18.7 38.6667 19.375V22.75C38.6667 23.425 38.1333 23.875 37.3333 23.875Z" fill="#E90101"/>
<path d="M20 29.5C19.2 29.5 18.6667 29.05 18.6667 28.375V18.25C18.6667 17.575 19.2 17.125 20 17.125C20.8 17.125 21.3333 17.575 21.3333 18.25V28.375C21.3333 29.05 20.8 29.5 20 29.5Z" fill="#E90101"/>
<path d="M26.6667 29.5C25.8667 29.5 25.3333 29.05 25.3333 28.375V18.25C25.3333 17.575 25.8667 17.125 26.6667 17.125C27.4667 17.125 28 17.575 28 18.25V28.375C28 29.05 27.4667 29.5 26.6667 29.5Z" fill="#E90101"/>
</g>
<defs>
<clipPath id="clip0_27818_792">
<rect width="32" height="27" fill="white" transform="translate(8 7)"/>
</clipPath>
</defs>
</svg>
