<svg width="45" height="43" viewBox="0 0 45 43" fill="none" xmlns="http://www.w3.org/2000/svg">
<rect x="5" y="5" width="35" height="33" rx="16.5" stroke="#740200" stroke-width="10"/>
<mask id="mask0_27816_244" style="mask-type:luminance" maskUnits="userSpaceOnUse" x="0" y="0" width="45" height="36">
<path d="M45 0H0V35.69H45V0Z" fill="white"/>
</mask>
<g mask="url(#mask0_27816_244)">
<path d="M22.5 41.5667C34.098 41.5667 43.5 32.5825 43.5 21.5C43.5 10.4175 34.098 1.43335 22.5 1.43335C10.902 1.43335 1.5 10.4175 1.5 21.5C1.5 32.5825 10.902 41.5667 22.5 41.5667Z" fill="#740200"/>
</g>
<path d="M22.5 24.725C27.2635 24.725 31.125 21.0351 31.125 16.4834C31.125 11.9316 27.2635 8.2417 22.5 8.2417C17.7365 8.2417 13.875 11.9316 13.875 16.4834C13.875 21.0351 17.7365 24.725 22.5 24.725Z" fill="white"/>
<mask id="mask1_27816_244" style="mask-type:luminance" maskUnits="userSpaceOnUse" x="1" y="1" width="43" height="41">
<path d="M22.5 41.5667C34.098 41.5667 43.5 32.5825 43.5 21.5C43.5 10.4175 34.098 1.43335 22.5 1.43335C10.902 1.43335 1.5 10.4175 1.5 21.5C1.5 32.5825 10.902 41.5667 22.5 41.5667Z" fill="white"/>
</mask>
<g mask="url(#mask1_27816_244)">
<path d="M22.5 54.1083C30.9914 54.1083 37.875 47.5306 37.875 39.4166C37.875 31.3027 30.9914 24.725 22.5 24.725C14.0086 24.725 7.125 31.3027 7.125 39.4166C7.125 47.5306 14.0086 54.1083 22.5 54.1083Z" fill="white"/>
</g>
</svg>
