<svg width="47" height="47" viewBox="0 0 47 47" fill="none" xmlns="http://www.w3.org/2000/svg">
<g filter="url(#filter0_d_27817_637)">
<path d="M21.5556 7.83333C26.9249 7.83333 31.2778 12.1861 31.2778 17.5556L21.5556 7.83333ZM32.5588 28.5512L41 37L32.5588 28.5512ZM37.1111 17.5556C37.1111 26.1467 30.1467 33.1111 21.5556 33.1111C12.9645 33.1111 6 26.1467 6 17.5556C6 8.96446 12.9645 2 21.5556 2C30.1467 2 37.1111 8.96446 37.1111 17.5556Z" fill="#740200"/>
<path d="M21.5556 7.83333C26.9249 7.83333 31.2778 12.1861 31.2778 17.5556M32.5588 28.5512L41 37M37.1111 17.5556C37.1111 26.1467 30.1467 33.1111 21.5556 33.1111C12.9645 33.1111 6 26.1467 6 17.5556C6 8.96446 12.9645 2 21.5556 2C30.1467 2 37.1111 8.96446 37.1111 17.5556Z" stroke="#E70001" stroke-width="3" stroke-linecap="round" stroke-linejoin="round"/>
</g>
<defs>
<filter id="filter0_d_27817_637" x="0.5" y="0.5" width="46" height="46" filterUnits="userSpaceOnUse" color-interpolation-filters="sRGB">
<feFlood flood-opacity="0" result="BackgroundImageFix"/>
<feColorMatrix in="SourceAlpha" type="matrix" values="0 0 0 0 0 0 0 0 0 0 0 0 0 0 0 0 0 0 127 0" result="hardAlpha"/>
<feOffset dy="4"/>
<feGaussianBlur stdDeviation="2"/>
<feComposite in2="hardAlpha" operator="out"/>
<feColorMatrix type="matrix" values="0 0 0 0 0 0 0 0 0 0 0 0 0 0 0 0 0 0 0.25 0"/>
<feBlend mode="normal" in2="BackgroundImageFix" result="effect1_dropShadow_27817_637"/>
<feBlend mode="normal" in="SourceGraphic" in2="effect1_dropShadow_27817_637" result="shape"/>
</filter>
</defs>
</svg>
