<svg width="43" height="59" viewBox="0 0 43 59" fill="none" xmlns="http://www.w3.org/2000/svg">
<path d="M9.97875 58.12C9.24542 58.12 8.50208 58.0067 7.74875 57.78C7.78208 57.12 7.83542 56.5067 7.90875 55.94L8.67875 55.79L9.17875 56.64C9.57875 56.78 9.93208 56.85 10.2388 56.85C10.3454 56.85 10.5721 56.82 10.9188 56.76C10.9321 56.6267 10.9388 56.5367 10.9388 56.49C10.9388 56.33 10.9121 56.21 10.8588 56.13C10.8054 56.0433 10.6888 55.95 10.5088 55.85C10.3288 55.7433 10.0054 55.5867 9.53875 55.38C8.96542 55.1 8.55208 54.8 8.29875 54.48C8.04542 54.1533 7.91875 53.77 7.91875 53.33C7.91875 52.6433 8.15208 52.1067 8.61875 51.72C9.08542 51.3333 9.72542 51.14 10.5388 51.14C10.9321 51.14 11.3221 51.18 11.7088 51.26C12.1021 51.3333 12.4454 51.4367 12.7388 51.57C12.7254 51.9433 12.6954 52.4067 12.6488 52.96L12.6188 53.39L11.8888 53.5L11.1288 52.53C10.8888 52.4567 10.5888 52.42 10.2288 52.42C10.0021 52.42 9.83208 52.44 9.71875 52.48C9.68542 52.6133 9.66875 52.7167 9.66875 52.79C9.66875 52.9367 9.70542 53.0667 9.77875 53.18C9.85208 53.2867 9.98208 53.4 10.1688 53.52C10.3554 53.6333 10.6321 53.7767 10.9988 53.95C11.5321 54.2033 11.9354 54.4267 12.2088 54.62C12.4821 54.8133 12.6721 55.0167 12.7788 55.23C12.8921 55.4367 12.9488 55.69 12.9488 55.99C12.9488 56.65 12.6854 57.17 12.1588 57.55C11.6321 57.93 10.9054 58.12 9.97875 58.12ZM13.344 57.05L13.964 56.87V52.08C13.964 51.9333 13.954 51.84 13.934 51.8C13.914 51.7533 13.8607 51.7033 13.774 51.65L13.334 51.42L13.364 50.66L13.674 50.61C14.554 50.45 15.1707 50.3633 15.524 50.35C15.584 50.51 15.6273 50.6833 15.654 50.87V53.15C16.0207 52.9833 16.3307 52.8633 16.584 52.79C16.844 52.71 17.1007 52.67 17.354 52.67C18.394 52.67 18.914 53.3033 18.914 54.57V56.54C18.914 56.68 18.924 56.7733 18.944 56.82C18.964 56.8667 19.0207 56.9167 19.114 56.97L19.594 57.25L19.554 58H16.794L16.744 57.05L17.234 56.91V55.01C17.234 54.7167 17.224 54.51 17.204 54.39C17.1907 54.2633 17.1373 54.1667 17.044 54.1C16.9507 54.0333 16.794 54 16.574 54C16.3607 54 16.054 54.0367 15.654 54.11V56.54C15.654 56.68 15.664 56.7733 15.684 56.82C15.704 56.8667 15.7573 56.9167 15.844 56.97L16.334 57.25L16.294 58H13.394L13.344 57.05ZM21.3855 58.13C20.9322 58.13 20.5689 58.0067 20.2955 57.76C20.0222 57.5067 19.8855 57.1833 19.8855 56.79C19.8855 56.2633 20.1489 55.85 20.6755 55.55C21.2089 55.25 21.9822 55.08 22.9955 55.04C22.9955 54.7267 22.9689 54.4967 22.9155 54.35C22.8689 54.1967 22.7789 54.0933 22.6455 54.04C22.5189 53.98 22.3222 53.95 22.0555 53.95C21.7822 53.95 21.5889 53.96 21.4755 53.98L21.0655 54.79L20.3255 54.74C20.2122 54.2067 20.1322 53.6533 20.0855 53.08C20.4589 52.9533 20.8655 52.8533 21.3055 52.78C21.7522 52.7067 22.1689 52.67 22.5555 52.67C23.2622 52.67 23.7689 52.81 24.0755 53.09C24.3822 53.3633 24.5355 53.82 24.5355 54.46V56.55C24.5355 56.67 24.5455 56.7533 24.5655 56.8C24.5922 56.8467 24.6455 56.8933 24.7255 56.94L25.1255 57.17L25.0855 57.79C24.3122 57.97 23.7022 58.07 23.2555 58.09C23.2422 58.05 23.2222 57.98 23.1955 57.88C23.1689 57.7733 23.1455 57.6733 23.1255 57.58C22.8655 57.7467 22.5789 57.88 22.2655 57.98C21.9589 58.08 21.6655 58.13 21.3855 58.13ZM22.0555 57C22.3222 57 22.6455 56.91 23.0255 56.73L22.9855 55.97C22.8255 55.9567 22.7189 55.95 22.6655 55.95C22.4855 55.95 22.2755 55.97 22.0355 56.01C21.7955 56.0433 21.6055 56.0833 21.4655 56.13C21.4455 56.2167 21.4355 56.2967 21.4355 56.37C21.4355 56.57 21.4889 56.7267 21.5955 56.84C21.7089 56.9467 21.8622 57 22.0555 57ZM25.4827 57.05L26.1027 56.87V52.08C26.1027 51.9333 26.0927 51.84 26.0727 51.8C26.0527 51.7533 25.9993 51.7033 25.9127 51.65L25.4727 51.42L25.5027 50.66L25.8127 50.61C26.6927 50.45 27.3093 50.3633 27.6627 50.35C27.7227 50.51 27.766 50.6833 27.7927 50.87V54.94L28.9027 53.86C28.936 53.8267 28.9527 53.79 28.9527 53.75C28.9527 53.7167 28.9427 53.69 28.9227 53.67L28.6427 53.32L28.7527 52.77H30.9727C31.0327 52.99 31.0727 53.2267 31.0927 53.48L29.4327 54.9L31.3627 57.56V58H29.6027L27.7927 55.4V56.54C27.7927 56.68 27.8027 56.7733 27.8227 56.82C27.8427 56.8667 27.896 56.9167 27.9827 56.97L28.4727 57.25L28.4327 58H25.5327L25.4827 57.05ZM33.9064 58.12C33.1264 58.12 32.5231 57.8833 32.0964 57.41C31.6764 56.9367 31.4664 56.2833 31.4664 55.45C31.4664 54.87 31.5697 54.3733 31.7764 53.96C31.9831 53.54 32.2764 53.22 32.6564 53C33.0364 52.78 33.4797 52.67 33.9864 52.67C34.7397 52.67 35.3164 52.91 35.7164 53.39C36.1231 53.87 36.3164 54.5533 36.2964 55.44L33.2564 56C33.3497 56.28 33.4797 56.4867 33.6464 56.62C33.8197 56.7467 34.0464 56.81 34.3264 56.81C34.5197 56.81 34.7497 56.7833 35.0164 56.73C35.2831 56.67 35.5531 56.59 35.8264 56.49L36.0564 57.48C35.8097 57.6667 35.4897 57.82 35.0964 57.94C34.7031 58.06 34.3064 58.12 33.9064 58.12ZM34.6564 54.6C34.6431 54.3467 34.5697 54.1633 34.4364 54.05C34.3097 53.93 34.1297 53.87 33.8964 53.87C33.7031 53.87 33.5197 53.8967 33.3464 53.95C33.2064 54.2767 33.1431 54.63 33.1564 55.01L34.6564 54.6Z" fill="#E70001"/>
<path d="M21.6339 2C31.9689 2 40.3926 10.4988 40.3926 21.0391C40.3926 31.5793 31.9689 40.0781 21.6339 40.0781C11.2989 40.078 2.87511 31.5792 2.87506 21.0391C2.87506 10.4988 11.2988 2.00008 21.6339 2Z" fill="white" stroke="#E90101" stroke-width="4"/>
<g clip-path="url(#clip0_27818_799)">
<path d="M32 18.1251H30.6607C30.4864 17.0277 30.0607 16.0034 29.4377 15.1007L30.5925 11.9827L32.8839 9.92049C33.372 9.48116 33.372 8.76883 32.8839 8.3295C32.3958 7.89017 31.6043 7.89017 31.1161 8.3295L28.6161 10.5795C28.4789 10.703 28.3755 10.8536 28.3141 11.0193L27.5269 13.1449C26.0201 12.0387 24.0964 11.375 22 11.375C17.5916 11.375 13.9457 14.3086 13.3393 18.1251H12C11.3096 18.1251 10.75 18.6288 10.75 19.2501V22.6251C10.75 23.2464 11.3096 23.7501 12 23.7501H13.4753L15.7742 34.0956C15.8911 34.6215 16.4041 35 17 35H27C27.5958 35 28.1089 34.6215 28.2257 34.0956L30.5247 23.7501H32C32.6903 23.7501 33.2499 23.2464 33.2499 22.6251V19.2501C33.25 18.6288 32.6904 18.1251 32 18.1251ZM22 13.625C25.0241 13.625 27.546 15.5573 28.125 18.125H15.875C16.454 15.5573 18.9759 13.625 22 13.625ZM13.25 20.3751H30.75V21.5001H29.5045C29.503 21.5001 29.5015 21.5 29.5001 21.5H14.5C14.4985 21.5 14.4971 21.5001 14.4956 21.5001H13.25V20.3751ZM25.9752 32.75H18.0248L16.0248 23.7501H27.9752L25.9752 32.75Z" fill="#E90101"/>
</g>
<defs>
<clipPath id="clip0_27818_799">
<rect width="30" height="27" fill="white" transform="translate(7 8)"/>
</clipPath>
</defs>
</svg>
