<svg width="27" height="25" viewBox="0 0 27 25" fill="none" xmlns="http://www.w3.org/2000/svg">
<path fill-rule="evenodd" clip-rule="evenodd" d="M20.7692 23.0769C19.0485 23.0769 17.6538 21.7856 17.6538 20.1923C17.6538 18.599 19.0485 17.3077 20.7692 17.3077C22.49 17.3077 23.8846 18.599 23.8846 20.1923C23.8846 21.7856 22.49 23.0769 20.7692 23.0769ZM6.23076 15.3846C4.51003 15.3846 3.11538 14.0933 3.11538 12.5C3.11538 10.9077 4.51003 9.61538 6.23076 9.61538C7.95149 9.61538 9.34614 10.9077 9.34614 12.5C9.34614 14.0933 7.95149 15.3846 6.23076 15.3846ZM20.7692 1.92308C22.49 1.92308 23.8846 3.21442 23.8846 4.80769C23.8846 6.40096 22.49 7.69231 20.7692 7.69231C19.0485 7.69231 17.6538 6.40096 17.6538 4.80769C17.6538 3.21442 19.0485 1.92308 20.7692 1.92308ZM20.7692 15.3846C18.9311 15.3846 17.3267 16.274 16.4035 17.6077L10.8426 14.6654C11.2019 14.0116 11.4231 13.2827 11.4231 12.5C11.4231 12.0163 11.3224 11.5586 11.179 11.1183L16.9643 8.0577C17.9124 9.00962 19.2603 9.61538 20.7692 9.61538C23.6375 9.61538 25.9615 7.46346 25.9615 4.80769C25.9615 2.15192 23.6375 0 20.7692 0C17.901 0 15.5769 2.15192 15.5769 4.80769C15.5769 5.29135 15.6776 5.74903 15.8209 6.19037L10.0357 9.25C9.08757 8.29903 7.73964 7.69231 6.23076 7.69231C3.36253 7.69231 1.03845 9.84423 1.03845 12.5C1.03845 15.1558 3.36253 17.3077 6.23076 17.3077C7.41461 17.3077 8.49356 16.9269 9.3669 16.3096L9.34614 16.3462L15.634 19.6731C15.6133 19.8462 15.5769 20.0135 15.5769 20.1923C15.5769 22.8481 17.901 25 20.7692 25C23.6375 25 25.9615 22.8481 25.9615 20.1923C25.9615 17.5365 23.6375 15.3846 20.7692 15.3846Z" fill="#E70001"/>
</svg>
