<svg width="28" height="25" viewBox="0 0 28 25" fill="currentColor" xmlns="http://www.w3.org/2000/svg">
<g clip-path="url(#clip0_27816_343)">
<path fill-rule="evenodd" clip-rule="evenodd" d="M21.0009 23.0769C19.2901 23.0769 17.9035 21.7856 17.9035 20.1923C17.9035 18.599 19.2901 17.3077 21.0009 17.3077C22.7118 17.3077 24.0984 18.599 24.0984 20.1923C24.0984 21.7856 22.7118 23.0769 21.0009 23.0769ZM6.54602 15.3846C4.83517 15.3846 3.44853 14.0933 3.44853 12.5C3.44853 10.9077 4.83517 9.61538 6.54602 9.61538C8.25686 9.61538 9.6435 10.9077 9.6435 12.5C9.6435 14.0933 8.25686 15.3846 6.54602 15.3846ZM21.0009 1.92308C22.7118 1.92308 24.0984 3.21442 24.0984 4.80769C24.0984 6.40096 22.7118 7.69231 21.0009 7.69231C19.2901 7.69231 17.9035 6.40096 17.9035 4.80769C17.9035 3.21442 19.2901 1.92308 21.0009 1.92308ZM21.0009 15.3846C19.1734 15.3846 17.5782 16.274 16.6603 17.6077L11.1313 14.6654C11.4886 14.0116 11.7085 13.2827 11.7085 12.5C11.7085 12.0163 11.6084 11.5586 11.4659 11.1183L17.2179 8.0577C18.1605 9.00962 19.5007 9.61538 21.0009 9.61538C23.8527 9.61538 26.1634 7.46346 26.1634 4.80769C26.1634 2.15192 23.8527 0 21.0009 0C18.1492 0 15.8385 2.15192 15.8385 4.80769C15.8385 5.29135 15.9386 5.74903 16.0811 6.19037L10.3291 9.25C9.38641 8.29903 8.04623 7.69231 6.54602 7.69231C3.69427 7.69231 1.38354 9.84423 1.38354 12.5C1.38354 15.1558 3.69427 17.3077 6.54602 17.3077C7.72306 17.3077 8.79581 16.9269 9.66414 16.3096L9.6435 16.3462L15.8952 19.6731C15.8746 19.8462 15.8385 20.0135 15.8385 20.1923C15.8385 22.8481 18.1492 25 21.0009 25C23.8527 25 26.1634 22.8481 26.1634 20.1923C26.1634 17.5365 23.8527 15.3846 21.0009 15.3846Z" fill="#740200"/>
</g>
<defs>
<clipPath id="clip0_27816_343">
<rect width="26.8449" height="25" fill="white" transform="translate(0.35083)"/>
</clipPath>
</defs>
</svg>
