<svg width="25" height="24" viewBox="0 0 25 24" fill="none" xmlns="http://www.w3.org/2000/svg">
<path d="M3.04143 13.4787L11.6916 22.4837C11.9895 22.7938 12.1384 22.9489 12.3141 22.9871C12.3933 23.0043 12.4746 23.0043 12.5537 22.9871C12.7294 22.9489 12.8783 22.7938 13.1763 22.4837L21.8264 13.4787C24.2602 10.9452 24.5557 6.77588 22.5088 3.85222L22.124 3.30248C19.6753 -0.195047 14.76 0.39151 13.0395 4.38659C12.7964 4.95093 12.0715 4.95093 11.8284 4.38659C10.1079 0.39151 5.19263 -0.195048 2.74392 3.30249L2.35904 3.85222C0.312116 6.77588 0.607664 10.9452 3.04143 13.4787Z" fill="white" stroke="#740200" stroke-width="2"/>
</svg>
